<mxfile host="65bd71144e">
    <diagram id="Z-dWwJ2N7JOVZa6DWbh0" name="Page-1">
        <mxGraphModel dx="1107" dy="653" grid="1" gridSize="10" guides="1" tooltips="1" connect="1" arrows="1" fold="1" page="1" pageScale="1" pageWidth="827" pageHeight="1169" math="0" shadow="0">
            <root>
                <mxCell id="0"/>
                <mxCell id="1" parent="0"/>
                <mxCell id="33" style="edgeStyle=none;html=1;" edge="1" parent="1" source="2" target="18">
                    <mxGeometry relative="1" as="geometry"/>
                </mxCell>
                <mxCell id="34" value="遍历引用，并将参考文献&lt;div&gt;摘要&lt;span style=&quot;background-color: light-dark(#ffffff, var(--ge-dark-color, #121212));&quot;&gt;作为数据返回&lt;/span&gt;&lt;/div&gt;" style="edgeLabel;html=1;align=center;verticalAlign=middle;resizable=0;points=[];" vertex="1" connectable="0" parent="33">
                    <mxGeometry x="-0.0275" y="1" relative="1" as="geometry">
                        <mxPoint x="1" y="20" as="offset"/>
                    </mxGeometry>
                </mxCell>
                <mxCell id="2" value="Grobid" style="image;sketch=0;aspect=fixed;html=1;points=[];align=center;fontSize=12;image=img/lib/mscae/Docker.svg;" vertex="1" parent="1">
                    <mxGeometry x="620" y="234.5" width="50" height="41" as="geometry"/>
                </mxCell>
                <mxCell id="19" style="edgeStyle=none;html=1;entryX=0.5;entryY=0;entryDx=0;entryDy=0;" edge="1" parent="1" source="29" target="38">
                    <mxGeometry relative="1" as="geometry">
                        <mxPoint x="390.5013999999999" y="163" as="sourcePoint"/>
                        <mxPoint x="390.5050000000001" y="129.9999999999999" as="targetPoint"/>
                    </mxGeometry>
                </mxCell>
                <mxCell id="24" value="导入pdf，并将正文解析为向量块" style="edgeLabel;html=1;align=center;verticalAlign=middle;resizable=0;points=[];" vertex="1" connectable="0" parent="19">
                    <mxGeometry x="-0.037" y="-1" relative="1" as="geometry">
                        <mxPoint as="offset"/>
                    </mxGeometry>
                </mxCell>
                <mxCell id="20" style="edgeStyle=none;html=1;startArrow=classic;startFill=1;entryX=0.5;entryY=1;entryDx=0;entryDy=0;" edge="1" parent="1" source="18" target="38">
                    <mxGeometry relative="1" as="geometry">
                        <mxPoint x="390.5050000000001" y="174.9999999999999" as="targetPoint"/>
                    </mxGeometry>
                </mxCell>
                <mxCell id="25" value="Embedding/LLM" style="edgeLabel;html=1;align=center;verticalAlign=middle;resizable=0;points=[];" vertex="1" connectable="0" parent="20">
                    <mxGeometry x="-0.1702" y="1" relative="1" as="geometry">
                        <mxPoint x="1" y="-5" as="offset"/>
                    </mxGeometry>
                </mxCell>
                <mxCell id="26" value="" style="edgeStyle=none;html=1;startArrow=classic;startFill=1;" edge="1" parent="1" source="18" target="35">
                    <mxGeometry relative="1" as="geometry">
                        <mxPoint x="200.6300000000001" y="254.9999999999999" as="targetPoint"/>
                    </mxGeometry>
                </mxCell>
                <mxCell id="27" value="正文构建向量库" style="edgeLabel;html=1;align=center;verticalAlign=middle;resizable=0;points=[];" vertex="1" connectable="0" parent="26">
                    <mxGeometry x="0.0411" y="-2" relative="1" as="geometry">
                        <mxPoint x="2" y="-13" as="offset"/>
                    </mxGeometry>
                </mxCell>
                <mxCell id="18" value="" style="shape=image;imageAspect=0;aspect=fixed;verticalLabelPosition=bottom;verticalAlign=top;image=https://raw.githubusercontent.com/langchain-ai/.github/main/profile/logo-dark.svg#gh-light-mode-only;" vertex="1" parent="1">
                    <mxGeometry x="320.29" y="244" width="140.43" height="22" as="geometry"/>
                </mxCell>
                <mxCell id="28" value="向量库查询引用关联正文段落" style="edgeLabel;html=1;align=center;verticalAlign=middle;resizable=0;points=[];" vertex="1" connectable="0" parent="1">
                    <mxGeometry x="259.99999999999994" y="275.5" as="geometry"/>
                </mxCell>
                <mxCell id="29" value="" style="dashed=0;outlineConnect=0;html=1;align=center;labelPosition=center;verticalLabelPosition=bottom;verticalAlign=top;shape=mxgraph.weblogos.adobe_pdf;fillColor=#A60908" vertex="1" parent="1">
                    <mxGeometry x="373.52" y="30" width="34" height="30" as="geometry"/>
                </mxCell>
                <mxCell id="30" style="edgeStyle=none;html=1;entryX=0.06;entryY=-0.012;entryDx=0;entryDy=0;entryPerimeter=0;" edge="1" parent="1" source="29" target="2">
                    <mxGeometry relative="1" as="geometry"/>
                </mxCell>
                <mxCell id="31" value="解析引用及参考文献&lt;span style=&quot;background-color: light-dark(#ffffff, var(--ge-dark-color, #121212));&quot;&gt;摘要&lt;/span&gt;" style="edgeLabel;html=1;align=center;verticalAlign=middle;resizable=0;points=[];" vertex="1" connectable="0" parent="30">
                    <mxGeometry x="0.0251" y="3" relative="1" as="geometry">
                        <mxPoint x="41" y="-17" as="offset"/>
                    </mxGeometry>
                </mxCell>
                <mxCell id="35" value="FAISS" style="shape=image;imageAspect=0;aspect=fixed;verticalLabelPosition=bottom;verticalAlign=top;image=data:image/svg+xml,PHN2ZyB4bWxuczp4bGluaz0iaHR0cDovL3d3dy53My5vcmcvMTk5OS94bGluayIgeG1sbnM9Imh0dHA6Ly93d3cudzMub3JnLzIwMDAvc3ZnIiB2aWV3Qm94PSIwIDAgNjA5MC45NTIxIDEzMDcuMTczOSI+CiAgPGxpbmVhckdyYWRpZW50IHkyPSI0MjcuOTc3NSIgeTE9IjYwNC42NjIyIiB4Mj0iNjA0LjU5NDYiIHgxPSI3MzkuNDMyNyIgZ3JhZGllbnRVbml0cz0idXNlclNwYWNlT25Vc2UiIGlkPSJhIj4KICAgIDxzdG9wIHN0b3AtY29sb3I9IiMwODY3ZGYiIG9mZnNldD0iLjAwMDYiLz4KICAgIDxzdG9wIHN0b3AtY29sb3I9IiMwNjY4ZTEiIG9mZnNldD0iLjQ1MzkiLz4KICAgIDxzdG9wIHN0b3AtY29sb3I9IiMwMDY0ZTAiIG9mZnNldD0iLjg1OTEiLz4KICA8L2xpbmVhckdyYWRpZW50PgogIDxsaW5lYXJHcmFkaWVudCB5Mj0iNDIwLjAyNzciIHkxPSI0OTAuMjA3MyIgeDI9IjU2OS4zNjk4IiB4MT0iNDc2LjkzIiBncmFkaWVudFVuaXRzPSJ1c2VyU3BhY2VPblVzZSIgaWQ9ImIiPgogICAgPHN0b3Agc3RvcC1jb2xvcj0iIzAwNjRkZiIgb2Zmc2V0PSIuMTMyMyIvPgogICAgPHN0b3Agc3RvcC1jb2xvcj0iIzAwNjRlMCIgb2Zmc2V0PSIuOTk4OCIvPgogIDwvbGluZWFyR3JhZGllbnQ+CiAgPGxpbmVhckdyYWRpZW50IHkyPSI0OTkuODQ5IiB5MT0iNTkzLjE5MzIiIHgyPSI0NzQuODI5NiIgeDE9IjQzNy43NDg2IiBncmFkaWVudFVuaXRzPSJ1c2VyU3BhY2VPblVzZSIgaWQ9ImMiPgogICAgPHN0b3Agc3RvcC1jb2xvcj0iIzAwNzJlYyIgb2Zmc2V0PSIuMDE0NyIvPgogICAgPHN0b3Agc3RvcC1jb2xvcj0iIzAwNjRkZiIgb2Zmc2V0PSIuNjg4MSIvPgogIDwvbGluZWFyR3JhZGllbnQ+CiAgPGxpbmVhckdyYWRpZW50IHkyPSI2MDMuNjE4MyIgeTE9IjY2MC42MjYxIiB4Mj0iNDM3LjAwMzQiIHgxPSI0MzIuNzEyOSIgZ3JhZGllbnRVbml0cz0idXNlclNwYWNlT25Vc2UiIGlkPSJkIj4KICAgIDxzdG9wIHN0b3AtY29sb3I9IiMwMDdjZjYiIG9mZnNldD0iLjA3MzEiLz4KICAgIDxzdG9wIHN0b3AtY29sb3I9IiMwMDcyZWMiIG9mZnNldD0iLjk5NDMiLz4KICA8L2xpbmVhckdyYWRpZW50PgogIDxsaW5lYXJHcmFkaWVudCB5Mj0iNjY4Ljc1MTkiIHkxPSI2OTEuNTkyMSIgeDI9IjQzMi4wMDM0IiB4MT0iNDM1LjA3MjQiIGdyYWRpZW50VW5pdHM9InVzZXJTcGFjZU9uVXNlIiBpZD0iZSI+CiAgICA8c3RvcCBzdG9wLWNvbG9yPSIjMDA3ZmY5IiBvZmZzZXQ9Ii4wNzMxIi8+CiAgICA8c3RvcCBzdG9wLWNvbG9yPSIjMDA3Y2Y2IiBvZmZzZXQ9IjEiLz4KICA8L2xpbmVhckdyYWRpZW50PgogIDxsaW5lYXJHcmFkaWVudCB5Mj0iNzM4LjE1OSIgeTE9IjY5Ny41OTE3IiB4Mj0iNDUyLjM5NzQiIHgxPSI0MzMuMjcwOCIgZ3JhZGllbnRVbml0cz0idXNlclNwYWNlT25Vc2UiIGlkPSJmIj4KICAgIDxzdG9wIHN0b3AtY29sb3I9IiMwMDdmZjkiIG9mZnNldD0iLjA3MzEiLz4KICAgIDxzdG9wIHN0b3AtY29sb3I9IiMwMDgyZmIiIG9mZnNldD0iMSIvPgogIDwvbGluZWFyR3JhZGllbnQ+CiAgPGxpbmVhckdyYWRpZW50IHkyPSI0NjYuMzMyMSIgeTE9IjUwMS4zMDM5IiB4Mj0iNzUyLjUyOTUiIHgxPSI3MjcuMjQzNSIgZ3JhZGllbnRVbml0cz0idXNlclNwYWNlT25Vc2UiIGlkPSJnIj4KICAgIDxzdG9wIHN0b3AtY29sb3I9IiMwMDdmZjgiIG9mZnNldD0iLjI3OTkiLz4KICAgIDxzdG9wIHN0b3AtY29sb3I9IiMwMDgyZmIiIG9mZnNldD0iLjkxNDEiLz4KICA8L2xpbmVhckdyYWRpZW50PgogIDxsaW5lYXJHcmFkaWVudCB5Mj0iNjUwLjU2OTMiIHkxPSI0NTUuOTc4OCIgeDI9Ijk3Mi4zOTI5IiB4MT0iOTE5LjQ5NDUiIGdyYWRpZW50VW5pdHM9InVzZXJTcGFjZU9uVXNlIiBpZD0iaCI+CiAgICA8c3RvcCBzdG9wLWNvbG9yPSIjMDA4MmZiIiBvZmZzZXQ9IjAiLz4KICAgIDxzdG9wIHN0b3AtY29sb3I9IiMwMDgxZmEiIG9mZnNldD0iLjk5OTUiLz4KICA8L2xpbmVhckdyYWRpZW50PgogIDxsaW5lYXJHcmFkaWVudCB5Mj0iNzI1LjY2NTEiIHkxPSI2NTguMDEzNSIgeDI9Ijk1MS42ODY3IiB4MT0iOTg1LjE2NDEiIGdyYWRpZW50VW5pdHM9InVzZXJTcGFjZU9uVXNlIiBpZD0iaSI+CiAgICA8c3RvcCBzdG9wLWNvbG9yPSIjMDA4MWZhIiBvZmZzZXQ9Ii4wNjE5Ii8+CiAgICA8c3RvcCBzdG9wLWNvbG9yPSIjMDA4MGY5IiBvZmZzZXQ9IjEiLz4KICA8L2xpbmVhckdyYWRpZW50PgogIDxsaW5lYXJHcmFkaWVudCB5Mj0iNzQwLjIxNzMiIHkxPSI3NjEuNTMxNiIgeDI9Ijk1Ni4zNzMzIiB4MT0iOTI1LjA3OTMiIGdyYWRpZW50VW5pdHM9InVzZXJTcGFjZU9uVXNlIiBpZD0iaiI+CiAgICA8c3RvcCBzdG9wLWNvbG9yPSIjMDI3YWYzIiBvZmZzZXQ9IjAiLz4KICAgIDxzdG9wIHN0b3AtY29sb3I9IiMwMDgwZjkiIG9mZnNldD0iMSIvPgogIDwvbGluZWFyR3JhZGllbnQ+CiAgPGxpbmVhckdyYWRpZW50IHkyPSI3NjUuNjk2MiIgeTE9Ijc2NS42OTYyIiB4Mj0iOTE5LjQ4NTUiIHgxPSI4NzUuOTk5MyIgZ3JhZGllbnRVbml0cz0idXNlclNwYWNlT25Vc2UiIGlkPSJrIj4KICAgIDxzdG9wIHN0b3AtY29sb3I9IiMwMzc3ZWYiIG9mZnNldD0iMCIvPgogICAgPHN0b3Agc3RvcC1jb2xvcj0iIzAyNzlmMSIgb2Zmc2V0PSIuOTk5NCIvPgogIDwvbGluZWFyR3JhZGllbnQ+CiAgPGxpbmVhckdyYWRpZW50IHkyPSI3NjAuMTM5OSIgeTE9Ijc0MS43NDY5IiB4Mj0iODY5LjQ1NiIgeDE9IjgzOC4xOTI3IiBncmFkaWVudFVuaXRzPSJ1c2VyU3BhY2VPblVzZSIgaWQ9ImwiPgogICAgPHN0b3Agc3RvcC1jb2xvcj0iIzA0NzFlOSIgb2Zmc2V0PSIuMDAxOSIvPgogICAgPHN0b3Agc3RvcC1jb2xvcj0iIzAzNzdlZiIgb2Zmc2V0PSIxIi8+CiAgPC9saW5lYXJHcmFkaWVudD4KICA8bGluZWFyR3JhZGllbnQgeTI9IjczMi4wMzkzIiB5MT0iNjA2LjEyMjYiIHgyPSI4NDIuOTc0MSIgeDE9Ijc0Mi44MjYxIiBncmFkaWVudFVuaXRzPSJ1c2VyU3BhY2VPblVzZSIgaWQ9Im0iPgogICAgPHN0b3Agc3RvcC1jb2xvcj0iIzA4NjdkZiIgb2Zmc2V0PSIuMjc2NSIvPgogICAgPHN0b3Agc3RvcC1jb2xvcj0iIzA0NzFlOSIgb2Zmc2V0PSIxIi8+CiAgPC9saW5lYXJHcmFkaWVudD4KICA8cGF0aCBmaWxsPSJub25lIiBkPSJtMCAwaDYwOTAuOTUyMXYxMzA3LjE3MzloLTYwOTAuOTUyMXoiLz4KICA8ZyBmaWxsPSIjMWMyYjMzIj4KICAgIDxwYXRoIGQ9Im0xMTI4LjcyMjIgNDEyLjkzMzdoNzUuMjIyN2wxMjcuOTA2NyAyMzEuMzY3NCAxMjcuOTAyMi0yMzEuMzY3NGg3My41OTYydjM4MC4xODYzaC02MS4zN3YtMjkxLjM4NjlsLTExMi4xNjE2IDIwMS43NjkxaC01Ny41N2wtMTEyLjE1MTMtMjAxLjc2OTF2MjkxLjM4NjloLTYxLjM3NDl6Ii8+CiAgICA8cGF0aCBkPSJtMTczMS4zMTMyIDc5OS45MDc4cS00Mi42MzcxIDAtNzQuOTUxNi0xOC44NzEyYTEzMS45OSAxMzEuOTkgMCAwIDEgLTUwLjM3MjItNTIuMjc5NHEtMTguMDY0My0zMy40MDE0LTE4LjA2MjItNzYuNTc4NiAwLTQzLjcxNzQgMTcuNjUzMi03Ny4zOTY2IDE3LjY1MDktMzMuNjY4MyA0OS4wMjA4LTUyLjY4NCAzMS4zNjA5LTE5LjAwNDUgNzIuMDk3Ni0xOS4wMDkgNDAuNDYzMSAwIDY5LjY1MjUgMTkuMTQ2OCAyOS4xOTM3IDE5LjE0NDggNDQuOTQ0MiA1My42MzUzIDE1Ljc1MDYgMzQuNDg4NCAxNS43NTUgODAuOTIxOXYxNi44NGgtMjA4LjI5MDVxNS43MDE0IDM0Ljc2MTggMjguMTA0NiA1NC43MiAyMi40MDU1IDE5Ljk1ODEgNTYuNjIyNyAxOS45NiAyNy40MjY2IDAgNDcuMjUxNS04LjE0ODcgMTkuODE4Mi04LjE0ODYgMzcuMjA0Ni0yNC43MTI3bDMyLjU5IDM5LjkyMDlxLTQ4LjYxODUgNDQuNTM3NS0xMTkuMjIwMiA0NC41MzUzem00NC44MTA5LTIyNS41M3EtMTkuMjg0Ni0xOS42OTE0LTUwLjUxLTE5LjY4OTItMzAuNDIwNyAwLTUwLjkxOTEgMjAuMDkzOC0yMC41MTE2IDIwLjEwNDgtMjUuOTM1MiA1NC4wNDQyaDE0OS4zNjA4cS0yLjcyMDYtMzQuNzYyMS0yMS45OTY1LTU0LjQ0OTJ6Ii8+CiAgICA8cGF0aCBkPSJtMTkzMS40NiA1NjAuMTIwNmgtNTYuNDg0OXYtNTAuMjM4OWg1Ni40ODQ5di04My4xaDU5LjIwNTV2ODMuMWg4NS44MTJ2NTAuMjM4OWgtODUuODEydjEyNy4zNnEwIDMxLjc3NDQgMTAuODYgNDUuMzUzMiAxMC44NjI3IDEzLjU4MzQgMzcuMjA0NiAxMy41NzY3YTE3NC4zNDczIDE3NC4zNDczIDAgMCAwIDE5LjgyMjYtLjk1MTRxOC4xNDg3LS45NDY4IDE3LjkyNDQtMi41Nzg0djQ5LjY5NjZhMTY4LjAwNDMgMTY4LjAwNDMgMCAwIDEgLTIyLjY3NjYgNC44ODU2IDE3Ny44NDkgMTc3Ljg0OSAwIDAgMSAtMjYuNDc3NiAxLjkwMjdxLTk1Ljg2MzQgMC05NS44NjMzLTEwNC44MjExeiIvPgogICAgPHBhdGggZD0ibTIzODQuOTc4OSA3OTMuMTJoLTU4LjExNjR2LTM5LjY1YTEwNS4wMDE1IDEwNS4wMDE1IDAgMCAxIC0zOS4zNzQgMzQuMzU1cS0yMy44OTkgMTIuMDc2NC01NC4zMTEgMTIuMDgyOS0zNy40NzU3IDAtNjYuMzk4My0xOS4xNDI0LTI4LjkyNzEtMTkuMTUxMy00NS40ODY3LTUyLjY4MzktMTYuNTY0LTMzLjUzNDktMTYuNTY0LTc2LjcxNjUgMC00My40NSAxNi44MzUyLTc2Ljg1NDIgMTYuODM3NS0zMy40MDE2IDQ2LjU3NTgtNTIuNDEyOCAyOS43MjcxLTE5LjAwNDUgNjguMjkyMi0xOS4wMDkgMjkuMDYgMCA1Mi4xNDYgMTEuMjY5NGExMDMuMTI1OSAxMDMuMTI1OSAwIDAgMSAzOC4yODQ4IDMxLjkxdi0zNi4zODY4aDU4LjExNjR6bS01OS4yMDExLTE4NC4xMnEtOS41MDg5LTI0LjE2NTktMzAuMDA3My0zOC4xNTYtMjAuNTA1LTEzLjk3NjctNDcuMzg5My0xMy45ODEyLTM4LjAyMjYgMC02MC41NTY5IDI1LjUyNjMtMjIuNTM4OCAyNS41MjYxLTIyLjUzODggNjguOTc2NyAwIDQzLjcyNDEgMjEuNzI1MiA2OS4yNDggMjEuNzE4NiAyNS41MjYyIDU4LjkyNTUgMjUuNTI2MiAyNy40MzM0IDAgNDguODgzLTE0LjEyMzRhNzkuNzg0MiA3OS43ODQyIDAgMCAwIDMwLjk1ODYtMzguMDE4MnoiLz4KICAgIDxwYXRoIGQ9Im0yNTI5LjQ0NTIgNjgxLjkxNDdxLTE0LjEyMzYtMzUuOTgyMi0xNC4xMTktNzguODkgMC00Mi45MDM3IDE0LjExOS03OC44ODU5YTE4NS4zNjg2IDE4NS4zNjg2IDAgMCAxIDM5LjkyMDgtNjIuNDYgMTgwLjQxNjYgMTgwLjQxNjYgMCAwIDEgNjAuODI4MS00MS4wMDU1cTM1LjAyODYtMTQuNTMgNzYuODUtMTQuNTMyNSA0MS44MjM2IDAgNzYuODU0MyAxNC41MzI1YTE4MC40Nzg1IDE4MC40Nzg1IDAgMCAxIDYwLjgzMjYgNDEuMDA1NSAxODUuNTc0IDE4NS41NzQgMCAwIDEgMzkuOTIwOCA2Mi40NnExNC4xMSAzNS45ODIyIDE0LjExOSA3OC44ODU5IDAgNDIuOTEtMTQuMTE5IDc4Ljg5YTE4NS41NzMxIDE4NS41NzMxIDAgMCAxIC0zOS45MjA4IDYyLjQ2IDE4MC40MTQ2IDE4MC40MTQ2IDAgMCAxIC02MC44MzI2IDQxLjAwNTZxLTM1LjAyODYgMTQuNTIzNC03Ni44NTQzIDE0LjUyNzktNDEuODE2OCAwLTc2Ljg1LTE0LjUyNzlhMTgwLjM1MjggMTgwLjM1MjggMCAwIDEgLTYwLjgyODEtNDEuMDA1NiAxODUuMzY3NyAxODUuMzY3NyAwIDAgMSAtMzkuOTIwOC02Mi40NnptMzA0LjQyMDctNzguODlxMC00MC45OTY3LTE2LjI5MjktNzIuMzY4Ny0xNi4yOTA2LTMxLjM2NzctNDQuOTQ0Mi00OS4wMTY0LTI4LjY1MzctMTcuNjUwOS02NS41ODQ5LTE3LjY1MzItMzYuOTI5IDAtNjUuNTggMTcuNjUzMi0yOC42NTM2IDE3LjY1MS00NC45NDQyIDQ5LjAxNjQtMTYuMjkwNyAzMS4zNjEtMTYuMjkyOSA3Mi4zNjg3IDAgNDEuMDEgMTYuMjkyOSA3Mi4zNzMyIDE2LjI5NzIgMzEuMzY3NSA0NC45NDQyIDQ5LjAxNjMgMjguNjQ3IDE3LjY1NzcgNjUuNTggMTcuNjUzMiAzNi45Mjg5IDAgNjUuNTg0OS0xNy42NTMyIDI4LjY1MzYtMTcuNjUwOSA0NC45NDQyLTQ5LjAxNjMgMTYuMjkwOC0zMS4zNjc5IDE2LjI5MjktNzIuMzczNXoiLz4KICAgIDxwYXRoIGQ9Im0yOTUzLjA4MTYgNTA5Ljg4MTdoNTguMzgzMXYzOS4zNzQxYTEwNC4yMzU3IDEwNC4yMzU3IDAgMCAxIDM5LjI0NTEtMzQuMjE3M3EyMy43NTIzLTExLjk0MjkgNTQuMTczMS0xMS45NDk1IDM3LjQ3NTggMCA2Ni41MzE4IDE5LjE0NjggMjkuMDYgMTkuMTQ0OCA0NS40ODY2IDUyLjU0NjIgMTYuNDMwNyAzMy40MDE0IDE2LjQzMDcgNzYuODU0MiAwIDQzLjE3NzItMTYuODM1MiA3Ni43MTY1LTE2LjgzNzUgMzMuNTQxNS00Ni41NzU4IDUyLjU0NjEtMjkuNzI3MyAxOS4wMDQ1LTY4LjI5MjIgMTkuMDA5LTI4LjUxMzYgMC01MS4zMjgtMTAuODZhMTAxLjk0IDEwMS45NCAwIDAgMSAtMzguMDE4Mi0zMC45NTg2djE0OS4wODQ3aC01OS4yMDF6bTg5LjIwODQgMjIyLjI3MTlxMjAuNDk4NCAxMy45OSA0Ny4zODkzIDEzLjk4NTYgMzguMDA5MyAwIDYwLjU1Ny0yNS41MjYyIDIyLjUzODktMjUuNTI2MyAyMi41Mzg4LTY4Ljk3NjggMC00My43MjQtMjEuNzI1My02OS4yNDc5LTIxLjczMTktMjUuNTI2Mi01OC45MjU0LTI1LjUyNjMtMjcuNDMzMyAwLTQ4Ljg4MyAxNC4xMTlhNzkuNzc2IDc5Ljc3NiAwIDAgMCAtMzAuOTU4NyAzOC4wMTgydjg0Ljk5ODRxOS41MDIyIDI0LjE3MjQgMzAuMDA3MyAzOC4xNTZ6Ii8+CiAgICA8cGF0aCBkPSJtMzQxNC43MzYxIDc5OS45MDc4cS00Mi42MzcxIDAtNzQuOTUxNi0xOC44NzEyYTEzMS45NzA4IDEzMS45NzA4IDAgMCAxIC01MC4zNzY3LTUyLjI3OTRxLTE4LjA2NDMtMzMuNDAxNC0xOC4wNTc3LTc2LjU3ODYgMC00My43MTc0IDE3LjY0ODctNzcuMzk2NiAxNy42NTA5LTMzLjY2ODMgNDkuMDE2NC01Mi42ODQgMzEuMzY3Ny0xOS4wMDQ1IDcyLjEwMi0xOS4wMDkgNDAuNDU2NSAwIDY5LjY1NjkgMTkuMTQ2OCAyOS4xODcxIDE5LjE0NDggNDQuOTQ0MyA1My42MzUzIDE1Ljc0MzggMzQuNDg4NCAxNS43NDYxIDgwLjkyMTl2MTYuODRoLTIwOC4yODYzcTUuNzAxNSAzNC43NjE4IDI4LjEwOTEgNTQuNzIgMjIuNDA1NSAxOS45NTgxIDU2LjYxODIgMTkuOTYgMjcuNDI2OCAwIDQ3LjI1MTUtOC4xNDg3dDM3LjIwNDYtMjQuNzEyN2wzMi41ODU3IDM5LjkyMDlxLTQ4LjYxMTggNDQuNTM3NS0xMTkuMjExMiA0NC41MzUzem00NC44MDItMjI1LjUzcS0xOS4yODQ4LTE5LjY5MTQtNTAuNTEtMTkuNjg5Mi0zMC40MTQgMC01MC45MTQ2IDIwLjA5MzgtMjAuNTA1IDIwLjEwNDgtMjUuOTM1MiA1NC4wNDQyaDE0OS4zNTY0cS0yLjcxNDItMzQuNzYyMS0yMS45OTY2LTU0LjQ0OTJ6Ii8+CiAgICA8cGF0aCBkPSJtMzU5MC40MzIyIDUwOS44ODE3aDU4LjM4Nzh2NDEuMjc2N3EzMi44NTQ3LTQ4LjA3MTcgOTEuNTE1Ni00OC4wNjk0IDUwLjUxMjMgMCA3Ny42Njc4IDMxLjUwMSAyNy4xNTMzIDMxLjUwNzYgMjcuMTU3NyA5MC4xNnYxNjguMzdoLTU5LjIwMTF2LTE2MS4zMXEwLTM5LjY0MzEtMTQuMTIzNC01OC4zODMxLTE0LjEyMzQtMTguNzM3OC00NC4yNjQxLTE4LjczNzktMjYuMzQ2NSAwLTQ2LjQzMzUgMTMuNTc2Ni0yMC4xMDQ5IDEzLjU4MzQtMzEuNTAxIDM4LjAxODJ2MTg2LjgzNjJoLTU5LjIwNTV6Ii8+CiAgICA8cGF0aCBkPSJtNDI2NC43MjA3IDY4NS41ODIzcTAgNTQuMDQtMzcuMzQyNSA4NC4xODQ5LTM3LjM0MjMgMzAuMTQwNy0xMDcuMTI4MiAzMC4xNDA2LTUyLjQxMjggMC05My4yODUtMTkuODIyNi00MC44NzY1LTE5LjgxODEtNjMuNjc3Ny01Ny41NzRsNDYuMTYyNC0zNi4zODY2cTE5LjAwNDUgMjguNzg3IDQ3LjUyMjYgNDIuNzcgMjguNTEzNyAxMy45OSA2NS40NDcxIDEzLjk4NTYgMzcuMjA5IDAgNTcuODQ1Mi0xNC4xMjM0IDIwLjYzMTYtMTQuMTE2OCAyMC42MzYxLTM4LjI4OTMgMC0yMC45MDUtMTQuMzktMzQuNjIxOC0xNC4zOTY5LTEzLjcxLTQ4Ljg3ODUtMjAuNzczOWwtNTcuMDMxNy0xMS45NXEtMTA0LjgyNTUtMjEuNzI1My0xMDQuODIxLTEwNS45MSAwLTMzLjQwMTQgMTcuMzc3NS01OC4zODc1IDE3LjM3NzYtMjQuOTggNDkuMjg3Ni0zOC44MzE3IDMxLjkwNzctMTMuODUgNzQuODE4Mi0xMy44NTIzIDk1LjMxNjQgMCAxNDIuNTY4IDczLjg2NjlsLTQ2LjcwNDcgMzMuNDAzN3EtMTYuODQ0MS0yNS41MjYzLTQwLjA1ODYtMzcuODg0OC0yMy4yMTkxLTEyLjM1NjQtNTYuMzQ3MS0xMi4zNTQxLTM2LjY2MjIgMC01Ni44OTM4IDEzLjQzODgtMjAuMjMxNyAxMy40NDMzLTIwLjIzMTYgMzguNDI3MSAwIDE5LjAxMTMgMTMuMTcyMSAzMC42ODc1IDEzLjE2MzEgMTEuNjc2MSA0Ni4wMjg5IDE4LjczNzlsNTcuMDI3MyAxMS45NXExMDguODkyOSAyMi44MTIzIDEwOC44OTc0IDEwOS4xNjl6Ii8+CiAgICA8cGF0aCBkPSJtNDMyNC4zMjYzIDcyOS4wMzI4cS0xOC4zMzc4LTMzLjQwODEtMTguMzMzNC03Ny4zOTY2IDAtNDQuMjY0MSAxOC4zMzM0LTc3LjY2NzhhMTMyLjEzIDEzMi4xMyAwIDAgMSA1MS4wNTI0LTUyLjE0MTVxMzIuNzE0NS0xOC43MzggNzUuOTAyOS0xOC43Mzc5IDQzLjE3IDAgNzUuODk4NSAxOC43Mzc5YTEzMi4yMjg0IDEzMi4yMjg0IDAgMCAxIDUxLjA1NjggNTIuMTQxNXExOC4zMjQ1IDMzLjQwMTYgMTguMzI4OSA3Ny42Njc4IDAgNDMuOTkwOC0xOC4zMjg5IDc3LjM5NjZhMTMyLjIxNzQgMTMyLjIxNzQgMCAwIDEgLTUxLjA1NjkgNTIuMTM3MnEtMzIuNzIxMyAxOC43Mzc4LTc1Ljg5ODUgMTguNzM3OC00Mi45MTcxIDAtNzUuNzctMTguNzM3OGExMzEuODYgMTMxLjg2IDAgMCAxIC01MS4xODUyLTUyLjEzNzJ6bTIxMS42NzgxLTc3LjM5NjZxMC00Mi42My0yMy4yMTQ1LTY4LjQzNDQtMjMuMjE5LTI1LjgtNjEuNTA4My0yNS43OTc0LTM4LjI4OTMgMC02MS41MDgzIDI1Ljc5NzQtMjMuMjE4OSAyNS44LTIzLjIyMzQgNjguNDM0NCAwIDQyLjM2MzYgMjMuMjIzNCA2OC4xNjMzIDIzLjIxODkgMjUuOCA2MS41MDgzIDI1Ljc5NzQgMzguMjg5MyAwIDYxLjUwODMtMjUuNzk3NCAyMy4yMTktMjUuNzk5NSAyMy4yMTQ1LTY4LjE2MzN6Ii8+CiAgICA8cGF0aCBkPSJtNDg5NC4xOTgyIDc5My4xMmgtNTguMzg3NXYtNDAuNzM0OHEtMzIuNTg4IDQ3LjUyNDgtOTAuMTYgNDcuNTIyNi00OS45NjU0IDAtNzYuNzE2NC0zMS41MDEtMjYuNzUzMi0zMS41MDA5LTI2Ljc0ODgtOTAuMTZ2LTE2OC4zNjUxaDU5LjIwMTF2MTYxLjMwNTlxMCAzOS4zNzY0IDEzLjg0NzggNTguMjUgMTMuODUgMTguODc3OSA0My40NTA2IDE4Ljg3NTcgMjUuNTE5NSAwIDQ1LjM0ODgtMTMuNDQzMyAxOS44MjQ4LTEzLjQ0MzMgMzAuOTU4Ni0zNy42MTM2di0xODcuMzc0N2g1OS4yMDU1eiIvPgogICAgPHBhdGggZD0ibTQ5NTkuMzY1MiA1MDkuODgxN2g1OC4zODMxdjQzLjQ0NjJxMjcuNDMzMy00Ny41MTgzIDc0Ljk1MTYtNDcuNTIyNyAxNS40ODM4IDAgMjUuMjYgMi43MTYydjU0LjU4NjZhMTkzLjkwNTUgMTkzLjkwNTUgMCAwIDAgLTI2Ljg4NjYtMS45MDI3cS01My4yMjYzIDAtNzIuNTA2NSA0Ny43OTM5djE4NC4xMjA4aC01OS4yMDExeiIvPgogICAgPHBhdGggZD0ibTUxNTMuMTIzNSA1NzMuODMwNmExMjguNjYyNSAxMjguNjYyNSAwIDAgMSA0OS44MzQzLTUyLjEzNzFxMzIuMDM0NC0xOC41OTc5IDc0Ljk1MTYtMTguNjA0NSA3OS44MzI3IDAgMTE4Ljk0NDUgNjMuMjc3NmwtNDYuMTY2OCAzMS4yM3EtMTMuODUtMjAuOTExOC0zMC45NTg3LTMwLjU1NDEtMTcuMTA0LTkuNjM1Ny00MS4yNzY3LTkuNjM3OS0zNi45MzU1IDAtNTkuNzQ3OCAyNS45MzA4LTIyLjgwNTYgMjUuOTQtMjIuODA1NiA2OC4wMyAwIDQ0LjI2NDEgMjIuMjYzMiA2OS4yNDggMjIuMjcyMiAyNC45ODYxIDYyLjczNTMgMjQuOTgzOWE4Ny45MjkxIDg3LjkyOTEgMCAwIDAgNDEuMjc2Ny05LjkxMzYgODQuNzk3MiA4NC43OTcyIDAgMCAwIDMwLjY4NzQtMjYuNDc3NWw0MS4yNzIzIDM2LjM5MTFxLTQxLjU0MzIgNTQuMzEyNy0xMTQuNTk2OCA1NC4zMTA1LTQzLjcyNCAwLTc2LjE3LTE4LjMyODlhMTI2LjQ5IDEyNi40OSAwIDAgMSAtNTAuMjQzMy01MS41OTkycS0xNy43OTEtMzMuMjYxNS0xNy43ODY2LTc4LjA3MjMuMDAwNC00NC41Mzc0IDE3Ljc4Ny03OC4wNzY4eiIvPgogICAgPHBhdGggZD0ibTU1NjUuMjE5MyA3OTkuOTA3OHEtNDIuNjM3IDAtNzQuOTUxNi0xOC44NzEyYTEzMS45NTkyIDEzMS45NTkyIDAgMCAxIC01MC4zNzIyLTUyLjI3OTRxLTE4LjA3MTEtMzMuNDAxNC0xOC4wNjIyLTc2LjU3ODYgMC00My43MTc0IDE3LjY1MzItNzcuMzk2NiAxNy42NDQyLTMzLjY2ODMgNDkuMDE2My01Mi42ODQgMzEuMzY3Ny0xOS4wMDQ1IDcyLjA5NzYtMTkuMDA5IDQwLjQ2MzEgMCA2OS42NTY5IDE5LjE0NjggMjkuMTg3MSAxOS4xNDQ4IDQ0Ljk0NDMgNTMuNjM1MyAxNS43NDM4IDM0LjQ4ODQgMTUuNzUwNSA4MC45MjE5djE2Ljg0aC0yMDguMjkwN3E1LjcwODEgMzQuNzYxOCAyOC4xMDkxIDU0LjcyIDIyLjQwNTQgMTkuOTU4MSA1Ni42MjI2IDE5Ljk2IDI3LjQyIDAgNDcuMjQ3MS04LjE0ODcgMTkuODI0OC04LjE0ODYgMzcuMjA5LTI0LjcxMjdsMzIuNTg1NyAzOS45MjA5cS00OC42MTE3IDQ0LjUzNzUtMTE5LjIxNTYgNDQuNTM1M3ptNDQuODA2NC0yMjUuNTNxLTE5LjI4NDYtMTkuNjkxNC01MC41MS0xOS42ODkyLTMwLjQyMDcgMC01MC45MTkxIDIwLjA5MzgtMjAuNTA1IDIwLjEwNDgtMjUuOTM1MiA1NC4wNDQyaDE0OS4zNjA4cS0yLjcyMDctMzQuNzYyMS0yMS45OTY1LTU0LjQ0OTJ6Ii8+CiAgPC9nPgogIDxwYXRoIGZpbGw9InVybCgjYSkiIGQ9Im01NzIuOTY0IDQwMGMtLjE5MzYgMC0uMzg2MS4wMDA3LS41OC4wMDE3bC0uNzkxNSA2NS4zODFjLjE4MTItLjAwMi4zNjItLjAwMzUuNTQzNC0uMDAzNSA0My4wMzQ0IDAgNzYuNDE0MiAzMy45MzA5IDE0OC45NjU5IDE1Ni4xMzc2bDQuNDIyNiA3LjQ0LjI4OTUuNDg2OSA0MC42MTM0LTYwLjkzNzEtLjI4MTItLjQ3MDZxLTE0LjMzNjEtMjMuMzE4LTI3LjU0NTYtNDIuOTA4M2MtMTAuMjEzMS0xNS4xMzItMTkuOTgtMjguNjUtMjkuNDU4OC00MC43MTk0LTQ3Ljk5NTItNjEuMTA5OS04OC4xNDM4LTg0LjQwODMtMTM2LjE3NzctODQuNDA4M3oiLz4KICA8cGF0aCBmaWxsPSJ1cmwoI2IpIiBkPSJtNTcyLjM4NDUgNDAwLjAwMTdjLTQ4LjI2NzIuMjQ4My05MC45Mzg3IDMxLjQ2LTEyMS43NTEzIDc5LjIycS0uMTM1Mi4yMS0uMjcwNi40Mmw1Ni41NiAzMC43ODQ3Yy4wOTE4LS4xMzkuMTg0Mi0uMjc4NS4yNzYzLS40MTcgMTcuOTkyNy0yNy4wOTA1IDQwLjM4MzgtNDQuMzY5MyA2NC4zOTQyLTQ0LjYyNjUuMTgxMi0uMDAyLjM2Mi0uMDAzNS41NDM0LS4wMDM1bC44Mjc1LTY1LjM3OTRjLS4xOTQgMC0uMzg2MS4wMDA3LS41Nzk1LjAwMTd6Ii8+CiAgPHBhdGggZmlsbD0idXJsKCNjKSIgZD0ibTQ1MC42MzMyIDQ3OS4yMjEzcS0uMTM1Mi4yMS0uMjcwNi40MmMtMjAuMjQ3MiAzMS41MTgzLTM1LjM0MDkgNzAuMTk1MS00My40OTggMTExLjkycS0uMDUzLjI3MDctLjEwNTYuNTQyM2w2My41NDI4IDE0Ljk5MjljLjAzMzItLjE4MTEuMDY2Ny0uMzYyNy4xLS41NDM3IDYuNzkyMS0zNi42NjkxIDE5LjcyMy03MC42Nzg3IDM2LjUyMDUtOTYuMTI2OC4wOTE4LS4xMzkuMTg0Mi0uMjc4NS4yNzYzLS40MTd6Ii8+CiAgPHBhdGggZmlsbD0idXJsKCNkKSIgZD0ibTQ3MC40MDIgNjA2LjU1My02My41Mzc0LTE0Ljk5MTVxLS4wNTMuMjcwNy0uMTA1Ni41NDIzYTM2OS44OTUgMzY5Ljg5NSAwIDAgMCAtNi43NTg0IDY5LjYzNzdxMCAuMjgzNSAwIC41NjY3bDY1LjE2NTcgNS44M2MtLjAwNTItLjE5LS4wMTA2LS4zNzcxLS4wMTUxLS41Njc1cS0uMDQ4LTIuMDMzNC0uMDQ4Ny00LjEyMjFhMzEzLjc4NTYgMzEzLjc4NTYgMCAwIDEgNS4yLTU2LjM1MTljLjAzMjUtLjE4MTEuMDY2LS4zNjI3LjA5OTUtLjU0Mzd6Ii8+CiAgPHBhdGggZmlsbD0idXJsKCNlKSIgZD0ibTQ2Ny4xNDc5IDY4OC40N2ExMzYuMTMyNyAxMzYuMTMyNyAwIDAgMSAtMS45ODItMjAuMzMxM2MtLjAwNTItLjE5LS4wMTA2LS4zNzcxLS4wMTUxLS41Njc1bC02NS4xNS01LjgyOTJxMCAuMjgzNSAwIC41NjY3di4wMzY5YTIyMS41NjgxIDIyMS41NjgxIDAgMCAwIDMuNTcwOCA0MC43NWMuMDM0MS4xODIxLjA2NzYuMzYwOC4xMDIyLjU0MjRsNjMuNTczMy0xNC42MjM5Yy0uMDM0Mi0uMTgxLS4wNjY2LS4zNjMtLjA5OTItLjU0NDF6Ii8+CiAgPHBhdGggZmlsbD0idXJsKCNmKSIgZD0ibTQ4MS45OTQ1IDcyMi4xOTc0Yy03LjA5MTEtNy43NC0xMi4xMS0xOC45MDQ3LTE0Ljc0ODItMzMuMTgzNi0uMDMzNC0uMTgwNy0uMDY1OC0uMzYyNy0uMDk4NC0uNTQ0M2wtNjMuNTc3MSAxNC42MjU4Yy4wMzQxLjE4MjEuMDY3Ni4zNjA4LjEwMjIuNTQyNCA0LjgwNTQgMjUuMjMgMTQuMjMgNDYuMjU2OCAyNy43MjU5IDYyLjE2MzlxLjE4LjIxMjIuMzYxMy40MjM4bDUwLjYxMy00My42MjA2Yy0uMTI2NS0uMTM0OC0uMjUzMi0uMjcwNy0uMzc4Ny0uNDA3NHoiLz4KICA8cGF0aCBmaWxsPSIjMDA4MmZiIiBkPSJtNjcwLjM0NjQgNTQxLjM0NDNjLTM4LjMxMTQgNTguNzY0LTYxLjUyIDk1LjYyMTYtNjEuNTIgOTUuNjIxNi01MS4wMzQ0IDgwLTY4LjY5IDk3LjkzLTk3LjEwMzMgOTcuOTMtMTEuODU2MiAwLTIxLjc2MTMtNC4yMjEzLTI5LjM0OTUtMTIuMjkxLS4xMjY1LS4xMzQ1LS4yNTM0LS4yNzA3LS4zNzg3LS40MDc0bC01MC41OTU2IDQzLjYwNDJxLjE4LjIxMjIuMzYxMy40MjM4YzE4LjYzNDggMjEuNzIxOSA0NC45Mzg4IDMzLjc3NDUgNzcuNDc5NCAzMy43NzQ1IDQ5LjIzMiAwIDg0LjY0LTIzLjIxIDE0Ny41ODU4LTEzMy4yNDExIDAgMCAyNi4yNC00Ni4zMzcxIDQ0LjI5MTItNzguMjU1OS0xMS4xODE3LTE4LjA1My0yMS4zNTctMzMuNjgzLTMwLjc3MDYtNDcuMTU4N3oiLz4KICA8cGF0aCBmaWxsPSJ1cmwoI2cpIiBkPSJtNzM4LjYzMzEgNDQ4LjU5MjFjLS4xMjkyLjEzNzEtLjI2MDkuMjc3Mi0uMzkuNDE0N2EzOTQuNzY1IDM5NC43NjUgMCAwIDAgLTI5LjEwOTMgMzUuMzljOS40Nzg5IDEyLjA2OTMgMTkuMjY0MSAyNS42MTM4IDI5LjQ3NzIgNDAuNzQ1OCAxMi4wMzczLTE4LjU3ODggMjMuMjczMi0zMy42MjYxIDM0LjI4Ni00NS4xNTkxLjEzLS4xMzY3LjI1ODUtLjI3LjM4OS0uNDA1NHoiLz4KICA8cGF0aCBmaWxsPSIjMDA4MmZiIiBkPSJtOTI0LjYzMSA0NDIuODMxN2MtMjYuNzE3NS0yNi45OTI2LTU4LjU3NTUtNDIuODMwOC05Mi42MzI5LTQyLjgzMDgtMzUuOTExNyAwLTY2LjExOTEgMTkuNjgtOTMuMzY1IDQ4LjU5MTItLjEyOTIuMTM3MS0uMjYwOS4yNzcyLS4zOS40MTQ3bDM0LjY1MzkgMzAuOTc2OGMuMTMtLjEzNjcuMjU4NS0uMjcuMzg5LS40MDU0IDE3Ljk0ODktMTguNjcgMzUuMzE4Ny0yNy45OTEyIDU0LjU3NDYtMjcuOTkxMmgtLjAwMDZjMjAuNzI1IDAgNDAuMTI3OSA5Ljc1NjMgNTYuOTMxOCAyNi44Ni4xMzE2LjEzNC4yNjIzLjI2NjkuMzkzNy40MDE5bDM5Ljg0MzctMzUuNjE1NWMtLjEzMjYtLjEzNDUtLjI2NTQtLjI2NzYtLjM5ODItLjQwMTd6Ii8+CiAgPHBhdGggZmlsbD0idXJsKCNoKSIgZD0ibTEwMDEuODcyMSA2NTMuMTM3NGMtMS40OTY5LTg2LjY2OC0zMS44MjUyLTE2NC4xNDg0LTc2Ljg0MjktMjA5LjkwMzgtLjEzMjYtLjEzNDctLjI2NTQtLjI2NzgtLjM5ODItLjQwMTlsLTM5LjgzOTIgMzUuNjE1NWMuMTMxNi4xMzQuMjYyMy4yNjY5LjM5MzcuNDAxOSAzMy44NjY0IDM0Ljc4NzUgNTcuMDk1IDk5LjQ5MzIgNTkuMjA3NyAxNzQuMjdxLjAwODIuMjgyMS4wMTU5LjU2NDdsNTcuNDcyMS4wMTg1cS0uMDA0Ni0uMjgyMy0uMDA5MS0uNTY0OXoiLz4KICA8cGF0aCBmaWxsPSJ1cmwoI2kpIiBkPSJtMTAwMS44ODEyIDY1My43MDIxcS0uMDA0Ny0uMjgyMy0uMDA5MS0uNTY0N2wtNTcuNDc4OS0uMDE4NXEuMDA4Mi4yODIxLjAxNTkuNTY0Ny4xNDEzIDUuMjY0NC4xNCAxMC41OTI1YzAgMjAuMzg3OC0zLjA0NSAzNi44Njg1LTkuMjM3OSA0OC43NjctLjA5MTguMTc2NC0uMTg1Ni4zNTM2LS4yNzg3LjUyOGw0Mi44NTQzIDQ0LjU3Yy4xMDU5LS4xNjE1LjIxMDUtLjMyMjYuMzE1OC0uNDg1IDE1LjU1NzgtMjQuMDA1NiAyMy43MjU2LTU3LjM1MzYgMjMuNzI1Ni05Ny43OTMzcS4wMDA0LTMuMDg4MS0uMDQ3LTYuMTYwN3oiLz4KICA8cGF0aCBmaWxsPSJ1cmwoI2opIiBkPSJtOTM1LjMxMTYgNzEzLjA0MzFjLS4wOTE4LjE3NjQtLjE4NTYuMzUzNi0uMjc4Ny41MjgtNS4zNiAxMC4wMjk1LTEzLjAxIDE2LjcxODgtMjMuMDA5NCAxOS42NDRsMTkuNTM2NSA2MS41Njg2cTMuODgtMS4zMTc2IDcuNTU1NS0yLjk1ODkgMS4wOTgtLjQ4ODcgMi4xNzc1LTEuMDA2Mi42MjI1LS4yOTggMS4yMzk1LS42MDQ5YTg5LjE1OSA4OS4xNTkgMCAwIDAgMzIuNjYzNS0yOC4xNjkxYy41MzktLjc0NjkgMS4wNzMtMS41IDEuNTk2NS0yLjI2NzdxLjU1My0uODEwNiAxLjA5NDQtMS42MzYyYy4xMDU5LS4xNjE1LjIxMDUtLjMyMjYuMzE1OC0uNDg1eiIvPgogIDxwYXRoIGZpbGw9InVybCgjaykiIGQ9Im04OTkuNTg1MyA3MzQuODk1OGE0Mi42OTU0IDQyLjY5NTQgMCAwIDEgLTE3Ljk4Ny0zLjUwMjZsLTIwLjAwMzIgNjMuMDM0YzExLjI0MjcgMy44NDExIDIzLjIzNjMgNS41NzIgMzYuNjEwOSA1LjU3MmExMDIuOTY5MiAxMDIuOTY5MiAwIDAgMCAzMy44ODkyLTUuMzk5bC0xOS41MzExLTYxLjU0NzZhNDMuODQ4MyA0My44NDgzIDAgMCAxIC0xMi45Nzg4IDEuODQzMnoiLz4KICA8cGF0aCBmaWxsPSJ1cmwoI2wpIiBkPSJtODU5LjU1NzggNzEzLjMzNzRxLS4xODQ1LS4yMTMtLjM3LS40MjkzbC00Ni4wMjczIDQ3Ljg3cS4xOTI5LjIwNjcuMzg2LjQxMmMxNS45OTM0IDE3LjA0MzYgMzEuMjY0MyAyNy42MTY0IDQ4LjU4NDQgMzMuNDE4OGwxOS45ODc1LTYyLjk4NzRjLTcuMjk5MS0zLjEzNTUtMTQuMzU3NC04LjgxODEtMjIuNTYwNi0xOC4yODQxeiIvPgogIDxwYXRoIGZpbGw9InVybCgjbSkiIGQ9Im04NTkuMTg3NSA3MTIuOTA4MWMtMTMuODA2NS0xNi4wNTU1LTMwLjg4NTEtNDIuNzg2OS01Ny43NS04Ni4wMTM0bC0zNS4wMDg4LTU4LjM4ODUtLjI4MTItLjQ3MDYtNDAuNjIxNyA2MC45MjA4LjI4OTUuNDg2OSAyNC44MDYzIDQxLjczYzI0LjA0NTUgNDAuMjM3OSA0My42MzQ3IDY5LjM0NzYgNjIuNTM5MSA4OS42MDRxLjE5MjkuMjA2Ny4zODYuNDEybDQ2LjAxMTYtNDcuODUyMnEtLjE4NS0uMjEyNy0uMzcwOC0uNDI5eiIvPgo8L3N2Zz4=;" vertex="1" parent="1">
                    <mxGeometry x="9.999999999999998" y="235.5" width="187.5" height="40" as="geometry"/>
                </mxCell>
                <mxCell id="38" value="" style="shape=image;imageAspect=0;aspect=fixed;verticalLabelPosition=bottom;verticalAlign=top;image=data:image/png,iVBORw0KGgoAAAANSUhEUgAABLAAAAHZCAYAAACW4sL6AAAAAXNSR0IArs4c6QAAIABJREFUeF7s3Ql8HXW9///Pd85J2qRbWjYBxRXcuLQFFBSUAl1AFhVMaV3ZxQUFroooUIosIgh6wQ2viqK02MvFn1wu0hasG+i1dMEV9P5FUGjpQvc2yTnz/d/vzHxnvjNnTpukJ8kkeeVxuUlOZr7znefMqc27n+9nlPCBAAIIIIAAAggggAACCCCAAAIIIIBAgQVUgefG1BBAAAEEEEAAAQQQQAABBBBAAAEEEBACLG4CBBBAAAEEEEAAAQQQQAABBBBAAIFCCxBgFfryMDkEEEAAAQQQQAABBBBAAAEEEEAAAQIs7gEEEEAAAQQQQAABBBBAAAEEEEAAgUILEGAV+vIwOQQQQAABBBBAAAEEEEAAAQQQQAABAizuAQQQQAABBBBAAAEEEEAAAQQQQACBQgsQYBX68jA5BBBAAAEEEEAAAQQQQAABBBBAAAECLO4BBBBAAAEEEEAAAQQQQAABBBBAAIFCCxBgFfryMDkEEEAAAQQQQAABBBBAAAEEEEAAAQIs7gEEEEAAAQQQQAABBBBAAAEEEEAAgUILEGAV+vIwOQQQQAABBBBAAAEEEEAAAQQQQAABAizuAQQQQAABBBBAAAEEEEAAAQQQQACBQgsQYBX68jA5BBBAAAEEEEAAAQQQQAABBBBAAAECLO4BBBBAAAEEEEAAAQQQQAABBBBAAIFCCxBgFfryMDkEEEAAAQQQQAABBBBAAAEEEEAAAQIs7gEEEEAAAQQQQAABBBBAAAEEEEAAgUILEGAV+vIwOQQQQAABBBBAAAEEEEAAAQQQQAABAizuAQQQQAABBBBAAAEEEEAAAQQQQACBQgsQYBX68jA5BBBAAAEEEEAAAQQQQAABBBBAAAECLO4BBBBAAAEEEEAAAQQQQAABBBBAAIFCCxBgFfryMDkEEEAAAQQQQAABBBBAAAEEEEAAAQIs7gEEEEAAAQQQQAABBBBAAAEEEEAAgUILEGAV+vIwOQQQQAABBBBAAAEEEEAAAQQQQAABAizuAQQQQAABBBBAAAEEEEAAAQQQQACBQgsQYBX68jA5BBBAAAEEEEAAAQQQQAABBBBAAAECLO4BBBBAAAEEEEAAAQQQQAABBBBAAIFCCxBgFfryMDkEEEAAAQQQQAABBBBAAAEEEEAAAQIs7gEEEEAAAQQQQAABBBBAAAEEEEAAgUILEGAV+vIwOQQQQAABBBBAAAEEEEAAAQQQQAABAizuAQQQQAABBBBAAAEEEEAAAQQQQACBQgsQYBX68jA5BBBAAAEEEEAAAQQQQAABBBBAAAECLO4BBBBAAAEEEEAAAQQQQAABBBBAAIFCCxBgFfryMDkEEEAAAQQQQAABBBBAAAEEEEAAAQIs7gEEEEAAAQQQQAABBBBAAAEEEEAAgUILEGAV+vIwOQQQQAABBBBAAAEEEEAAAQQQQAABAizuAQQQQAABBBBAAAEEEEAAAQQQQACBQgsQYBX68jA5BBBAAAEEEEAAAQQQQAABBBBAAAECLO4BBBBAAAEEEEAAAQQQQAABBBBAAIFCCxBgFfryMDkEEEAAAQQQQAABBBBAAAEEEEAAAQIs7gEEEEAAAQQQQAABBBBAAAEEEEAAgUILEGAV+vIwOQQQQAABBBBAAAEEEEAAAQQQQAABAizuAQQQQAABBBBAAAEEEEAAAQQQQACBQgsQYBX68jA5BBBAAAEEEEAAAQQQQAABBBBAAAECLO4BBBBAAAEEEEAAAQQQQAABBBBAAIFCCxBgFfryMDkEEEAAAQQQQAABBBBAAAEEEEAAAQIs7gEEEEAAAQQQQAABBBBAAAEEEEAAgUILEGAV+vIwOQQQQAABBBBAAAEEEEAAAQQQQAABAizuAQQQQAABBBBAAAEEEEAAAQQQQACBQgsQYBX68jA5BBBAAAEEEEAAAQQQQAABBBBAAAECLO4BBBBAAAEEEEAAAQQQQAABBBBAAIFCCxBgFfryMDkEEEAAAQQQQAABBBBAAAEEEEAAAQIs7gEEEEAAAQQQQAABBBBAAAEEEEAAgUILEGAV+vIwOQQQQAABBBBAAAEEEEAAAQQQQAABAizuAQQQQAABBBBAAAEEEEAAAQQQQACBQgsQYBX68jA5BBBAAAEEEEAAAQQQQAABBBBAAAECLO4BBBBAAAEEEEAAAQQQQAABBBBAAIFCCxBgFfryMDkEEEAAAQQQQAABBBBAAAEEEEAAAQIs7gEEEEAAAQQQQAABBBBAAAEEEEAAgUILEGAV+vIwOQQQQAABBBBAAAEEEEAAAQQQQAABAizuAQQQQAABBBBAAAEEEEAAAQQQQACBQgsQYBX68jA5BBBAAAEEEEAAAQQQQAABBBBAAAECLO4BBBBAAAEEEEAAAQQQQAABBBBAAIFCCxBgFfryMDkEEEAAAQQQQAABBBBAAAEEEEAAAQIs7gEEEEAAAQQQQAABBBBAAAEEEEAAgUILEGAV+vIwOQQQQAABBBBAAAEEEEAAAQQQQAABAizuAQQQQAABBBBAAAEEEEAAAQQQQACBQgsQYBX68jA5BBBAAAEEEEAAAQQQQAABBBBAAAECLO4BBBBAAAEEEEAAAQQQQAABBBBAAIFCCxBgFfryMDkEEEAAAQQQQAABBBBAAAEEEEAAAQIs7gEEEEAAAQQQQAABBBBAAAEEEEAAgUILEGAV+vIwOQQQQAABBBBAAAEEEEAAAQQQQAABAizuAQQQQAABBBBAAAEEEEAAAQQQQACBQgsQYBX68jA5BBBAAAEEEEAAAQQQQAABBBBAAAECLO4BBBBAAAEEEEAAAQQQQAABBBBAAIFCCxBgFfryMDkEEEAAAQQQQAABBBBAAAEEEEAAAQIs7gEEEEAAAQQQQAABBBBAAAEEEEAAgUILEGAV+vIwOQQQQAABBBBAAAEEEEAAAQQQQAABAizuAQQQQAABBBBAAAEEEEAAAQQQQACBQgsQYBX68jA5BBBAAAEEEEAAAQQQQAABBBBAAAECLO4BBBBAAAEEEEAAAQQQQAABBBBAAIFCCxBgFfryMDkEEEAAAQQQQAABBBBAAAEEEEAAAQIs7gEEEEAAAQQQQAABBBBAAAEEEEAAgUILEGAV+vIwOQQQQAABBBBAAAEEEEAAAQQQQAABAizuAQQQQAABBBBAAAEEEEAAAQQQQACBQgsQYBX68jA5BBBAAAEEEEAAAQQQQAABBBBAAAECLO4BBBBAAAEEEEAAAQQQQAABBBBAAIFCCxBgFfryMDkEEEAAAQQQQAABBBBAAAEEEEAAAQIs7gEEEEAAAQQQQAABBBBAAAEEEEAAgUILEGAV+vIwOQQQQAABBBBAAAEEEEAAAQQQQAABAizuAQQQQAABBBBAAAEEEEAAAQQQQACBQgsQYBX68jA5BBBAAAEEEEAAAQQQQAABBBBAAAECLO4BBBBAAAEEEEAAAQQQQAABBBBAAIFCCxBgFfryMDkEEEAAAQQQQAABBBBAAAEEEEAAAQIs7gEEEEAAAQQQQAABBBBAAAEEEEAAgUILEGAV+vIwuUYLzJmjvQ3/3LqXrmw7zCs3t5rxS9mD1LxQjbYoScn5mfu1O4T2JHhfxZtGX2hdVeZVs595KR7VGcj3q8qdUPgjr7NTupaWyxOemztXVRptwngIIIAAAggggAACCCCAAAIIFF2AAKvoV4j5NUzg42evebXS6kNe2btARI8Ibn4VvgWCTyr4v9T3zibRz5ONzD7R7sHPvGgM840dr2b/aHflJacVHztvLsExgln5vi/3+rp0fdVrXUmQ1bDbgoEQQAABBBBAAAEEEEAAAQQGgQAB1iC4SExx9wUuOXP927SnvyOe7B2ESnbIJCAKX3ODLJtVRRunQimbdtlAyoZX7vfRNjbkCobxomNH4ZcbgMXbOUFW6jUlorXepn3vk5+9evTXlFJ692UYAQEEEEAAAQQQQAABBBBAAIHiCxBgFf8aMcPdFLjwA+umlzx1nyjdnAqM3BArTrWi6qmkOCupzLLhlvOuCaqjUqFVElLFFV5upVY0rjsPG2qlqsCCMaOx3QAtmLOqVP3qeVd+bvwdu0nD7ggggAACCCCAAAIIIIAAAggMCgECrEFxmZhkbwXOPnvNmNG+esxT6sB4DBtEmfqlaClfqkpKBdFRXKaVXyUVjeZUcKWCLKeSKxjNHMdZohh8bYMpM1SmMisZKwnI4v3NWFqe3tKpDr3++rHremvDfggggAACCCCAAAIIIIAAAggMFgECrMFypZhnrwQ+9v51V4snl8fZUXZZoA2qsuFSHGDVqciKm2Vlg6ikp1a22iv8PlNVZQM0dx5OxVV2CWE8hCe62uXfXy23vX3uXOX3CoedEEAAAQQQQAABBBBAAAEEEBgkAgRYg+RCMc2eC1zcvnFCtaWyXJQcEIdJTsN2MRVYNcvzkobuQaZk+1GZb9ywyfzMNmKv6ZXlNHq3lVU2u3KWBsYVVW41Vqa5exxYxcsXo+qwcLyOrqo+eu61bUt7rsMeCCCAAAIIIIAAAggggAACCAweAQKswXOtmGkPBOZM0eW1L15/W8mTDyYd25MG6vESPtsG3V1WmHm6YNLwvRvVWFFQFXwKHksYfsRPKNxJk/fUssLcpvBhuBaHakqkWtUPrd087qRbb1UdPeBhUwQQQAABBBBAAAEEEEAAAQQGlQAB1qC6XEy2uwIfnb32OFVWPxGRJrfSye7fVBY5ZvpI/fOHdqiurvDVelVa6ebqSeOqqH97tHNSuZUEXnbFYLJsMO6t5VRtuYFUOJHMWFGYFedhcQgWfFH1O+XiOTeMu7W7NmyHAAIIIIAAAggggAACCCCAwGATIMAabFeM+e5SYMoUXT54/3X3iFKnuqGUG2Qd/qYReuYHWtW3/m2zfvJPFfvAvziMqhtoOcsKbdBUE1i5zdnjaq6cJwq6va7sAVPBlhOs5fbFCsMureV3azetecOttx5IFdYu7w42QAABBBBAAAEEEEAAAQQQGIwCBFiD8aox550KXDB73eklTy+w7aZMypOqrvJEPjl3nH7xS0tq7Rpfbrxig3R0JA2x3ObrQa5k/5+7tDDupZX/xEJbtRUHYXGoZcunouWA0ZmYflrhcdIVXqmXMg3f3cqwSpe+cu4NbdcopeyiSO4SBBBAAAEEEEAAAQQQQAABBIaMAAHWkLmUnIgROL99/bjmsv9L7cnBViQOoESJ54nMOLVVn/DOkcp8bT7+393b9MMPbHc3C4KkVGVVNsiKky273K/+0wdTjeLjSqpk+1QzdycsC+bgPB0xvZQxnHvYEyv4clNlu3/0526Z8DvuBAQQQAABBBBAAAEEEEAAAQSGmgAB1lC7osP6fLT6yBlrP6E9uSGIfuwT/XTSU+pF+5b0JXPHqpaW5HF/mzf5ct1lG2TbVi3myYRJ9ZRTXeW8U2qCpHjZ306qsaJgyq3usr2vbIDlVm2FrznLDlPN350+WTZYM6fj6zuv+nzbB0SowhrWbwNOHgEEEEAAAQQQQAABBBAYggIEWEPwog7XU7rwjNWvrHqlJ0TrUtifKn17m2V6s84eJUcdO7KG6Le/6tA/+OYWpZ2nEia7R0FSFEIFn+xTAnMrs5zqquy2Ti+rpDIrmWdcUeVuZ4Msu4TQ6bEVzyM8X7/aIUd+7ovjfjtc7wHOGwEEEEAAAQQQQAABBBBAYGgKEGANzes6DM9Kqw/PXPs17ckH3aV/QYgVtbd6+avK+qIrx6lSqZans0PLV27YrJ/6a1e4e031ltObygZZTsP1ONSKfub2s3KW+YVPGKzZP72c0B5eO08jtOOHgVWyvDFbDaa1/HT/F8bN+ODtKnq24jC8FThlBBBAAAEEEEAAAQQQQACBISdAgDXkLunwPKEPn7bmWN2k7xdRLekwKcqjPKU/9MnR6nUTm+sC/e8TFf3VL2xUXV1OhVVUkeUuK0yFUE7fdftUwuAAzrJCdz7pJYS2fCupFqup7IrSLKe3exhgRRVg8etJr6xKl6/Pu+7G8XcMzzuBs0YAAQQQQAABBBBAAAEEEBiKAgRYQ/GqDrNzOv+UZ1u9keVfK6X+Jem8HiKEAY+SyUc0+2ddONorlXZyy2uRH/z7Fv2bn3fEJU5JZ3c7XpIUmSWJ8UdqyV/yMMHcIMttzG7GcA4SfBk/kdAZPrt80F0iGVVq2WG01ls83XTg3BtHrxpmtwKniwACCCCAAAIIIIAAAgggMEQFCLCG6IUdTqd1wenPzxRP3SlKmt3lg9Zg3HhPLvt8m4wd5yZO+ULPPFXRX75mk3R2mAV8ToWU/TpKiWqXAUbjJU8FdAK0TEWWs4wwPY7t1J4EYG6AlqrOshVYUUpnt7MVWdrXn7vmpvFXDqf7gHNFAAEEEEAAAQQQQAABBBAYugIEWEP32g6LMzu/ff0BnvaXidJ72MApdVMrkVNmtuoTT2vt1r1umrgv/NF2//57t3nm61SAlAmxouwo2ihddRVXXkX7xAFTPEbyxMLcEMtp/l4vLEsHWs54pu2XlvWVHXrq528dv3xY3AicJAIIIIAAAggggAACCCCAwJAW6NYv9UNagJMb1ALnv2vNDUrkU5kHDsbB04sPKOuLrhqrWkftuvrKQnTs0PLFKzfq556txlVYbmWXbaRut3f7WsWhlg2qdvbEwmjHvACrW5VXNhyrU42lRT+0ZmPbibfT0H1Q3+NMHgEEEEAAAQQQQAABBBBAIK4dgQKBwSdw7mnrXlzy/N+KyIvivMiJZE2PqvMuGSOT3ziixyf3s4Xb9X9+f5vyq9EyQqdvVZCOBd+7zaycN5O7jDAVLoXTSAVWmSWJtmdXHIRlzscNttxm8tnm8NFu2yram/L5L44zRnwggAACCCCAAAIIIIAAAgggMGgFqMAatJdueE/8whP1iI6WtT9SnpyQlbBhzv4vKetPXDNOjWzp3W3+9Zs2+79f3hmUbtXveZUs3atZNugeNi/Isj93wrB6AZb7tEHbqD4VWsWTDJcyxlViWj1S9uWUubeMWz+87xjOHgEEEEAAAQQQQAABBBBAYDAL9O43+8F8xsx9SAic845Vx5dK5f8W0WHjdnsn6/DrUaOVXDJ3nOx/QLnX5/vUXyty81Ubxffzq7BqwiY7D6dJe3DwaG47C5zS4VeYdsVBVDTGTnthxU9cjKrD4mMq7Vern7r+S3vc1GsIdkQAAQQQQAABBBBAAAEEEEBggAUIsAb4AnD4ngt84n161Katzz8koo4IUp4otHJv5mNOaNGzzx21W/e3Ca6+e9tm/divO+NeWEGW5FZOpZpVpZu+u0v8bJC10xArFVQlIVa2sivYzMtZsmhDq0xoppX6644Nm4+45VsvoQqr57cbeyCAAAIIIIAAAggggAACCBRAYLd+wS/A/JnCMBQ4/+1rPigl+XqYXLmpjwQvjRgpcuXNE/Se+3i7fX/v2KFl7kUv6M0bdbhWMLXsL1lbWNPI3YZIedVXmaWFbgP67JMFo05bIk5gFeR18TLBSCBviaL5UbSfX5XbRrStuHju3GMrw/CW4ZQRQAABBBBAAAEEEEAAAQQGucBu/4I/yM+f6Q8ygfb2Z1rGV0Y+ISIvCdIqcwfHOZYSryTyjtmtesY7Wxt2by/68Tb9o3nbwlqruBlVAlcbOmWWDTozqd9Ly6nsSj25MFxKaMu+UssloxArNSU3MEuHZ5sqWh1745falg2yS850EUAAAQQQQAABBBBAAAEEEIjrSaBAoPACc+Zob9WK9V/3Pf/cMNKxyVUy9b33K+nPfGG8amlcfiVdXSI3XLbBf+6flbChezbEyva8ivpXBbPKVEqF+0fzrR82OX2znNWLUUFZatViMCP7VMToy5xxw6BPLVy/bdzJt9+uugp/sZkgAggggAACCCCAAAIIIIAAAo5Aw6pUUEWgrwXOP23Dodrv/B8RVQoDmagCKyp48jylP3r5OP36SU021mnYlJ74Q5e+9dqNyhwyHRhF6ZXbf8ps4EVPJ4zCpbqN3J2fx2/GmgDKVmHZHlvJ2zZd/ZUEWPV6bVUr/rtuvG2PexoGw0AIIIAAAggggAACCCCAAAII9IMAAVY/IHOI3Rdob9elcR3P36OUentY1mTGdCqwlMikN4zQH/70WCc52v3j2hE6O7R88+bN/h9WdoZ1UDW9sLIJVlRppaLpOP2zUkGVPZVskFXT0yo9TrSeMR2m2Wovp8orW+0lWv3PyOfGvWXuAtXZOB1GQgABBBBAAAEEEEAAAQQQQKBvBQiw+taX0RskcN6pa96jlf6uEinFQzp374iRSi65uk2//MByn93TG1/w5ZpPvCBbt+ioL1U0k3gJYSbESoVTSRVVnH9lQzAnxIq3iWrJ4mWL9Z6CmFnGGK9yTPfBMpGfFl9d94Xbxl0homrXYDboejEMAggggAACCCCAAAIIIIAAAo0U6LNf9hs5ScYa3gLnH7a0yd//gN+Iksn1bthTZ4/SJ81sdXOePkH74be36iUPbo8bU9VUY6UaVGUCLhM+2QcjullXTTWXs1/8s/SSRPfJhWGfrWTA1BTcSq7g+EH12EZTsPb5L41/qk+QGBQBBBBAAAEEEEAAAQQQQACBBgsQYDUYlOEaLaDVeSev/rT2vKtFpGxHdwOctj08ufyL42VsW8NbX9WczJrVVfny1Rtl/Vo//Fmmwin43i4bdH5ut00qo9LVWjWBlDt2fFpJSZe7farflRtkOe/uVEWWEu37+mt/Xz3+YwsWqGqjrxjjIYAAAggggAACCCCAAAIIINBoAQKsRosyXkMFzjrxudeVmkpLRaSlZmAV9EqX0943Wk9/Z0ufV1/Z4//6Zzvk+1/fIn6UYfU2xIqDrmwIFoVXqeouz2ZlOwmxUoFVuF1e0GVe00pv17538k23tT3c0AvGYAgggAACCCCAAAIIIIAAAgj0gQABVh+gMmSjBLQ6++Tnb/WU+kgwYvZu1SKvm9SkPzanTZWSzliNOnjdcTp2aLnhso161T8r8VLC1NzcJX02jHLnnlnWlw2y4h71biBlq7DqVHelq7CSqcdLFt3eWdFSQq31kptuG38cvbD6/JbhAAgggAACCCCAAAIIIIAAArspQIC1m4Ds3ncC5520+s1aqYWiZFR8FHPHmtbjUXXRRz87Th/yhuZ+v49/91invv3mzVLt0t0PsdwQLmfpYdDlKrvsL/f7qLrKoriVVjnVXEFpWt5SR5Euqaq33fS1cQ8RYvXdfczICCCAAAIIIIAAAggggAACuy/Q77/47/6UGWE4CFzc/kzLph0jForI0fFNGgVXwfkrkdcf2uxfNGdc3ze+qgP+3a9s0b/+2Y5kpZ/TjD2cY5RtRRVXbn4V9spKBg42jUaKB3TbZDljx0FX6imH4VjJOM730YFrnmQYjKmfFWk5+u+rRz5dpPuqvd5k6v5g4GY/cyZ9xAZOnyMjgAACCCCAAAIIIIDAcBEgwBouV3qQnedZJ62e4XnqPtHSFBcm2QBLi4wZp+Sym8bLXi/qx7WDGcNnn67qaz6xQbQkVVipN1QQrTkhVirBcvpTZYKvMPeKnjrohl/ZEMuOlxN05QZZeUsbwzF+5lf1M57ZKYoDs+ehtJ1QuIm2aZjpzWV+FvXosg9ZDM47XvYYfhGeiq/EXDLnx8GG2g/GEKWj0w+/DfbzzBbhd1rp4EGKZn+tfKWU/UmybTh2eAAtwVmJZ+dpNjNfR7eN0n68+lKbUc2xnGDQ7BdMQPsq+NqMXIoMgvPWm5pHlH/4wgsdv7rkknHrB9nbjOkigAACCCCAAAIIIIAAAoNGgABr0Fyq4TPRc49fvY+0eL/Rol+aPWtbnXTCaS36tA+M7rfG7Xn6Wovcd/dW/ZN7tyttGrqnAqZoDyfECnKXvLDKfRfWLPWLgqwotEnv74Rc9ud2ojaIyq3yMvNIUq+khCyZX+qphdGYYXIUF4qFIVsUsNkxsvvFYZzdzjm/3G1teOSEbfEKyGipZOaJimEw5iUWdvt4bk4lXPAzu+QyOlbNa7mvqygKi4xs0BWNVanINt9X161es+XfLr10r83D593KmSKAAAIIIIAAAggggAAC/SNAgNU/zhylBwLnnvL8p7WW6+NdnMork1a0TfD0td+YoEaMHPjbd9tWLdddukGvXV21WU2c8iTBkFMi5VZL2TQouxSwJnRyQiyzzy6eSGiXJ8ahknOcdAC18yCrJsTKhGvx+ZnG8tmf1TwBMdzAhmBxBZazXd1Ayx0/O4YbGkYN7pPgKhtWJSFXUCmWE4jlBlyRd/izcEdzHmFw5hxDRLoq8vPq8y0nn3OpIsTqwXueTRFAAAEEEEAAAQQQQACBXQkMfAKwqxny82ElcM6M518lZf2oKLVnKsByFM77xBg5YsrIQriYKqylj+yQb31pSzyfuEoqTovSQVGY5MQ5V23lVr2KLKeSyB4sTs2ylVvRMXZW8ZWuvOpmRZbTccw9T/u0Q6ewKw6I3N70cUVWpporropy+njVjhWFYJnQK96uJmhKh1RJtVgSuGWDrOAITijlVpa5lV0myLLN8d3QSynRnZ1yw5lnt3xGKWWiVz4QQAABBBBAAAEEEEAAAQQaIECA1QBEhmiMwPmHLW2q7P2Su5Sn3hUEPG7lVXSI/Q4o6c/eMl6NGFGcW9eEWF+6aqN+4o9d8aRqQ6wkNHGXGgY5U73AKk6p0tu4y//i/Z1BzJdxv/t6SwltwJU6Rs9CrORkozAuSnh2FmK5VWlJoJRUlaWqsNzlhHEg54RYNmxyDNNBmGMeLfmzXtYwEz6FoZsTogX9sGy1VvR6+hhe/HO7rRa9acu26ts+9KGxv2rMO4NREEAAAQQQQAABBBBAAAEEipMCcC2GvcA5b3v2rVqVf6K0tKQCrEim3KT0F74zQY1tG7AHD9a9Rn9a2Sn/ds0mMWFW8JGtiHLKnWwgkhoss+TOLm/LbuNWM5lu426IlJue2eWGORXNFLL5AAAgAElEQVRfudVZdvqZMCoOynZSIRVvk6kUs1VNcXgUHyOEigOijJmteIqXROb0x7IVVLGLDaDi4C4cP1VJ5T6tUUXN4p3lhHY+cfsy0w/eqRhLhV5BiGbGiLrSm09KpFKRnz/1dMuxc+cq0x2NDwQQQAABBBBAAAEEEEAAgd0UIMDaTUB2b4zA2aeuGSMV/2dKqcl5lVcmHzjy2BH6nEvGDmjj9npnW+nScs+d2/yf/vf2JF1z3l1JaJVf5ZQkUXUavTuhWDCHOJRxqowyr8dzdYMhOyen75YbqKWWBcbJT7YCzD2+29Q9Xa1kU6N4WV5qfvaphGH1VRxkRdu44ZFbERVP31ZFOWFZXqVUbGWCKvfca5q5O/2xnKo1tyIsDrbiY0f9r+JAzIwR9scSkc5NG6ozLrx4zJLGvEMYBQEEEEAAAQQQQAABBBAY3gIEWMP7+hfm7M858fmPitK3hpVXtbfluAme/uwX29SEvUuFmXN2IhvWVeWKCzfozg5te32nNgkDEDfVSoc/NmyxO+UGS5nlhslwtUsUw6ojp/Qqp8Ip71jubsHXcfKTeUphzhK/1L5uyGbDq5wwLWCJK5ySZC29VC8/NEsCJqeRvFN1lgq/om/ihNEcyiwtjOZmrOz2dtzg1G1vLXsOmcbtcUWW8zREcwNUK/L0pm3+Gy+6aPTqwt60TAwBBBBAAAEEEEAAAQQQGCQCBFiD5EIN5WnOaf998zNb9/ofEZmYviGT79rPGa1nnNZS2PvVLB186P4d/oLvbEnyEafiJ75+QT7jlj+FP7FL3GpCrMxqyeyyv2SpYkJTs0TReYrfTsMxd2mdm7XFyxtrj+HmY+4yvjjISoVmUZVTJmBKLf+LIGIPpyeVWw3lNsEPXg/GDA8WB1+ZgM1dqhg0YXdDtWgFYJhmmeHCnd3lgnn9sdzzNNsGfbCCAcJqrB0d/r9e8OHRNw/l9y/nhgACCCCAAAIIIIAAAgj0h0BhA4H+OHmOMfACpnF7194HfE4p+ZTopPTKLVSasGdZX/6lNjV2fPF6X1nBv/yhS996zQbVsSNKo1LJTrZRe7p3lRta1QRZbsGWE4jFLwclQ3EsFfeTikMx+0UcJLkDhvtlQ6hsEOWGNOHXSVBk5x6HQdHx3PNwQ7fw9SgcstvmNmuP5hanRslyvXgINxyLHJJ5RL2vsq/bUCo+dhJkmZeCAMrpn+UeKxuMpQOxxNFt/C5a1m3YXD3ykkvG/XXg323MAAEEEEAAAQQQQAABBBAYvAIEWIP32g2JmZ9z0vqDtXQ9KlpGB72vnA8TEJSbRC68ok2//rDmwt6rpvrqW7ds0r/9RUeU7EQnkQ2xotAkXW6V9I2yp+6Gd7aBec3PnCKu9DaZcCja0USDSZCU0/w9G5Rlx6+pzrLpUZKfZZc8uiFbKsTKCdzcaqg4p7O9sVJuYcgUB0vOz7IVVUENlN3WVn1FyxXduXlOM/xUKBUkWmFlV1hVFR3bfVKhM15NwBUds6vif/fZVWPOpqH7kPgji5NAAAEEEEAAAQQQQACBARIobCgwQB4cth8F2tt1acyWNd8XpWdlwys7jUlHjpCPXD4uWRbWj/Pr7qH+uLxT/9u1G5VfTRVDJbtHFUf5AVVtNVPudrtYSpheWuiMmX2HO0GO7fmU10A+FUbZkMj57PaeCtMkJ8hy5ppa9pcNwZyd4uDIHcsJ3YIlf24FWrYJfd7TEePqq3BH288qOES2EivawO2PZZ9wGM4t3R8reMlsbMMsO++ogisVponevHlj54yLP7nHo929p9gOAQQQQAABBBBAAAEEEEAgLUCAxR0xYALnnvDsab5XWhDUtmSqr8z3Tc0iF1/TJgcd3BxmJAW8W3ds13LTZRv0009VnLKmnLlGIUjdEMuteMoERjYMsUFRzRjuMjkXyqlUii9yzbaZnlxOPy43xEr551ZnOZVfTpiTmo47n6SAK06+gqWJdZYTxoGQG3rFjd8zDd6dMYLjZ/pjZXtZxfli3PPK6Y+VCaZspy23N5YbvmUruOx2lYr+86o1mw+76qr9tg3YG44DI4AAAggggAACCCCAAAKDWKCAkcAg1mTq3RaYM0WX/9Gy5rda60lB4+zs8kERmf7OUbr93FGpe7RoIdbD92/Td//7VqV9pxdVveDIJlBuJVGcRtmkJKeKKxPIuBVTbuWTXUqY1yTeBkmG2TWsWVboaKeqojKhlNtEvaaRfCbgipfWReearbaKho5TqOSJhLXBVByIuU3Y3T5eNqDLBGTJMaNqLFtqlarycvqBRcsK3UqqOOiKljYGn+wTCu04mabz7rLCSkXe+6GPjP5Bt98kbIgAAggggAACCCCAAAIIIBALEGBxMwyAgFZnTX/+AlVSt4rWJZvrBJ+DhEVk1ChPX3HbeLXHXqWayquihFgvrPPligvWSWenQ+i+o7JBVjqKC5OqnEokd11azS454+8qTMp9t6eWErqhWbqpee6TBd2nJuaEdbbJe+3TBTPhWd5SQ5tmOUsG42WITohWU5EVWca5VF6QlVr2Fy1JrGnqHmrFBXOesg8mrPNUwnR/LDfwCsaxAZcn4vvyWFWPmvKRj6gtA/Cm45AIIIAAAggggAACCCCAwKAWIMAa1JdvcE7+3OmrXu57slKUGpPX+8oribSfM1off2pruKosc5cWJcCaf/sW/fB/bQ9nlxcsua9nq6jspavbHytprpQNsYJhs8fLC8KijWq2deZVrxorewx3OaENaVLbZIKsVIiVrepy+1W5c8nOy5l/XLRmvnAbskeTye2P5S5HdOYXB2LOksVsVVjNskKnIby51l78pMKc/lh1q7pEqhW5fs99Rl0xc6aqDs53L7NGAAEEEEAAAQQQQAABBAZGgABrYNyH8VG1OuuENVcrpT8rOhX7xCb7vqSk535tjzBnyK3wGXi+Z5+u6usueUE6OnRqxV5ukJUT4MTbuScZnW86cEqSqXiY7Hg54Vkar15Prsgx2zPK4bV9qWxIlxt4uYHaToKsVKN3d7tMSJkETEmpV14Vlg3QUoGUnbu7tC/H1V3aZy9gbWjlLCkMgrPaaqwgzDLju08rjHtpJU+YtBVdWsvznVs2veHjn97v6YG/i5kBAggggAACCCCAAAIIIDB4BAiwBs+1GhIzPWf6s2/VXulBUTKy3pMHP/SZcXrSm0akqq/yqq4GqhKrs0PLjZ/eIE/9pRJek2i5Wpy3Zd9VmScI1iz5ywmx7MVOKp8yQVYmtMoOkdeXygY+5nOqF1adgM0NzOKKKhsGxSeb01Mrr+IqeKRfxJUTwNn5pz67wVOmmiwbcqUqtGy1lFsJlZl3NqwKw7WoifyuGslHyxtjcxNiuSGg/XmmH5YN8Lq6/DukNOaCj31MdQyJNzUngQACCCCAAAIIIIAAAgj0gwABVj8gc4hQoL1dl8Zsef4+0XJiELDkPHlw8pua9XmfHqdKpahHUbZBt4M5UAHW75Z26q9eu1FVutzJpJcR1szNDbHcAMcGQTXrJJOxsyGWu1wuSYWiYrU4yYnjotST/YLDqYS+ZqycpY5hUJNcj2Bkp4KqJn9zAj17PLuPDcJqKrlyQqOafe08YjMnO6y3rDBnnnFIlgqdQhc3xLLHT22fqhyLKrKi87VVVuH1Cntj2Uovt+JLfKl0VfyZH79k7L382YAAAggggAACCCCAAAIIINA9AQKs7jmxVQMEzpnx3ElaeeaX9qa84Ua2KLn8y+Nlj33Cxu2e06MobylhKuBowPy6M8Tmjb6+7uL1au1qP5MYZZ5CmBRMhcNmg6XMOy9e8lcTQEW7p6q4ksFT4ZF7zNQ4zvbZd7wTvuz06YZxkBhVKVmsvOV/efNw+l6F1y3cyK1iioOi6AfuublBm7tmMw6GMssY49O3wVudqir3HrJBYRg8Jefpvh5UUWV7a6kkyErNJ3paYTCeDdiiaq2qr3+9dv3oo+bOVeb5lXwggAACCCCAAAIIIIAAAgjsQoAAi1ukXwTOfNvzL/K0Xi4iL6q3dHDKSS3+6WeP9splW7mSPBEvtWTMmXF/V2HdN2+r/vGdW5P0JVVKlKF0KpFSQZPdLKcqKzrj1LLEeFS3+sdNXqINkkqtKPSKEyK3jC36mfvOd8Ku+OU6ryVBUuZphTmN5eNrlppHOverqcjKBk01wZc9Wbt0sU6lnh3HXU5o5+Es7YtfSjVlT4x2WZEVDRAGV8kTCd0wzlZkRXmWDcD8bTv8cz956Zg7RFS2FrFf3pMcBAEEEEAAAQQQQAABBBAYTAIEWIPpag3iuZ4z47lLted9vl54tc9+Zf3JL7SpltYwXTBPeYtDgUxwU7Parp/u4i2bfLnqw+tlw3o/KVaKy3GSYCV1mXYWYuVWZdVWJmUDrFR2lUnGakIsN5HKHC93KaETyLjHTQVbcThUu7QwXSnlhE12MBsUOaFW6omF7uvZpxVm5+Ys+XNN0hVSkacbyDn3U03Vl3uvpcK06L7M/jynGiu+5G4j+ehFE3HF10jL6opWky++eNRzg/itzdQRQAABBBBAAAEEEEAAgX4R6Kdf/fvlXDhIQQXOOvG5vVTVe1w8eVFqirbuRIm0nzNav+XEFpUEV2GIZT68qAH4QFZh+b7Inbdtqf7igW2lYFLOO8cNYLI/y1s6mHrTdSfEco+Xece6gVHSmMpprG4DF3diTqiWmm8qmKpdIWmXz8XXMNu43Lm49arB4rzNnVccCiUvxix1AiU773QA5YRVmfApde9k+3zZJwm6Td9zgqowJEtXBcbHzwRZ8XbBDRwV1Nnxo+DNtCLr7NTX/OulY64s6FuXaSGAAAIIIIAAAggggAAChREgwCrMpRiaEzn/fN1Uffr5b2st73WDj+DrKMDa/6Vl/6Nzx3mto73waW6eW4EVhQZuoJBdrpbzfaM1n3i8S99y+QapdGmnRCo5SvYpfdl+Uqn5xNU40avZd6Fb1eWGSvWCrExFVOoph3afKGnJVlLVzCvaPg6a3O/txpm+V+lgq7bZe7bKKQyC0ufuBlvuMkp3vqleVNnm/nH2lWC4oZXtaRUTZntZZc47L/BKVZe5TyI0+7ohlR3LXVaY2zsreA90Vbuqb77k0raljb5nGQ+BRgiceOJ/jxi95UVjvVb/JZ4u/YtodYiI7K20NGlPlcTXZVEySkTGiUizaN0sSpk+h7bXYaeImEdedIlS28XXG0XJdhFdFVEVUbpT+/I3UeWVuiyP+10da1931GGb6Q/XiKvHGAgggAACCBRHoL39hyVZs1eLlA8oVfTa8uhSpaTViNI2r6nU6jdVle6qNqtSZVN1R1W2dnYuePRNO2i1UZzrV5SZEGAV5UoM0XmcM33VwdpTvxYd/IJT82Eat5/zqbHyytc2Sakchh/mv3QlVlJZk9tXqY8DrGpF5ObPbPCfeLwzrAnLVjA5iUwqIKq7bRLepIIiJyByq6mCgMiVy4Q/uYGVs1O66qm2d1VNlVgmzImn5U4iL8Sy5+s0abdeNa3CnKcGxqapVl22UZXT/95xr6nGc6un3OuRqqRyqqfsJXCqopzd4mV+wSGTwrA4qApDu5z7Mppj3N4sWAobPZHQumbCrIovCzZtHj2LX9iH6B+Cg+K0tDpzylMjdozc8CKvq/QqpWRvX6qTRKlTROQ1/X4KSjpFy09F65+IlqdUyX9Gmpr+v2e3rtu8ZMmxlX6fDwdEAAEEEEAAgW4IhH+f6PRe2EeLfqUql/fWfnUvrdShIupIpeQg0eaffbv3oUW2icivROtfKaX+V/neKr+p+teROzasumPJlA7Cre45DrWtCLCG2hUt0PnMadfNz2xa/T+i1MR6va9ef+gI//2XjPHKJRHP/OeFIZYJsJIlhANbhfWz/9ru33nr5iS8ssbZP36dlCbVpys38EpfqNSSu5oULB2a5YZezlzSP68NgsLAKAlf7ExMbVm2v1jdZYNuWOV8HedmtuIrG3q5+zlBnDvnVNjlpEc12ySnFp6CG4rFwVX6PENnp/F7dPKp6i4bMLnhl93OeZqgnY/b6D1+zQ2ybABp7m27+tSp2BItnZ07qu/+1OVt9xTo7ctUhoHA2af+ecz2HVunKF26WYseL6JGiAT/2FC0vxuYKi7zl9guX+nbldZfnb9o8nP8xXUY3KScIgIIIIBA4QXOP2Vp6+Yd3tu1qGuVyNjg7xNKtYrW3Q6runmSZv3OVhHdobX6o6f0xw5c9KPH58pcnurdTcChsFnR/pI6FEw5h0jgrBnPnaWU9+164VXrKE9/8PKx6kUvLgfhVcn8F1WsxBVYUTP3oA2Wu2wrL1zog7u50qVl7odf0M89XYmSkMzldcOpbLKU6SkVBkc2CckZx/44HtM5ocx+eUFTavyapwI6S+vsoTMhVrCiM8fVpi5Z3po+V5mgzgY7eRVkMVWqV1XaJi/Ico+ZV41nlp/Gp2HPJXjBCbLiY6YrsupVdWVfz1teaCuyUgGWOawTqtnqwmwfLTM9X/t/71ivDvvM9WPX8QcIAn0l8I4py9taSvJ28eRoEXW4iJjlgI3+y2VfTT81rhZZr0Q9KEp+p3X1u69+8+RVVDH2Cz0HQQABBBAY5gJmKeCIta86uNpUOlNr/S9K5LgB+8cvrTeIkgd8X5b427bfueDRN28f5pdnyJ9+H/zKP+TNOMFuCFx44rqxW/3KSlHyspoAyyQlSmRGe2vQuL1UNsGVikOsMLxS8TLCOMwKAoGcihpnPjXBTjfmWm8TrUXmf32L/9CPtqV/watJcpzgpWatnFPK4O6XCXvSTeHdICcnxLIJTb2lhXWDqLwQK9nYTN0NsZzcp26wFc/OCdjS1yAKidxgKTpkNuyxyVMqB3TOMfW0wsw1sOFQPOdUeBV6pgK1OKjLX1boVpLVhFJupVpNL61wwsF83PPMNnKvbQivKxX50Cc/PeYbu3HLsisCKYE5or0/nrh8j1KldIgSfbGInDSEiX6ntb5MvK7Hq+OeenbBgpnVIXyunBoCCCCAAAL9LKDVu0/6XZvsqBymvdL1Itr8Q1ihPrRIh1b6Y75f/cmCxYc9Q6V2oS5PwyZDgNUwSgZKBLQ6Z/rqz2lPfUZ0zlIULdI8QuTj14+XsW1eWHlVCgOroBLL/LJvAq2aZu61SwmzRU+p0GU3L8nqf1T1nPPXqYppP7yTwCndsN1NTjJPK4wCjdS0apYhJj8NgyA3wck5oZyKo7zx00FTJshyf5ip9Ep5ullaJoxLjR+HQ3YmTmP3nNAtDrwyoZN7bWuqsWqO4fSqsj/LWVYZN4ivWQq46yDLWrgVWHWrsaLrlgqyonsonpaxcJYV+qL/vqOzfNTll7f+czdvXXYf5gJzZI73x2NPO7Bc8r8hSpkeVnsP2L+M9v+1WK+1PKW1vuA1R096jKqs/r8AHBEBBBBAYGgJtLfrUmnjiiuUlvOU8l6kG780sNFgG0Srb+7Z1HrFrQ8c2NHowRlvYAUIsAbWf0ge/dypz77WL3m/EKX2yFs+6HlKv+u80fLqSU3KhFflsqoNsUpRL6zgl/yksbsBM32y4iwop29TI6qw/KrInf+22f/FA9u94Byy1VNuGJV9F2WrsOqFPXlj5BzHfSpfTRzoBGt5YV52yWJ6m6haKBOsmcwxuzxwp0FWJrNzw744hMtkcallhdE5ZPO6dD+t8K3ihl3ukx9zl/9lt3dumnrLBcNNnB5ZmbnFc7D9t5zAr6bqKtgm3DC6ZePqrOA1a+I0hPcr+juf/MzYs4fkHwycVF8LqHcf/XibP1KfI6JPV0qO7OsDFn98/ZgWtaDD7/j3ex86guW5xb9gzBABBBBAoEAC7W96pKU0ZuR5SryLRcvLCjS17k1Fq/8Vpb82omvcV+5Y8vId3duJrYouQIBV9Cs0yOY3Z4ouP9O8+uviqXOCqQdr0tIf+7+srN/98bGquTnse2UDrHI5DKdsFZbb0N2GWOFSsUzAkPMUwt0NsVY82qG/fu1G1WVaB+tkOVh8JtlKpUaEWGbwvG40NgixAUxemGZ/lvdExsxc80KsOJiJTjAonHPDm2j8VKVVtG3K2lk6l14WmUw6FUJZ0HoVVZmqrHhzOzfn4OkqrXDLbIVUsr/zNEbn2DFVtmdWzjxqli26x0tVeKWDwjjosssKrW34tMINHVU56DOfGbNmkL31me6ACWj1nimP719t8j+sRF02YNMo9oG1En2551W/8/0HD1vFkoJiXyxmhwACCCAw0AJatc9Y9sqyX/qRiLx+oGezu8fXWh4SNfL98xe95tndHYv9B16AAGvgr8GQmsFZx686QzWpH4hIKS+8KnmiZ104Ru370nIQXJnQyvTAKpdU8NksJTRLCMMnEprKFRVUYMV9sOInxIUhVhxQOAFONozpKbBp3H79x9brp/5aCVMOpzFUNqyJx3YqoVLJSSagCb7NLm3LzD1/uWImAKoXYtVzqAnYrJ3zAyekMU8kjJs41TSED08qFWbVCXiSDZ3AyDGJx3CfIFi3cqo2SLRN28NrHo4WB3Q5DeKTQMudcLayKzm/YEw3lIvmZo8Rf84EcG7z9jgLtGPV648VTd6vyqOr1m48/pZbXkITyp6+eYfZ9u8/bsX+nSX5rhI5TETahtnp9+J09ToR9Yja7n3grl8e8kIvBmAXBBBAAAEEhrTAnDna+/Ovln9KKe8KJdI6dE5WrxWtPjJv8cQF/EPW4L6qBFiD+/oVavZnTvnbSG9E632iZGowsZzqq0OOGKGPeUeLamoy4ZUTYJmvoycReibEMgGWWWYV9cayYVUSZPVNFZZp3P7o4h36jps2qqppAZx6h9Rrgh5dhp2FWDkBUm7jdifcqV22mF/FlE6TnLlkgqDUzRLnNzvpsZU6H6ePlZNeuQFUKtSKvkkHfklo5IZfceCUF1xlj5UJk1LN1t2B7FhOTlVbjRUFXpnwKT1msk12npnDxU8czC5PtMsxk9ArWaLpLjt0lxVWq3r2pz87bn6h3uBMpjAC75my8sXVpupHg5J+kebCTGzwTGSt1nJdVSrfXrD48I2DZ9rMFAEEEEAAgb4TeP/xf9qjS3V8X5Sc0HdHGdiRlcgNB3a9cPncJcdWBnYmHL23AgRYvZVjv4yAVmdPW32ZlNS18Q8yAVZTWXT7R8bK+L08VW5S0hRUX4UhVliJFYZY4RLCKMQKgqywCsv8sp+uxGp8iLX6HxU990Mv6I7tfv6TB/NCElfCDX2y6xjzQiwb0KQLgjLBmdtEPlM55AZe7teZY+VWjrkpUibwSV3clESmksqdTibAy1vS55bM1WSD9gW30Xu2silzvjYcinOuePs6YVkq0MpvZl+zxDEOzaKqv2gO6eqv8MW6ywqzVVd2WaipLrTjRX5mDF3Vz7TtNfaVH/ygMo8Q4AOBQMD0oiiPHvlhEe8mSBoioH2RE/y2Jx/iqYUN8WQQBBBAAIFBKvDu45a91C95fxxaVVf1Loa+f0N59OkP0OB9UN6tBFiD8rIVb9Lnnrjuxb5fWSpK9glml1N9dcTUFv/gI5q9pmYlTc1h7ytbhRWHWLb6KvocVGKZJ7U54VUQYtmwwDZ0z1bRuKFAD7ju+ffN+r/nb1Vi1tDlvTuckCXeICdwCdOMvOZczmTc8Z2v3VAmNfWkhCdKS1KfahvN58zfDWfiOTonmnvsmnk6y+rsBLP+2WAr8kgys5yAyWzjLiXMuGayw3ipYHbOMVOd/ljJkr5wUvVDMHsTOZfSaczuzidVSZUXZGUCrFRI5vZ0i+9r0Z1d+srLrxx7LWXOPXgDD91N1RnTVkzzRL4sIuapgnw0SECLriiRhV6X98EfLJn4jwYNyzAIIIAAAggMGoGZ05e91dPqTiXqgEEz6d2bqFaifiPNm9521/1voaXA7ln2+94EWP1O3rsDzhHtbWr/x4gXto94cUm88eEo6eIMTzWlYqOu1I/DbzyvnBMthWPF+9fUfDgvdIVHDbc1Hc6jj6ammUrpT8WL7jJH2XPfksx4zyhpNuFVsHxQxFRhhcGVknKThBVZcS+sdBWW6UUULCk0AUdUjRVWuzhVMbsZYj3794q+7mPrZftWPx1g5T2F0K1ecsMaw1En8Amksu+4et/nPF0xSWwy91A2/HJ/nG0Kn51r/HN3kKQnVHzq2XNyw6Gc46XCpmwWmFoGGA6cqhDbSYjlbpsNkFJLMu2c4nsiE7rFvk4VX3R9ai5tEEQmvbXC4+bslwnt3KWE2eWLqSzSDcXSSySf7druH33FNW1/692fGuw1FATap698eVn7V4uo9w6F8ynsOWjp0qI/sqqy4TtLWFZQ2MvExBBAAAEEGitwxoxlEz3fe1AkKkJo7PDFHk2pe/Ystb7nViqxin2d6v/qO6jmPawme377+nHVTv8C3aSv0p4aGZy8GxAFX0cv1LweUTmvK/t1/JrOGS+zn9k2NbbzTV4klnntiGkj9SsPaVZNZaf6qikMr8xrJsAKmrlHDd3NMkLT2N02czfBVlCFFfTFCucWLidMlrRlew/FGUY3YtpKRctX52zQK3/dkW7cbva151IT4ji3YTbQSW2bDodqA66dvCszzc3dxurBXnZo53PqdLM/d/fJNDx3K8pcu/j0a4K5ZAA39LFzSr0WHTc7t4TNWc6Xdy55ywqdc0lVUWW44/nEN0i6Gby54Kk+Vdlxs725UkFVOsiyywqzAV5UKJh+KqKzbDPIyNz5RefbVfH/44qr2tqH1R94nGwsMPv45dPEU/eLSBMs/SSg9ZNbt289/Me/OnpzPx2RwyCAAAIIIDAgAmcc97tXeqXqXwfk4AU5qBa9qNr2lxNpJVCQC9KNaXTjV/tujMImfSJgqq6eeceas3Sz+rwotWdtaBUdtkgBli3ZcUKy/V9RliNOaJHmkeZJg0qabXAVhVa2oXuT+d4EV+Ww/5UJtMzyweDroPIqWUrY6F5Yy3/V4X/96g2eCS1Ns8MAACAASURBVLKyTx5MXdy8EMcGHqmSoMxT+vLKg/LCpUzAlNvoPZWO5FR8uQFLvfHckKem5GgnlWI51VRhkBYOkg1urF22B1c28HL2DsdxK8fylhI655UbXGYq2Gr7cWUqssy9FU02O17NXK2v6+zun5l/PF50TmFYFR4sG3hZv2A2YWCrOzr9GXOublvUJ3/IMGghBc6c8tORHU3jvyki78l5NxZyzkNpUlrkb+LLZfMfmnT3UDovzgUBBBBAAAEr0D7jkQklv+VnStTBw1yl6otce/eiSXOGucOgOX0CrAJfqrPfueY9ukl9R1T0r+87ra4qSAVWpvLKhE9veUernvCikjIVVabSKlkyaJcOms9hU3fPqcIKG7pHzdy9cHlhtpm7qWyxSwmD3/lzg5nMErXMNd++Vcu1H12vn/t7VzZHqf3dMfuOyYZQ9UIsJ+RJkh6bmOQtO3QmmT2nnQVYZjcn/MluGh875zxSJ58XrjmvpUKdOKVKUqVsr61UgOUGRZkwKIp1kmKwOsfMHj8+z8xTClP3QzK9dLVTPP/0QwHqHsMNntwQqxvLCu09mgqx3HNMLVWMvvH13R3++jPnzn35jgL/ccXUGiQw+/hlb1LKe1ArGdOgIRmmVwK6qrR/Uckrf+fOhRO39moIdkIAAQQQQKCAAu2v+31zef+uRSLqrQWc3sBMSalT5y2ceN/AHJyj9kSAAKsnWv247cXtumWjWvdPrSTqd5W3bDCaUNEqsBynfV9a1m+Y0aKCZuwmwIoCKrfqKumHZfpjJVVYwZMJoybu4ZMJwzGCpYTm60wvrCCfcEKsmpynzt3+k7u36gXf2GKe/VZ7hc0+bkP3egFWKsSpbeBeGyRlSpmCRMM5/C6OEy55c5OtzNRzgrXUkHnHiiZZE07Vm1cmLApm4OycOmd3qjnhWG7w6C7LzMzBnaN7nJqlgNGcdnYvBEv3nD5U9j5KfXbHMV/baqqc87J92WIO956MrrOdT0xht8kJ4JSoaqVLPn3l58by5Ll+/DN4IA41a+qKi5WSz4tI80Acn2PmCGi9eMwL1bfd/tjhPBGUGwQBBBBAYEgIzJ624oP/1/Pqa1R5J5dTi/7n2PXVl/O/98W/xQmwCniNzj9saVPXy172TSnLB1LTK3oFVk7+0zxC6SnvapXWMZ4ygZNZQphu3O5WYUnQ4N2EVibICgIvE1zZSqwgwDLLqmorsWwVVs3yr8wdnq0E2rje11dfsF42rK3mB1g2leluuJQbDEUv1iy/qxNA5QQ89Zq/26Vm6fCoThhWb/lfKnhylgPWC9FyXs8GRKkgK8cku6TQDYviLNBNd6IX3cqumhDLnkc2BIoHzPS+SoVP9holVVjZICt1POca5b0eeuyk0XtOkJW6dzNN47XIH0e0jn3jJz+pqAQp4J/Zuzuld0xZ3tbSJLeKqFkiUt7d8di/4QLLy0qdcOfCic83fGQGRAABBBBAoB8FTKW3eN4vRCTqKtyPBy/4obTIwrHrKycTYhX7QhFgFfD6nHXa2qmqSR7Q2V9kBluAFc33FQc3+QcfNdKLg6ggoLJPIjRPH4wqr4LPyetmyWA2wAr6YkUBlluBFXxtG2FnK16ca+wGJ9WqyNfnbtDLftkRvQ8yjentuyPo65WEUDsNi7JhkPt9VOkTv+QmHzUh0k76UDmBjDnrODyqFziltg/HzR46JsqERtnALy5Gq3OsvGBqZ3Pc1VLD5OfJAWv2yQuokjwqfblyqsbS1V/hjeQGctlQNA628oKyvGWs9kEDtjAvW71ll8FG5xFXkaWv09auHerQudePfbKAf2Qxpd0QmDVt2X6eeN/RItN3Yxh27XuBLt9TR9794MRlfX8ojoAAAggggEDjBeZM+Wn5yabxPxORNzd+9CExYodomTpv8aRfDomzGaInQYBVuAur1dnta3+hS+qomhVtgzTAMlVTR508yt9jP88LqrBMX6tgKWEYXAWfm8Mgy/bIcp9IGDZ0V9ESwqShu30ioV022NMqrH/+rSLXXbhedmxzOs5nm9Cbd0j2MXxR9Uzq1tlZeJSqQEpSiXTVUiYgs4NnmpnXHrN+sJNObvKrsmp6U+WVNTlBSnwLZoKamh71ToVSMufwxVSD9sxKyOSJgc6ZpoKiaIyUabit9Uy51gmZ4hDKHsY5x3BJYXI9UqeSt0S1Tu+19HzqPy0zvgY2hI3m5AZnSinf90qHX3nlqOWF+yOLCfVa4L0zlu5brTb9QpR+Za8HYcf+E9CyWfzqO+Y9fNjD/XdQjoQAAggggEBjBGZPW3GJiHyxMaMN2VH+XGl78mCeSljc60uAVbBrc+bbV39YtZRuC34fzy7Ji75/9UFl/01vCVuk7PQCKlWzqC/ePme5X0hR9wfh8Zwxd3bslb/p8Jb+oiOOX/Y5oOwfcWKLF/aysgFWbYgVNnpPemXZ5YZ2v+Cz81TCIMQyR4lChLCpu+1plLzuXmYbDKz+R0U//WSlqwYxChJErJ+pO9qF9s4wdvddltl/p1eop8fK2167Tb/SbxA3wNrVW8cOXX80O0IPJt04552/dXb55ormvus7I2YK7svgHWbvp0TQ/OSZZ6qyYllXKQ7xojkk71l9+JWfa3tsV+78fHAItE9bdkxZ1D0iao/BMWNmGQm84PvV99/90GH/hQgCCCCAAAKDRWD2lKV7SlNppYjab7DMeaDmqbT/4bsWH2p6hPFRQIEe/OZYwNkPsSld3P5MywbV8hvx5F+i33TTZxilB3tM8OSK68bJ2PFueU6xMLZs9OWK89fJpg3hpD1P9FGntop5GqHbCyvsd2UCKyXNpoG7eRqhqcqKnlhoKrHMz80+8VMJo15YJggzv+znNXSPq19swJC502sqj4rFx2yGmYDvi/zge9v0X/9SCXMud1lheO926kr1sKuum/D7YUYzBE9Xq9OnrpzUrMT0nxg1SE+wKiKmqfnm6L+tIqpDtG/+QaBLRFVEKV9r31dKPK1VWZkl8UqVlNblaHn8aBFpE5GxIroc1WYOmr+T6KqcNv/hSfcO0uvHtBFAAAEEhpnArGkrLlUSPCimvz98EdkuIquVyCYR2epr3aU8qYhWWpSUxJcmUbpVtBotSvb+vyox8yTmAesJ+n9tHR6Zv2jSUf0NxfG6JzBo/rLYvdMZ1Fups975/B0ywntv/IyzOhVY5iwPfFVZf/pz41R2OVaRBBbfu03P+/qWuJJs5CjlH3P6KNUyWtU0dDehlQmqgqcQmiWF0RLDYClhFGgFlVelMMwK+2mZ8Cp5KmHeUsJ0f6NEhwCrSHcKc3nqbxX57re3iQmyzEeqWX2Y0z6jt2099Kov7rcWrcEtMOv4lW9Rnn5gUIVXSjpFyxrRcqfyvP8oie7orOpOv1reJB3jNi549CXmL6Y9+mhv/32zrNk2odw8ss0XXVa+btKipyqlPuSJerEW3dSjAft5Y6XU5mpVv/vuhyZRidXP9hwOAQQQQKBnAu+bvvLlFa3/JCIjerbnbmytZYuv5RueVL/n6+at/vbNzy549M07/fuCeZDZ1r2b9qlUpa3kV6ZoVb5KRE/Y1aKj3ZhlvV0rlUr1yAU/PYyVD32Au7tDEmDtrmCD9j/3nWtfW21WK0Tp5PHpOwmwTMDzicvHyoGvLe7f8bds8uX6i1/Qq54xT/gzH1r+5agW/xWHNAW9sIKnDJZNYCXSHFVhhT2xTGgVVmUFgVYpXGpotguXD4ZPKrQBVlCIZZb9RdVYPe2F1aBLyDAI9Epg2zYt3/7mVr16tSlWcdpvOX86a1/PO3jyuPfNnKlM5Qsfg1Rg1rRlpyrx7hnIf1XsBp0W0atEy0+0yN+VqIf6u5mp+QvspvGl6SLe4Z7SL9Eip4nI+G7Mvb832aiUf+pdCw/9eX8fmOMhgAACCCDQXYHZU5d/VpS6prvb9347XdVaHlDKv3veosO+3/txwj3nyBzviWlvP1m0OkMpOUNE9duTE7XWv311ZdKb5y5Rld09D/ZvrAABVmM9ezVae7sujdXrv+6X9bmpAXYSYJlWVa98RVl/6uqxqqm5uJfx73/pkms/vkFXK6bvj5amZuUfP3u0GjkqXYVlKqtsFZYJsMw5mSWDJsgKlhEG4VUYeJngq+RWYUVPJUwHWGEvrOwT5LKVV1Ri9eqWZacGCvxsSYde9OCOoM4qXvoajR/dn3+qbm+adu0trf9s4GEZqn8FVPvxy15b9jzzBLv++9fP7p+jqf1bo0Uvq5b1BxY8cOia7u/aP1vOmrr8JKXkRtHqxaLELD8szP/wKdGT71o0eUX/SHAUBBBAAAEEeiKg1expK1eKRC1qerJrT7ZVskr7lXPnLz78/p7s1t1t29+ybK/ySM88HfDA/vk7gNqhxD/krkWT/9LdObJd/wgU5i+A/XO6xTzK2e1rTpWSmqdFWnsSYJnKozPe1yrTTm4p5omJSKVLy21XbZTf/bYzbhD/koOa/MnHtXi2isoGU0EvrOiphKYflqm6chu620osU3llemSFjd3DHljKU1JTiRU2nY/7CRkkGxBYMAKswt46w2JiHR1avnjDZr11qw7Sq/D+TAdZVd//2HU3jL91WIAM0ZOcNX3lEUrrxSJB8FKkj04R/T3R6rte047Hf/DAkaY3RaE/Zp2w/GXKl0laq68okUI0otUif1uv1L8sXDhxa6HxmBwCCCCAwLATOGPq8rd7SpmejX31e7/Wvv6uqlY/OW/J4X3a6uLMKcvbdjTpS5SULpechyI1+OKa5y61z1s80VTO81Eggb66kQt0isWeyvmnPNva1dr866Bx+84qrsxpuD+Pvt57b0+u+dL4oDKpqB+r/1mR6y/eoDdvCJcSlkqi33r6aD12T88zPazCYCrzREITYEUhVlO0fNBuEywjNJVYKlpWGAVYtgIrCLRsE2yqsIp6Wwz7eVWrIvcs2K5XPNYZJVbJfWtDLK31/27rVG+85ZZx64c92CAFmDX1t5NFNS1WIqaHQxE+tCj9O1VVD3SVy19Y8ODBg/bemj1t5WwR/R4RmS4iA7qeXmv9eIfuPO7eh45YV4SLzBwQQAABBBAwS/I3TyibPk7hA8Ia/1EV8a+et2jy55Kntzf+IOkRtTpj6orPKKU+o7LFH40+tJZ75i2e9K5GD8t4uydAgLV7fru993mnrZ1aGSELg1S8FwGWmcDMWS0y452tSePn3Z5V4we4+xubZeE92+IQbtyeJf+tp7d6pmF78F8mxDJVWc3NNtQKg6qwmXtSfWUqtMJeWuHyQvMRNHg3D2eMAiwTkJkPG2jZr7NnSCVW4685I+5cYM3zvtz6pc3SZZ7llu19FVZj7ej05e033thm/nzgYxAKtL/u982l/bv+oES9qgDTN2V+67WSmfMWTny4APNp2BROOWVp6+gd5V+JyMQ+/Bfm7sx3/kGL7n3PXJkbPY6hO7uwDQIIIIAAAn0jEDVvN0vcx/bBEbSv/Y/cvfjQr/XB2LscctbxK65Qnszty//dN01Bt66vjL7vscO37XJCbNBvAgRY/UZde6Dz3rnmoMoI9YvocaHpCiuz+S56YNkRzXK7S+eOlZe/akD/AXqnkuufr8qcC9bJts3JSR12fIt+8aublGnKblryhQ3bw15YJqwKlhSa/ldRQ/egAivqixUuIwyfQhhUYwVLCZMnElKFNYA3NofepUClIvL127bofzxTDVa5ukXd8TJXLf/RPGrc7LlzaR65S9ACbvDO6b/ae6QeZZYN9tW/evbkrM0TBD9aGV/+0YIFB5v13EPuwzzVsOmFysnaky+LlhcP2Alqffm8xZOvHbDjc2AEEEAAAQQigVnHL3uX8rwf9kXIo0W+Um0rXzJQf6+YM0d7Tz664oui1UV9esGVnj5v4eRFfXoMBu+RAAFWj7gau/FZM9d+XkpyaTxqLyuwTND1pqOb5NyPjS10Fdai/9yq/+ObW5T55d18jB3vydGnjdbNLaKCXlam51VUiWVCKxtgmT5Ypom7begeBllh1ZYJvMxn8xTCoKdW1NDd7YflPpUw1STbufupwGrsvc1oOxd4fEWXvut72+Klg0n/qzDL0iKbK+IffdNNEx7HcvAJtLf/sFTecNA3ReSsAZ7981rkO3uVR8259YEDOwZ4Lv1y+OAvtI+suFlEmYeijOqXgzoHUVo2e76a8v2HJ5qG/XwggAACCCAwYAKzpi3/byXqxMZPQP983qLJxzR+3J6N2H7isr3KFe/XIvKKnu3Zo62vnrdo0pwe7cHGfSpAgNWnvPUHf98pG15eHlV9UpROulftRoCllJaPXjJWTz6yuI8k9KsiN35yvTz5u2jNlBZ52euaqxOPHVkyFVUmdEqeOmgrsZLwKmjqHvTKCv8LwivzOeqjFYZYURWWCpcWRj3cgybvNU8kNJeHEGuA3gHD97C+L3LLjZv16lV+WH0VfZj7196SvpZrv3Bz2+XDV2lwn/msaSuuViJXDOhZaP2nilTftGDx4RsHdB4DdPD3H/+nPbq8HUtF1Mv6fwp6e6WqDlzw8CSeHNr/+BwRAQQQQEBE3jvjj/tW/U7zv0ON/n1fV0QfuqAgT99994wVb9S++nUfNnW/b96iSadyUxVHoNE3dHHOrMAzOf983dS1Yd09UlaniHZSq90IsEzNxisPLMunr24LQp2ifiz7VYf+2tUblAmzzMfIUUrecvooPWqsp+xyQLtMMFhGGDyJMPmcCrFsgGWXEprPQWgV9sayTd1p6F7Uu2F4zuv/3btdP/KLTmWCrJpQNVhOqNZLpTr5hi9PeHp4Cg3us549bdkxIt6P+6jfRHdw1ouWD1XGP3nPggUzoz9pu7Pb0NumfcbvJzT5lWu1yAX9fnZKf2/ewsln5jQD6PepcEAEEEAAgeEnED3o5K5Gn7lWcsX8hZOuafS4uzPeu6evuE9rOXl3xtjJvsvnLZp4WP81qe+jsxhCwxJgDcDFPOtdq06W5qb/DJ6a1MAAy/wyPPPdrTLjHa0DcFbdP+R3btykf/ng9vje23u/UvWNp7aWguqrqKdVUGUVLR0MlhLaJxKar6NlhmED+HDpoF1KGCxFNNVWmQArCLSCbCDsjp0NDuzsWUrY/evIlj0XWLvG11++eYvavl0n/xwW3pL2nqxUtTr1i18a90DPR2ePgRZon7r0gLIq/6+IDMA/IyhfRD+iu/T75i+Z/NRAWxTp+LOmrrhYKTEVjf36JEit5Jz5Cyd9u0gWzAUBBBBAYHgIzJ664t9EyYWNPVu9saKrhyxYfHih/pF11vErzlCezG/suYajKdFPH/jmSS+fO9f8PYuPIggQYPXzVTjxxL+MeNGYtmek7O0VHLqBAZYZzjR0v+7L42XCXqV+PrPuH27VM1V95blrVLWa3H5HntSq93lZWQV9rEpRSBX0wbJPIoyWDkYN3cOG7+HP7BMMzTJBE2CFPbFUsCQxCK6iMCuvF1bwB1PmXUCI1f1ryZbdFzBv9bt/sE3/9n86lV07mFpCGA7169a2cUfxP5Lddy3SlrOmLV+gRA3I45a10jet6txw2ZIlx0ZdBoskM/Bzefe05Qf6Sq1QWvrxX3j0cyO6NrzijiXH7hh4AWaAAAIIIDCcBGZPXfGwKDm2keesRH/lrkWTTSiWXTfUyMP0eKwpU35a3rc8/gVRMrrHO+96hy2VtifbhntV+66Z+m8LAqz+sw6OdNa71n5KmtUN8WEbHGCZP05OOKlFzzxrVGGvrTnl+3+wVf/ou1uUjrLsPfYt6Te9vVUFVVglFSwFtEsHbYgVV2FFywpremGZ/Wwzd1OJZZcS2mqs6GlvJjywywqDACv+f8nNQIjVz2+MYXC4x1d26Tvv2Bovnw0bt0cVgeH5b9FV9a4v3jbuwWHAMdROUc2auvJfldI39veJaZFtotQH5i+c+B/9fezBdrwzpv7utZ6q/lRE9umvuSut/qtr/BPv4C++/SXOcRBAAAEEjMDsaSueFZF9G6WhlGzuKvmvXPDAoWsaNWYjx5k9bfmXRNTHGzlmOJbSW7rW733fkmPXNn5sRuyNQGFDjt6cTNH3OffU1ftUW8u/EU9eGs+1DwKs0WOU/Otnx8pLX9VUaJJL37tWr33OlmEpffj0FtnvoHLwREITYgWN2ssSPo2wSQXVZcH3QTP3cFmhqbYyPzfBldk+6KMVLCkMq7BsHyzbEyuuwgr+PGIpYaFvkCE0OfM2/8ZXt8iTf46KY6Jlg8FtGCWoWutvP7Oq7fwFC9Sw7ls0GC/7+6f+4YAu1fWYiOzZn/NXop7uqm5984KH30yz8G7Cmx6Um/+20jzd8zXd3GW3N9Nanzx/8eT7d3sgBkAAAQQQQKAbAmcct/SVXqn8125s2oNN9I/nLZr89h7s0K+bvmfqyiN9pR/pg6b1UvXluB8+NMn8AxgfBRAgwOqni9DerkujZd2PpEmlG8z1QYBlTumg15TlE3PGBcFPUT9+9ZPt8u0bN8XTMw3djzljlLSM8sJAylRU5TRyt43d008lTIIrG2IFTzY0IZb0fCkhFVhFvWsG57yWLe3SP/je1lTj9iC8Sv7fFvG7Drv5K3s9OTjPcDjPeo43e/ppj4rWb+xXBS1P7PDUW+9dOPH5fj3uEDhY8ITCUucS0frgfjqdP961cOLByjwumA8EEEAAAQT6WGDWtGUXKPG+1sjDKNEX3bVo8pcbOWYjx2qfvvLlZa1X9MlDdLScMW/xpB82cr6M1XuB4qYbvT+nQu55Zvvzk7ym0i+0ZNbm9lGA1dys5FNzxskrXj0AvYS7eQW6urR8+bIN/p+Wd3p2l9e8caQ+6I3NQRVWsIwwqLayfbDsEwnDBu/29bAqK2rkbqqwVNLcPQiwTC8stx+WCQ6i14P8IHoXZJcSEmJ180Ky2U4FNmzw5bZbtuq1a6u29VV22aoW7d9681cmXKSEX3AH2+00a+ry85RSt/fzvH9ZKfunFbWMv58tenW4WdOW7edJ6VEt+oBeDdDDnbSWK+YvLtZTm3p4CmyOAAIIIDBIBN49dcV8reSMhk5Xea+dt/CQPzd0zAYO9s7jf7PHSG+EqbDer4HDBkMpX3/wrocm9/ff9Rp9GkNmPAKsfriU7e26ebS3/l4pydtqDtdHAZY5zh57ePLZ69ukbUKcD/XD2fbsEM/8taKvu3Cd6uyIylG0yDFntErbPuWoIXsUVEWBVbCcMHhCYbS00DZxN83ezdLB6PvgaYZBBVbU0D3zVEK3oXsqxKKhe88uIFvvUuC+H23XDy3ssO2uwu3d0FRkxdg9V7xh7lyab+8Ss2AbnHLY0tZRE8pPKpH9+3FqD89bNOn4fjzekD3U7ClL95Sm8hP98XRCs9yzucufeMeSyRuGLCgnhgACCCBQAAGtZk9d+Q9RjQxy9N/nLZr8sgKcXN0ptL/pkZby6Nbfi8grGj9Pfem8RZO/0PhxGbE3AgRYvVHr4T5nn77mAj3Cu01Eah8N2IcBlmnoPvN9rXLCO/rxoUs9tKlWtNxx4+bqI4u2xzb7vqLJf8NJLV5QhWWCqKACy3kaoX06Yck8pTDqleUEWCbIMk8yTDV0j55KaJ9IaH5mPky1Fr2wenjR2LzbAmvX+PqGazapzs6o55oTXtkgS4m8/0tfGX9ntwdlw6IIqFnTVnxPiby3Hyf0P01+x9u+99AR6/rxmEP6ULOnL5+mffWgebZH356o0lr7V89fPPmqvj0OoyOAAAIIDGeB9hmPTGjyW5/R0sin7uovz1s0+aJiu2o1e9rjfxDRr230PJWo6+5aNPGzjR6X8Xon0Md/YevdpIbSXkHvq6b1j4uS1+U+cLSPA6zx/1d9ddVN42XMuOJe6u1btFx1/jq9dlXY0N1kSm86pVXv9dKyMssIbUN3u5zQhFbmyYRxg/d4mWEYctkm7ibECr6OqrDqNnS31TCZz/Y+ZCnhUHpH9u+5fOv2rXrl8q7kFnKat0e/Lv/8y19tm2KecNK/M+NouytwxvErDvI8+W2f9FrIm5zWj6sRpSl33X/IC7s7d/ZPC8yetsKEkN8UkZF9bKN1Sb9i/k8mP9XHx2F4BBBAAIFhKhD+/UQ9LqJHNIzA75o+76E3LGrYeH000OxpK38rog9v9PBa5Ib5iyZ9utHjMl7vBIqbavTufAq2l1Znv33dZXq0ujaYWN6vqH0cYJnDHnPsCP2+D40JwqCiftz3va3+j+7Y4gVGSptG7tXj3ju61DQiWgoYVFuFSwTNZ9PI3XwOAqvoyYSlqAorCbFU0EcrL8QKlxCGvbHMF/Z740MvrKLeJYNrXs/8vSI337hFqubBg7XBlbnntnZ2Vo752r/vZZ5ex8egEtBq1tSVP1ZK0g/l6LtzWDOi64UD7lhy7I6+O8SwHlnNnrr8P0Wpd/S9gj9n3qJDr+7743AEBBBAAIHhKDBr2rLDRdSjSlSjGiFv932ZdPdDkwr/oKHZ05YvEVHHNPq6a1+unP/QpM81elzG650AAVbv3Lq117mnrz6kOqL0iCg1aiADrBEjRC65fJwc+Lqmbs17IDbatlnraz+yTlY9Y6qwdBAoHfzmkfoVh41Q4VLAZCmhXTZoPpvwqjlYRqikJsAyjd2dXlimIsutwjLnGfTIiupjUiEWvbAG4jYYMsfcukXLDddukhfW63S/qyAwDV/Sor8y4U8rL5q7hN5Xg+3Cz5q27Hgl3uJ+mrfv6+pRdy8+7Nf9dLxheZhTj/rlmNaW0UuUkkP7FkA/91zXhgOW8L7vW2ZGRwABBIapwKypy6copR4yv+Y0hEDrtaVS9ZDvP3j4cw0Zrw8HmT1txW9EpOFPhfZ9+de7H5p0cx9OnaF7IECA1QOsnmw6R7T39zPWfUuV1Qfils0DVIFl5v36g5v0RVeMVaaCqagfy3+5Q3/jcxtVV2cINaJVVd86c7Q3apxXu5QwU4WVPJUw7JdlzjNo6m56YUXN3O1SBegknQAAIABJREFUQhNamcor2w+Lhu5FvSMG77x+82iHfP+ObUm3dnMqThWWUvLPHX7lDbffvlfh/zIweK9C38189rTl/ymi3tl3R4hH3q6Vev/8hRP/ox+ONewP8e7jVxyrPbVYRDfmL/11RanCGvY3GwAIIIBAHwnMmrbsVCXe/2vg8E+1tIw85Ns/fs3mBo7ZJ0PNnrb89yLq9Y0eXCn/3LsWHvqtRo/LeL0TKG6a0bvzKcxeZ5/y7HQ9dsQDqfR7AAMsszTv/I+PkSOPadxy6EZj+1WRz39svf+/f+yMf3k44HVNMnlqa1ApZYKooA9WSUm5OQyq4qcSmtdNqGV+FvXHMtuFTyIMK7VsU3gTXIWVV9HnqO+WCtYTJksIWUrY6Cs8PMbbtFHrL1y3STa84Mc3lHNnhUGW1p+99fYJ1w0PkaF1lu1H//KAcsvov/fPWenvzls0+cz+ORZHMQKzpq24VIl8vi81tMjftrWMnPjjQfDLQF86MDYCCCCAQOMFzjj+8fM9z/9G40ZWfx6zvuuQ2x87vKtxYzZ+pPb2H5bKLxz0B1Hy6kaPrjw57q4HJ/200eMyXu8ECLB657aLveZ4Z8+6cKEuqfSjzgc4wNpv/5K+6pY2ZUKgon784/+ryLUfXqc7d+jgmVBNI5Q+9j1jpGWMUiaAyi4lNL2wTGBlK7CCZYUlE2w520ZPJLT9sMySwVSAFfXDMq/bbtvZz9aLhu5FvXOKMS/T0u7uH2yVX/zcPHYwXj0YTi6uwFJL/c6uU756x96rijFrZtFdgeAvRxsO+rmIvLm7+/R+O/WzEV3rT6DvVe8Fe7Nn9Bhu05y/4f+C68yny9fqrXcvnsiy0N5cJPZBAAEEEKgrMGvaiquVyBUNJPrlvEWT3tLA8fpkqPdNXzmqovXvReRljT5ARVdeumDx4U83elzG651AcZOM3p1PIfY687Q1F6kW7wsikm46NcABlsGZcUqLnnnmKNv2qRBe2Unc+60t+r/u3BI+1FyLjB5fqh4za1SpeWQYPMXLA6OnEQYN3ZvDwMr0wzLVVkGoZZ9CGFVu2Sou0xcrWDboVmJFIVZNQ3d6YRXyHinqpNat9eXz12ySbVujN7vbvD2c9I5K1XvLN77dtrSo58C86gvMnv74a7T2H1MNfTR17vEqWssb5y+etJzr0f8CZ0x7vN0T/+5sBt3QmWj93/MWTz6poWMyGAIIIIDAsBeYPX3lcX61OqlREEqpJ+Yvnnx/o8brq3FmT1m6pzSVHxeRfRt8jEql7cmRCxbMrDZ4XIbrpQABVi/h6u127qmr96mMKT2lRNU+jrsAAdbIFiVX3dQme+9b3EcSbt7gy7+e/rxUoz8mTNh0xKmj/H1eVvaC5YAmkIoqrIInEkZBlllSGCwxDJq6m6ArDLGCr81SQhNoBVVcJrxKGrrHSwmDEIsqrAa/JYbNcOZpg7fesqX65BNdwZsrVa0XBVlK5Gdq5LoZt956YMewgRlCJzpr2rKrlXiN/FfNfB2lzpy3cOJ3hxDdIDsVrWZNW3G/EnViH05cK9GvvmvR5L/04TEYGgEEEEAAgWEh0D516QFlKa8UJW0NPWEtqw46auL+c+cqv6HjMlivBQiwek2Xv+PZM9deq5vVZ0zlUM1HAQIsM6fjpo/8/9m7Evimqux9zstLNwq0BRTXcQM3oEnBBdwKTcqgI66BpCgjoMw4LuO+/EdF3B33bVRUXGkCdcUZkSaFuo8KTYK4gfuKUqBAS5fkvfOfl6XNvr6bvsB7v9/8BpN7v3vOd+97Tb6chWbMLUUpAkmp1/vLu+jpO9tQDDwqBg3hxGOnlXIFhf6i7FK0VVCwkqKvgqmE0uvSf0tCljYgXPk6FIYUdPfVwgqkFYaLV37RIShiBWtgRdbCihInlEqialdOGVj9cQ899Vi7X6oKebL2ClmIvwteceLjTw/5LKeGqYvJwkDglz1JbJD3g1G0de+OtL9ywnyYr35QkmXnMgMxGVtO4IFrzmx2qrPEK6z2qntSHa2OUxlQGVAZUBlQGVAZiM2ApWb1GOA0qwGAl5UjxDX1jWN0CBjrm7ysS6lgqTGgClip8ZTSqLmmzaO9BbSCEIYqWcDiOYCLrhlEo8cVKHb/uzsJ7rhoM/3wlcdvIwEcMr7Ie/BRhbw/FTAoYPkjsKS0wgJfLaxAFJYkYPmitPz/7ROwfIXcg4Xd/RihApavLpYUOROIzgoVqiJrX6m1sFK6JXaZQV4vwL3/3C5++7WnrxVAhIhFwN326JNl/9hlSNnJHLXUOv8GhI+wdQu7OYLqRWptJLY0p4huMbY0AXCTUhye9jAEaKq36wxpT1QnqAyoDKgMqAyoDKgMhDFgqXH+GTh8RnZakBzWRl2t1IJJdmwVMCMGFCtgZORNP06aO3eV1tu+3zLiAoXbFRyBJd1+B4zUwP/dUR6e5tSP/MVaep27G+6+rE0UvP6W5gVFnGiYVcppixE0GIjCCghWkljli7qSRKtA/SspKkv6tz8SS+peCMAF/u2rpSUJVpy/rpakOkgRaf4IrOgorFAxK/LfCqNNNSfHDEiF25f/p4tee3lH3/M0cIb6TKEdQrd40IIXhv2aY/PU5WRioM7oWk4AtTLBxYQhxLttjZVXslxDxU6dgdNqHEOKuKG/SH9+Up+V1khP+2Zv2eurx+1Ia5Y6WGVAZUBlQGVAZUBlIIwBc637VSQ6RW5aCOBhm113kdy4Kl7mDKgCVubchc0899SNY8UBXDMhlPreULiAJUUkzb5gIB09sVCxZ0CqgfX0nW3wwfKuXq73PEgrjDupROOvY+VPHZQiq4IphFI0lpRa6IvK8olXfTWwgpFYvlpYUkRWIJIrVhqhVGurN4UwVjpYZI0jmc6RCpN/DGxtE+GOm7fRli1ieGBeX+5gDwJc8ejC8ofyzzvVYomBqVPfHThgR+nPgDCQHSPYhSIeXt805ht2a6jI6TAwbx5x6z5wNwMBs+5LRHCZzaG7Lx271LEqAyoDKgMqAyoDKgN9DJxa7Swr1qLU3btQbl5IBLOtSSc1dlEvhTCgWPFCIfykZMb5J31f3jVowPugwUN6JyhcwJLsLNAizX+gDJVc0P2nr71003mtGCzoLgmDx5w5QBy6D8/5CrIHBCx/8fY+waqvDlZA4NIG0g5DUgl9UViBgu7BCCxfGmFEFJbEVVCLUFMJU7oldplBUvTVs092iP99v9tfUS6y66DvMMF7m7aVT2powJ5dhpidzFFzTcv1yHE3sXSLRLrN1qRXU0xZkpwBtsXoPBcAn8hgakpTEOFLz+B1h6vdjVKiSx2kMqAyoDKgMqAyEMVAncF5CiG+yoAagUDc12avkqKx1UshDKgClgwbcc4ZradiMfcyAPXxmQcCliQGTZ1WDKfUDZCBBTYQokDw2jPt9O/nOnprYQ3ZixePMQ3gfMXcpZpWvu6DfSmEwVTC0I6Evvel8VJkVlD48kVg+TF8OkNIKqGvkFGsgu4Rd4xaC4vNvucL6rffeOmuW7f1Nhvotbv3nHACEE55/Jkye774pNoZzoDJtLaAbxN+AaAhrLghoB+28qUjly1Tu1Oy4jhT3HOqVxZ18eVfIcJemWIkmbcVBbGyfkXV94zwVViVAZUBlQGVAZWBnZqBOqP7OQI6W3YnCd6xOnTHy46rAmbFgCpgZUWff3Jv58FQrDwRsAoKAW64uxz22EcjAxNsILq7CG6Zuwl++d7bm5o5ZmKxuL+ugPPVr5Kir3zF2v2pg70CVjAiSxKtAu/70ggDYpYvlTAgYvlSBhH89bCCUVhqQXc2G7qToIoCwIP3bqfPP/X4dczIp6n/xRcef7pC/j+oOwmH+eAGs6424c7/02rXXZ0PfOyKNpqNLVcjcHcw8l0AEGus9qq3GOGrsCoDKgMqAyoDKgM7LQMnn7yqpLSL/w4AhsnupIgXWJsq/yU7rgqYFQOqgJUVff7Js6a1PgMF+OcwqDwRsCSbxx1dQH+5ahBKwo1Sr8bFHbTk0e1IgcbyA8o0dNSpJSgJUr4oKg36i7UHOg76/t2bUhgQrXxilz/NMDgnGHUl/TeHGB6FFRAlUHo9GJEVICgnqYSZ3p2ZzmO9+bm0K1mfkBi2SOmACa+IOZ996hFfWNjB+eYF3osUslCDox97qmIta2pVfHYM1Bmd5xDg0+xWIMGL3IiGxspv2a2hImfDwIwa5xEih+/L3pq71yjxJqu9al42NqpzVQZUBlQGVAZUBnY9BgjNBve/EOGv8vtOHgQ4st6ud8mPrSJmw0Auv1JmY6ei554zfeOTqOXmhBmZRwJWQQHApTcMppGjtIo9D14PwT2XbqF1a6R62P4rZsBLvJMSok6EtYoLER/8hffjqxi974RaEGpEvH9HGhvpQfC/kzmUED8ytzGEiFi4SW0NVWQiSE3HzlDfQ1W/CHgft7FOX6zX4gitERXUA4ckBCDC55iHPWQvot5PJHpFLhP4b5G4U554tnypoh9gqnEJGbAYna8B4FRmNBEstDp04X8/mC2mAmfCgKl6bam2wPsbEZRkMj/ZHARw1dt1+mTj1PdVBlQGVAZUBlQGVAb6GKirWXMAceQGIH8TNRkvAvhWKOMPaWgYpdawlZFXOaAUK1jI4VyuMM4xt16NPIanF+SRgCWJNrvtroHr7ymHklLlHonPW7rhnsu2AAkBsSOUY4qtf/j0KMmlyPCa3tdDlJRIAStS3MIQeUtOESupmBQ4yYmEo6iQsIjTH29urLV9r8URfoKwiWyOmO6b0isMReP6ticWbiyc4LhYIlaYKBYpwEVUV0/knvRevPcjeAyjPfI9n/3YUjBw04SHHlJrG+XqeSznOlJY+sBOfgOx6z7YIwre8YtXjGuR024VS34GzEbXkwjATGj0enr2aGg+UuqgpF4qAyoDKgMqAyoDKgNJGJgHxK0zuhcBgJkFWSSKJltT1YsssFXM7BhQrlqRnV85nX3uGZvHCMUkhRf28ZlnApakIMw8vxRO+GNxTrlLZzFJg3rshjZa1dwVfm4DOVwxD3PvPkRsSFzFhPxqSlBVCYIGXgtDCQo98cScWAb1CjmhnscXVxKGmUWJUglUmUTiV6RQ1CvgZIEXC7PX5RB/k9kVT8SKK7z18YpheX0RQBH7ELVVEfi9/5ngiRlMM4080xzQdY89O/S2hOF96dwI6ticMTBjUssUUcO9wW5B+tXr0Y5saB7Vzm4NFVkOBky17v15om/kwIqFIQjC1CUrxr7OCl/FVRlQGVAZUBlQGdiZGJhuXP0XDjSPsfGJPrPa9YezwVZRs2VAFbCyZRAATCYqGEhbnqAimtkLl4cC1pAhHFx9ezkN2d3Xg0+R17YtIt1wdits3yqGiIV+dSnK6LA9iCdgRSokEQJW8O3g9P6Owoo0Vy4RK5aQFBTogichmdiU8vsxhLHAS4dUFkDpoMTHDzn0V0JLckqTHuKkA+LcAhHzOtpF/PIzL0o6ahwR61uB58c99dTgzYq8qVSj4jJgrnE+jBxewI4iut1q1/8fO3wVWU4GzAbnl4g4Uk7MIBYR3Whz6OezwFYxVQZ2dgbmzSPu13+v1mw5oAgHbNzIdRQOK+E6u3fnC7kKL4mbe6jk970L+PYNpQdR+TeraY8/jRXmzw98ltjZyVH9UxnYCRmYPrGlkuOxCQCZdIhGxCvrGyvv3gmp2ylcyvQr3E7hvJxOmKb8Oqy0omANIAz34eahgCWZfdRxRXTeZQNRKm6u1OuN59vppQXtEQJWDAkrnoAVs8xVQJnCgICVyPkoEStgSqyooEihJd4YSY2J+16EWJNIKEqUSpiywBRwXhofo25VLzXJ8CJ9D/vvaBFrtz014tGTijgln71Yx0LwAnzwTje1bfGLqr2UhbmILwzfr/zP6gdmpT5Vou2SvhCte9/dBADVLKwmgG70ePe2No9rZYGvYsrPQF2t81UiPEV+ZN9zY3F9o45JGgQLe/MJc1rNGsOSpjGOfLJZtTUWA4Rn164p8RKOI/QOQ+KKCOBoJPgTIPwhbc4IvieA5YjwDnDYKYjiBmrvbGn4YHwXgPRhUL2UxoD0d/mrjz4sJaFkhEi0F5KgJQ6QI973iUsAARCJSOREEMVODuln7Nb+OKJm9Fb185fSdjNze0yGVaN54FcDgjZzlPgzCfAHDd85etGyo7exwFcxs2dAFbCy57AXYda0jY9BAfcX3wt5KmCVDECYd185DN1dIyMz8kJ5ugn+r24jbf5N9IddBepb+Q9zqLoUum7IhqQrYIXWwgpAUvDO6b2DIkSshCJTiF1h4xSYShjkNMrfgA/JRKyE74dzNt5QRMP38n8Iybdr8yYS332rk+tNPw1qjkEXEUTRC8c98cIQqZOZeuUBAybT2gJ+q+czIDyQhbkE9L7Nrj+GBbaKyYYBi8F1OyBcwwYdPrLadUcxwt5lYU2mJRp+y8G/oUgn1q/QfbTLEpHHjk+Zsr5wsLDjLCS4FUgcBIiFAMDiZ1YBAbqJaAci3FLgaXv8meaJXXlM3U5huiRaffGu+yBEegERDwvsvSRc8EkclD69ewP/E4Hoa4Gji2iw/r2GBpSq6apXHjJgmfjR4cAXSHVDCxiZLwB5q62Oce8ywldhZWAgL78syuA3E4hZpl+HgbagCTgYna8ClkTMqMoC+tu1g7CwWLnHw/l2Fzx6fRsIvj9BfkXK93uZFP4SU6CKiKyKIUqBT5WKMTkkfTB4cHoFLN/CwVdTFKDiijoZimBhNgRsyTRyKqZtIXalK1jFtC2Er8A/9x+pFaqOLdRwLD6SMrnbw0GlI9LyYTd9/530+TdGEXjpWBK9iEVD6hYsQE8OTFKXyJIBU/XKUo22vBUBpC9LDC41fZABqUwh6wyu0wnhJUaL/GS16/ZJF1sSWgs29xyU7rxUxkuJ0WJ54df524GJ0Gx0PYSAFwDRUqtDzyR6LhUusxkjFSr+osZ9EA9isi/sGS8j7fViR9UXyog8IjTVfHgorym+BIiOAABdxo5lPZHeRsDPPOS9vcEx7oes4RQMYBr/fjE3YOB+PHlk/fAvaLTbbY2jf0zHdckWfmDxZQjcEUQ0RWaxQgDAdwnFdcDBbbY39d+lY5s6tn8YICA0G9xXc0hXsEobDHi2fCg/4JSHlqnNl/pnp1NbVdaHVGpL7tyjzpm+0YxazprPApZk+/lXDYJxxzL63ibDEejsEOG+y7bQ159Kf2iTCFg+sSqGgBUUGsIKukdEaoVqWqF3S7q1sCJEjfjpgimKYInwfO9F3NoRtodtQUqiVMigSJEp2fxIW8P+G6GohKPJZxRhSWmeqlcBMjdvEmllYxf6RdXoGl2I1E2gmfbEs+VLZbgFVAjGDJgNzpMQ8d+slkGgk+rteoYF4llZvuvimms/2QdJYPUl1jNws3fAgtXj0hK4z651D/AS/QYAA1jsDIdoWtRYmZddmEzVa4fzWu8aABgGACIWcEPr/zNmCwueWGKajZ+MQxDeAYAiduvg596yMaP7MzJlZs2HQ3q4wuMR4AEASFvMZcdNEJneBqAbvGUFH+SvqBufJYux5QQAboX80W30htWuPyn5/hBOn7xajwL/F0Q4L3ml0+SIqYwggKb/fUW48Vfvlv82N0+UIrbUS1EMEFomug8D3hf9fBZL0wjoh/WbhYNWp/l3mKVNKnZsBlQBS+aTMXcuab1bWz8lnhsRBR0zrTBBalvk+ND/jvp34IWEYwLfq4NjesdGizt77q2BeQ+WA6/gjK5Nvwowf3YrdGwP1PQOE6ICwVS9AlScIu6xgq6C0Vmx9isbESultMI0amFFiiRR+CEvJBOZUhK4IvCC/5kMO4aY0yfwIOjGF9LoIwowUnOT+dZkDidlsn79pYc+fK/Hz0hMPY6+FrXaI9WC7sy3I+sFLLXu+4DokqyB4gB4uR1DGpZPUAv7syKYDS6ajc7vEHBfFvCiSEcubtJ/nC622eC+C32/SjO4iBxWh97IAJk5pNnoehkBTgssREBwvNWhy7u0EIvR9SYATGZKmEjnWJv0zzJdIw64FFlRV+O6EjjuKgBiUpBZNr8QRCD4URTw9MUrKqU0pp3mstQ6TwXCVxg49LTVrpudCPeM6lWHFBRo/g3E7Q1A/fDrOQlE6NZouyaqdY8YnIAMIU8++ZeSAV0brAic9DeoOEOYlKepPyymTFW/D1QFLAZbMHv6b5Wg4VcSQnkYfB4JWJLdZ/+1FI7/YzEoOa3r+bu3ic2vdvhqD4Uf5shUwmQ1sEJ2KlnpzpCFolMJI9IAJdh44lDc12WKnkonCiuRnb3vxRHEYglZsZ4sMYSu8qEaOml6CRQWKbfzZTqPCI+H4PWXO2lrm+hnP1rEEkRRvOCpF4Y9ng6uOjb3DFgMLqkpx2gmKyO+Y22sPJ4JtgrKlAGL0VkPgBYWixCKf7c1Vj2YLvaMKe69BS99xSTdFUHsAtzjlcbK39O1qz/Hmw3OakRcGW4DXW216//Zn3alu/Z0g/MUDvHVdOelMx4BGuvtlX/MdfrgvHnzuC/fO/0yQPobAuyfjs0KGEtA9JpIcFsmorMC7I8ywWJwXgKI98lvG95utVfG7LY7fcqqAzkPfycgnCH/uhkhSgX8Hyn0DLrumeb91fpnGVGY+SRJzJ5Zu2aYVxDnEOKhiCA1NmFSqD3Cyh4S8W+2psqnMrdenZlLBlQBixHbs0wb/wUF3Plh8HkmYA0YgHCDVNB9uHILuv/2kxduObcVdmynPp2oN4Iq9HgHosxiRVxFnoE0BKywmvG+5dIQsEKG+0wIuxtTTCVMFv0kVy0sn30pCGuJIrli+Dv59BI64GDtTvUc+uIzD729oht9vQWkbYz2rh05nLDgmYpPGD1+VNgsGfDV3ygt2ZElTILp+fdFmh0X+YVsMbpu+N+dPZ+F1UT0hM2hn5su9tyxq7TbK3gnABye7txUxiPBGfUO3cupjFXIGLQY3f8GoBND7SGAD2123dEKsTElMywG19uAcFxKgzMaRF4CfrzNPnpVRtMzmiTVJnOOReJWAMLAjCAUNEkEukT0aJ9qaB7VriCz0jbFXy8OLkx7YpIJsYR50+S1FbzgOR8Qb85VqmA6fhGQW6CCqQ2Ow1mljKdjTl6OrTtpTbmnUyyJNF7D93CcAFpOW6j1kFAEoNFwXqGQNHg2EJyHgMxq/cUhUiCiBTaH7oJci/h5ubEKMXqn+uKoEE59Zsw8bdsQTWHP96DBvroUeSZgSX5MmlJMdX8tVW56l/SJ1N4lPnHzFg78mYQhddgDxztWDayIT7XhZyegPIQWeo8s+p4wCktCy1aASiOVMJGIlYroFHQ+qRgW8Cve+NC3JawkUVjD9+LF084p4ZScpprJM0UQCJYt7RK//1bwx18FNc0wcY+eeeLZobMywVfnsGdg+pRPDuS8wleMViJR8I5bvGLcTpV+wogrxcFaJrVYQMPVszCMgN6z2fXHZoJtNrqeRIA5mcxNPocesNr1zNJpk6+f3giLYfU04HgrEEXGwAqkoYPypWjz9NrVf+JII0VfMfwVkV7wlq0/p6FhWk66so0du0o7okLzAgJOZVvTK70zk+VoKRj/OxKFU61NY6Waa3l5mY3ONxBQKpgu6yUCTVts1zcEQetqPjqAuIImANhP1oVkBiOAzSiKf7I2VX0gM/QuAWc2up5DgFi1z6RPw1oCkH69ljoJ9q8WQXir1THmelW8yq9j2b+HJr+4Stva2Wf8dhkV8ncDBm7OPBSwpANy9W1lNGKUcqNkunaIcNPsTfT7j17/eY5ZCyuizlfobkbtSwoCljQ/JHUucsmUBaxQnKh/pxDxFPQjUeRTpiJWXAEq5I1kolecgu/aAqSZFw6EwRU7R+pg5MNhw88CLV60ozcKK2yb/Jx1oYBHLlikRmGl/WDNwQRzrfsoJPovo6W2EmpGp9uViZEtKmyaDMwwOo8RAd+Wv9Cx749Xq9Wu2y2TD9J1Na6JxIFUgFn2639fQj6ut+uOlB2YAeDsqV8M3NHZ1YIAsTszIl1lbdTfxWBpWSGl6AXqEb8MFKCXFbvv7xH+4CnTjMhVQXKLcc0JAKIkZEhF9XfG63ck8cp6h/75TO7h/ibEYnRJ522k3HZwQMcusuvfO6f626Ju7dZbAeAyuddghYcAHiK0WB2VrLrPsjK933EtRtd7ADCh3w2JYwABdAPR7Qcf8+rN8+fPD4ZAKNVc1a4IBlQBi+GRmDXl12FYVrCauEA3lTwUsCQxaLReSxffWIZKroW1ekWXuODGLZwQ2j/Ep0MFa2HFID9usfYQAUs6H6Fph/GEoqiuhHKkEsoUheXzIY7olEyAivt+DP+CXEXeU5HRWAigO6pQMJ5aosn3wu2JHh8vWXcI337j9f9yHpN+7qPSrrLq+xqwk+FjSIXOgIE645oTCcT/ZDA1lSk/YQE3Jh+7oaXi3M4+ZvrklkoUuQ+Z1Jsi6uQ5btjzjZUdmfBoNrq/RyAWBeapo7ho8NKlh2zPxK5czrHUuM4CDp6PtyYRNR98jK5m/nxU9BeWZH7Iw2luUplNpiUazZYRsxFxgTx2KxqFAMQr2/gNDy9bdmK3oi0NMU6qR7bu/dOkmk+y1xtCkTuQ43s6BeJXAsHB+cJJiJ1dKPYcXt905Dd5aHu/mWwxur8GoAP6zYDEC3eASFdZm/T/Uqh9qllJGFAFLMZH5NyTNx0tDoR3CIHviwwKWdRXKCdwRWosif47qttg4IWo16Ox/9cu1n/1jo3uQhhqkyRczbqoFCYYmDeAyGo3Hr++Tfy4qdNX0L1XdIolYMUTrnrTBEO5TC8Kyjezd0oaIlbcCKoMRawo4Sk9P8I2IqaIlUYUVkikmoRbOpCj864ciCWlMdv0ZXUGlDS5q5PgiUc6qL1d9DMQ/bT1IOGsJ16oWKQku1VbAOoM7pmExKgjF37expfoly0bkTdfbtQz0cdkitqFAAAgAElEQVTA9EmrDuR43gnEpHZPF3i8+1ibx7VmwrnF6LwNAK/NZG7SOURXWR3Kjlwy136yD5KwFgAGxfOHAH7uKPKOfP31cQxr3CVlM+EAqQaftrTkOwLYLTukBLOJ1rQXC+NZ82AyrS3gt3pfAyID5L62DTP6kgETwPM2u25msnFKed/8R+d+KOC3LOyRUgg5wAcAYA8W+DnC7BQ5cfzi5VXuHK2X98uYja4OBIiqgdXvjiH0iIjjFy/fubqI9juvOTZAFbByQPgsc+uroMFT8lXAkigaNIijmx8tx9JByhUdflzvoZtnbwLRS/6kzXjF2BO97rsjQgW9GLdIylFYAdUiwfiw4xdzXBoCVqRIEoaXQMCKJa7EFdQCFicqDp8IDwEmn14ijp9YqNyDJOMz4d23usUVjd1htbBC4Qngey14jnzs+eF51eFLRooUCWU2uq5GgDsYGbfCatfVMMJWYRkzcNbkVXsIIv8pQESXYXnW7eZ4PGjRssqfMoHzdd7juKYYtZ8ygQufQ7TmV2/b2ObmiaFxztnjyohQV+u+i4iuSAJJCFRVb9e7ZFxaViiLwXU7IFwjK2g4WA+AWGu1V73FcA04u/a93bxU0gCAu2jHVXrS69Femg/F3c1Gdw0CORidB+mZkevC3PK7QvhBR8n2yUuXHqv4SFT5nU8P0TTJtRevgYz+jqW3UlqjpVp1L3jKKmc1NGBOav6lZZ06OC0GVAErLboyG3zeGZsO92ppNXBYGIWQBxFYks3SQZk2ewDUnqY8MT2U06UL28WlT273R2FFXskir4JzpBC1mHW0QgDjCDzS09F3ZRKFFTov7M5MQ8SKm/KXYhfBUM4SiVi+99KPwiofytH51w7CkgG7hH4Fokjw0D0dYutGgevV/CL2iAjvfOqFCpZfVjJ7cO3Cs+pqnXcRYbIvwhkxRECP2Ox62Ts9ZWSMOiltBkxTWobxXvwcAIekPTn5hB4vJxzesHxsRg0ETJPfr+DFkl/BXxhX7muzV4AxDSt0P8sNLAeeqXplKa8t35SS78gtsjaOOUuOdeXG8NcJavsaAPeUG7sPj1ZZfTXNeuPxZV/KUr1qKGh9nTH3lh08jwCJ6FGhfP1FuSqSnyk1dbXOuUT4eKbzd6F5L1j9kXXxfgrfhaiI7+o0o/NEDSCrMgyZcNyOondqfdO4lZlMVucojwFVwMrBnsybR9xPX7ZeJnJcdOHQPBGwpEd1YSHSNXcNxn0PkD1FXrZd2L5FhPnntFLb70L02Y6VkhkrUkvak0gBKUEXwrCxUbWwJNdS7EgYGNpLRqoiVkLRKoLaRJFT6eD02pq6iMVrkc69vJT2G6HdNdSrAPWffeIRFz27gxOliiuhR6GPup+J+OqnXhic0ZdW2W4eFaiXAYvRuRAA2XSJFOhS6wr9/Srd+ckA4+LaHhE9VYsbj5DS4DK6zIYWGyI3PaPJiScJAtAJS+x6qTCvoq7q6pX8HtoyOwBWp2hYt5e8uzc4xm1NcXzOhpmNLY8icH9ltaDUWY3nvKNeWD5OEjqZXL40W06zFBAPY7JAnoEiwGMj7K9cMB+UWyjaYnTdCQBX5Rm1OTcXEbeLVHiIzX7ILzlfPI8WrDO6riZ2UezpMEFEdA96hTszTc1PZzF1bO4YUAWsHHE9808/7qUpLV4FHA4PWzKPBCxJxDrqhEKae+WgYF/FHLGX+jISnR8u7xSfuqmNC6U2bkRWLOgoAUv6rSU9ESo8gCtwm6WSShhXRJIpCkvyV9aC7qkLWKOqCmjmxQN3uWdOTw/B8wt3iOs+94SlEoYF6RG8x5VUTFywAD2pn3Z1JCsGzLXOV5HwFBb4oggnL27S/ZsFtorJngGpy11nZ9d6ANidwWoekROPyKbOylkTPz5Y4KUUR/Q3kJDxIoL7bA6d4jqImWudE5CwCQCKUnWXiCbaHPrmVMfnYtwMw5rRIoprWK5FgLfZ7JX/YLXGjGr33iIv/gcQx7BaI/9wSfpF1VJv10sdGBV5WYzOJQBoUqRxCjOKAP+7lf+5Op+K9Oeawrpa5yIirMv1uiHr9QDB616vcE1Dc2YRzf1ou7p0Cgzscl8mU+CE2ZDZ0zddQhq4L2yBPBOweB7pjqfKsXyo7J+NZeNdovSf52+C9e6ePsx4KYWhq/amGIZEYPW+lkSEknBC7qbeVMLe1zMUscJEr4jbNWmKX8C5KFEsddEpqvB4TIEtOR7HIV14/SD6w0H8LhV9FTxeXV0EN1y1lUQRwsTfPubQw3EwacFzFe/KdiOoQBkzYKl1vQ0Ex2UMkGCiKODYxSvU4qEsuM0F5sknryoZ0Ml/jQjhP0bJs7hXFPCobM+HxeD6ApBBty+CVqtDN0weV+VDsRhcLYCgTwsR6f+sjfrb05rDeLDZ4HwcEecyW4bA4+3YMbjhgwlMOt+aDKsG86j5CgCHMvMhf4FJQLF6SWPV20pzIdCB0A4Ak5Rmm1LtEUTRuKSpilXNMKW6nbJdFqPrEwAYlfIEeQf+2O7xVr2eYTMUeU1R0VgxoApYrJiNgSt1YxnI7fEGaaCvgG+eCViSW8P34uiau8px4GDlahGffthND1y2BUQhREryRVaFqkwRmxQqYMU8FxFRUNKYBFFVGUdhheJGphEmWbPX7ETpgD6MOKJTrCdCUqEsgYAlLcUBTDlzgGg8tbivDlQO7zulLPVqQye9taLLT1YMnjnAt4QC4eSFC4epBUL7edMsRucqABzLwgzCnn1tjUf+yAJbxWTPgOmwtQX8Xp5vGdUo8hJoxtvso1dl40md0fU0AZyTDUa8uYR4tK2x8kMW2Jlg1tW65xDRk2nPJXjH6tApprh4Xe2asUT0HgBF10pN27mYE7xEdKrNoWdSl8YESzS88eClAHSiPObufCgI8C3HeY9hmb6ZCWv+FNzyjwDSFIEzWWwnmZNvXSZzSbuvjh+/9Vtg8yNPXFcI4GEE8cV6u/5tZFjfL5dcqmvFZ0AVsHJ8Os45Y+PJUICvIQYUhDwUsCTLZ/19IB1jLFLs+fH0EDx1UxuscnT17XCQa8mB0IisqOLugTcj614FVYcUUwHDgr58cxIIYIkEp0gRK5X1Y4kk8aK5kopdETdJmlFYpYORrr6zHAaXcYo9L7l4DPy2QYAH72kX27eLXCwBSyJH5Ojihc8NfSgX9qhrxGeA5a+Hv3q2FDc3Twx5MKk7kU8MBL7sfQcAezGw20uIx2YrEFlqnacC4SsM7JMeXTfU23U3s8BOF9NkWqLRtI10YSa/9COIWqFwt+eaDpUKv/frFajh1cS4W99H3rIh1Q0N+zCJvjIbXY8iALPaXf26QTIuTgCNgzZ7/7Rg9TjFlAuYO3aVtr2C/5IA9pfR1Z0cCru95FFkHb3+Jn7WlJZh3V7N5wTEotFJAgGLtnIIF3hE4Z0Gx7gf+psHdX22DOzSXyjZUhsbnYBwzrTNrxMPJ/lG5KGAJZldVs7RrU9UYFGxco/Qts0i3HhWK23bHCjo3st1hM1R6YUxBKxeMSswNxURKd2C7pGiU9w1kqfs9Z6+VDCSiV3J3g+Kc8FFQ83jAM6YWSqecGKRcsP1cvgg+OiDHlr0TDv6jmJoFFyfDd98/VPFwc3NqNhW9Tmkq9+WMhud6xHwIPkNIMFq1+d/O3H5ickbRH8ElvdbAGDRJc6LHBxTv1wnRUNkfJlMpOHb3FKB8gEZg8SbiPCmtVE3RXbcDADNxpbrEbibMpjqmyKCePlie9W9mc6Xa95Zk1cfJIiazwGA2bPBy/EjGpaPYtIoxGJwXgKIdwNAf9WWkFpHf0ZAD4MH30QQ2iP3BjUFgwTynIgazV8Q4PDYcdBy7WhCHBGAm2S1j3krJ6ulsMhFU9YXtno7Nkgf7VMYrg4JMEAIl9kadeFlYVR2oK5mzQGgEV1EMLCf6GgnoudtDv0FarfIftqBHCyrXPUhB8731xLnnbHpcG8BvAUIQ/JVwJLsnnx6CZnmlAZjyfqLzrjrSiLBi49sg+UvdAQirkKVqpCjn0jAktClocExqaTehUJHCUhpCGDBtUP/3+dtBEbK0VuRKY8RE+OJXUGGE70fR8Q66FCtePGNgzm+vz7WKuxUdnYS/PPWbeLvG4SQgu7h+0Ac3Ly9s2J+QwMKCjN/lzHHYnT/AED7MHC4y2rXFTPAVSFzxMA51SuLurVl3wDgHgyW9CJyR9c3jlmdLbbZ6HoIAS7MFifG/N+tdh2LAvZpmWr+o3M/TsBP/1fysiStieGD3/3Vs2Vic/PEfvvBwHee+LLVLDv2EcHDNofuoix4ijvVbGwZh8BJKaW5/JGKgOBhAvpE6KZXG96p2piub6fVfDikELWnIEo/VOCl6TQASHet6PG0CQUaW7+i6vvssbJHCHRWbc3xHiYzXNrjZkR8TUSBgLgfiYQvPN3UpvH2dBcOKqzoEbndeYA9RaQ9gLg9EWAmALB4LsexlT4auFk4VknRdMlIzcX7Z01uqRRE3zOBVTp0qm5sJaBHBm0WblT3KFXK8mecKmD1y14RnnN66w1YyN0YlssWKaQk+u/IFLigwhL1esDBkNcx+O/e16Qfr0KIiPVv6bWw1wkKCwFuf2ooDK7I5eeW9Dass12EeTM20uYNYkTeYODoxyruHovL4LKhQk26UVgSRlAAS2Wub3yIv73/TkMESyRuhdoTuVay/4715IjgRnL17zcOFg8erVXuAUnvOMky+hO3R3zqX9u5nmACQaT458skpKOfWDT0Y1kWVEHSZsBidP7CSKBot9p1/fWrZNo8qBOiGZh78qqS7d3810DyF3EnIC8HcES9Xe/KlnuLwXUsIEhd9mT/+QBFmFTfpFuZrY3ZzLcYnP8ExCuzwQCAX7wcP7ph+ajNWeJkPN1scNYh4qKMAZJMRIAdguAds3jFuK/lXuPsWvcAjyiuRMQj5MaOjUffE6DNZtddI/d6lhrXZcD5UiClyFvm340I4DGbXXe+3H5kghd4VryTyVyZ50iFatciiDZP2fo7Gxqmpf0j3nTDmlM4FKUU59Ey2xYL7het2D3muaaj+j0NOQe+pryEebL7OCRqBsqpqJ3IvvWi4DWLQ75xZ3KmUnZcHZhTBpg/pHPqTR4t9jfT76WdyK0CTUinoDwTsCS6DxyhpWvvL1dsFJZk48eOTlhwXRtQaLpm8PNJPAErVo0sCSxUREoakRQ4kFGphBkKUFFiVGiuXsThT9k2dlFYR1UXiX++qJTjZP/6lEc3egxTRRGg/tkOeu+t7rCOhOGF9fHVp56vOC2/Pc1f681G508IyKLGkRqBlb/Hwme5v9Mavw4AdmPgiocjbuwixxipg1NWl6Xmk92BE74EgMFZAcWe/LrVrpvKADclSLPhUz1iz4cAqE1pQrxBiKLohSOy7fqYjQ0Wo6uFZfFsAppls+ufycbGOHPRbHQ9gQBzGGBHQRIJlwlQtrDBcaCUGsvkMlWvLOX4wWdzyP2LyQLhoN2EmhG2xtH93tDDXOO+GDl6IAc+x12CgL4i5E4TB2vWNTSMCmkhnr5VUsMsbqu3liN4GQCye0YkXr6HNHSw7U29VBNRvQIM1NU6ZxDhC8oihAQEfKTervu7suxSrcmUAVXAypQ5GebNOnPjuaDFJ3qh8lDAkmy/eN5gqDyqvyNF429ITzfB/LNb6bfvPX3nPRhRFizoHnzHV5soRkRalCCUnggV3pFQsjWioHvKglOIn/HSGQPwYYwkxE9RCIvEjRmF5X+xeADCtXeXwe57MivpIcMd2H8QP/0g0G3z21CUEldiny0BQDzlqReGMekY1X+e58fKFqNLqnG0HwNraeSESn7+fBQZYKuQOWDg7Fr3bl6Cz4BJgVryiCRWLnaMleohZX1ZjK5GADBmDRQN0I6d3L71747ZwgA7KaTZ4HodEf6UdGAKA4joCZtDPzeFobIPMde0XIwcx1I4+NRbtuOIhoYJshdun25YfTSHGjsAlMpOTCgg0QfEwRW2Rv37TNcJATcZnToe8DEAOIrlmgS4bINnzNT+rnlpNjqfRkAmXUtT4K8bCS+td1Q+msLYtIaYa9zHIQevsHlW+03hRDAvatItTsuwnXyw2ei6CQGuV6ibH3k9Pac0NB8p1XxTrzxmQBWw+nHzZkxZP6igtHw58HC0z4w8FbD22ldL1z9YhtoC5R6nn77y0B3ntWJXhxShHOA6WEg7tNugbw8iNqK3/lXIYUmzFpa0ZriIlYYAJi0bL5UwnjCVNHUwBV8i103jv2umlsC0OaVx6pT3402noKVfXrIDlv+n01cGL6qeu/8Fl6ak+5gFC/bcoSCzdwlTLEaXFGEzgoWzXvKWNTjGMYsiYGGzitnHwIwp7r1FL0kRUgwKHmM3acRD5PpF32JsOQGAk9II5b48BJoJNvvoVXIDJ8M7ddKqA4s1vgg4mVLTyeMt05ZmG/WRzO7I902T11bw5HUDwd7pzk1xvACCcJp1xdjXUxyf8rBA3a5fAZHBPdBrhlQD6a1C7+ApzzTvn/Ourf7OfJrXCJBlw4IOThSPXNRU9VnK5DMYaDY43Yg4hgF0YkikNb/2tI1lWYNuutFp4gCXMPTtXqtddzlD/LyDrjO4bIQwXcmGowBH1a/IrlmKkv3bFWxTruKwK7APAHOm/n6QOICTQsgH5quAJR2iqXUDaOpZAxR9nl64cys1v9QRHoXlE7NCxCRfZFZA5JLOYKSoGJzt+/80RKhUOhKGQPqOf0riVIJIrkQYUe+lkUqYRBzbaz+e/u/ecixQsKCphMdL+3YRbrlhK21qleqzRYtYCOglEq99qn6Y1N1JvXLIgMXo/BQAD2OxJMfjPouWVf7EAlvFZM/A9EmfHKjhRScRMahlhl0gdu5nbTr6N3k8IbQY3d+wiCYk4C602cc8Io+dqaFINZe8RJI/sqZv9kdNr0Da1v3s6i2h1WqvrEuN2fRGTTc6z+UgJHsgvekpjZaKLwtl6//enzVrTOPfL9aUlkjNEBimSdKLVrvelBIpDAaZTEs0mraRXciwA2YssxHgmR0euvTVZn0bA7d6IefNI27d++6l/6sm4u/8LvtFdqtdXys7bB4DWowuJwDoFO5CG3B4rnV55UsKt1M1Lw4DihYcdoVdm1dN/Pe7tTagBk/NVwFLsrtiGAfXP1gBg8pk+lGUweZv/NkLt81uhe1bAtk70Xl9/lXDamVFGBImYEnvySxipSRaJegmmFbkVYhvkSFAmeIA0syLS+G42mL12ZLkDEvH7L/vdcPCxwMdv2McJQDoEsl7+NP1w6UvbeqVIwbMta7VSFDFYjmvKB7e0M+/uLPwa1fBtNSsHgMc/yEAFTHwuZPju4YvWnb0NrmwzUbXcwhwtlx4QRwiaLY5dBPlxk2EZ6lx/xk4kr2e0//qY95oc+jn58oXc+1H+yAVSFFkLM6Qzw2RE3WLl1e55fZJqgGnQd6JAPvLjR3Ak8qVPn3wMa+cN3/+/H5PtfbVvOO0y4BoPCN/QRTh4MVNOuk85Pw6rda9WxGRTIJ5KuYjAdHTPIcXP99Y2ZHKjGzHSFGzJMBnbH50oF+sdj2LepnZut0v8+fBPG6d8TTp79eAfjEgvUW3cCLMXNSk+3d609TRSmBA/ZKpgF2Yc9KGUTSAbyQuov2rwrsQ9lIXsPOkaSV02jmlii7obre205L7t6FPowrjNxAi5YvIilnZve+kJIvCkkZGCV3+6cFgr7Bi8KHjU/132LgM62lFrZUgCiuRXSHv7X+wVrzi1jKusEh9tKTyaJGO2l23baN1X3jCC7qHa5S3PrVo6HWp4Klj5GHAYnCtAAQmX85FwvGLHZX/lcdSFSXXDFhq1owHTpQ6drFoT9Hxq2dLmZwpNXU1zhnEsSmoqxULhz7XdGhOOnBJKV3bK7TfAJD8KXcEK60O3aRcnSWzwXkvIl7Kbj36p9Wuv1p+fEKLYc3DgPQ3+bEDiAgfeQfzx+U6pTOxP75Ixq8A4AAWfhPhjTZHZc4E1FAfTDUth/Ec9ykLv2Jj0pNWu/683K0HUF29kt9TW95MAMfIvS4RCTaHXi32GiA20Dwkr+pLEYfH25ZXKqELp9zHc6fGU79lKmR755yx6VJRS/eGmZNnApaUMvb3+YPhEF2BQliNNmNrqwC3zdlEm37xRqs1vXynKGD1Cjc5isKKKyKlsX4kRiIRK80oLKlw+5V3lMG+B7Bs+qLYo5WxYWvX9MD9/9zunx/jicwBtiInnvnE88PeyngRdWJaDFgMrlcA4dS0JqU++GyrXaewDj2pG7+rj5xucJ7CIb7KiIe1VrtO1vbvdceuKadisVW+mlF9nhPBHJtDt5ARF2GwZoPrXkRgJPpgV0dx4W5Llx4SeBCz8+jUamdZkRa+Q0AW3SElw9e38b+MXrbsxG65vTit5sMhRVi4FhCGy43twyNa79XSMQ3LqjYywc8C1Gx0nYbg62rH4MJVVnvlEQyAk0LW1a45nkjM0WcLWur1aGc0NI8KhJ0nNU+2AZbaNQ8CiRfJBhgC5C3jC5UluLLwMjVMKe1WO6Dk+NDRpEFEETlC2k8UhUkccpOZN39IzdzgqJ8JxCNt9qpf0pumju5PBlQBqz/ZD1nbcvIvQ4tLtJ8T4tDel/NMwJIimvTjC+Fv1w8GTrmZhLCupYfuvXATeD298VCBaKzg7RBDwAot9C5tULJUwiSpgBkXdI8rKvV/Lawjji8Uz7tqMKfkvVfI7R5mhiAQ1D+3Q3yrqct/18R8KtNH23u6qhsa9pG9m5QSOelvmyxG5zMA+GcmdhDcYXXormWCrYIyZ8BiaLkGkLudxUJIVF/v0M+QG9tidNYDoEVuXABqsNr10+THDUecWfP5EA/XLUWJ7M5sLZEusDbp/8UMH/yRIHvw5Q0MxXEQSfzbYkeV7B3dJF7qapxzicPHWXGEQCfV2/VvsMLPFtdsdD3JqB4WiR4cs7i5cm22NqY7v87gOp0QmNcBIqBvUeTHW5tG5zBdsY+NabWrT9aQRqqFJfvF8QMGL1o2Qra0b9kNVCAgAeG0yR+Ua6jkzxyBXgTYEwFOgBzXYgtSQwBuLeIxuUprVeCW5J1JqoCloC2bfdKGqVTKvwgI/hCWPBSwJLMvmT8YRh9VqCBmo0158JJNtOa97r7z7+M6hoAVFK4iOxFGCVRpREGFFnTvXTa9+b0ehdmRIAUwUTRV1HshL6QYhVVcgnDTYxVQPpRFVo2ij5IsxnV0iHDdlVth+zYxjoAFAgnC8U/bds9ZK3FZHMtTEEut+z4guoSR+a9b7bqpjLBVWMYMmA3OxYjIRLQhEK+x2avulNsFk2HVsTzyb8tfMBw/t9rHHA6AScKWs/PIYnRZAcCcHUqy2eS22nV6lr5Mr3WP4og+AoDiZNZk8j4RvGNz6MKiHzLBiTXHZFpboGnz7EBAJn/kCchqs+uZFJ2Xi4Pphk8ORRSk+l+yf8AlxNdsjZWson7jUjDd0HI+hxxT4Vb6NuP1eg5tWHnEl3LtRbo40w2rD+VQw6TbIxZwFfX/GbMlXZvU8ZEMEJoM7mN4oFeQ4yqIKKehECiKN9Q3Vd2s7kt+MKAKWArap3nz5nE/fn7hf4jDP/rMylMBa/c9NfCPB8phwMCcPnvS2sn1rh6694JN4Okmf+2hsJCoEOLjdSEM1btCRahUhaKoroRpCFiha4etJ1cUVoRzKYhYpjml9MczS9TnSVqnsG+wVAtrSf0OsfGNzgRRWPAlFRQe9/TTAxWXXpGh24qdZql1XgmE/2RiINEab7muqqEBBSb4KihTBixGl1RseQSTRZBqrY16u9zYphPXDuc93jUAMExmbI+3S9yr4R12KV8zjM5jRMB3ZbY7FtzGQi0/5pk3RjGr31JncL9KSKew8YUEAeCEJXb9eyzwLcbVZwFonmeBDQA/d3poFOuOdNnbTmg2OK2I3PTsscIRCGCzQN4DGhzjtsqNnQjPYnDdDgjXsFzzf32eHrTZdX9nuUYy7EAUp5RKLfvVsaN90NL3jmWefiy74YoFJKyb7D5CFMmAADcBI9E8hvtERJNsDn2zYqlRDetlQP3CqbDDcO7Jm44WSkgqIFycrwKW1NDO/JdSqDmlBCKb2ymJ7iUPbBXtL3RwPo0qKFSFRlyFCVshlsdKD/S9FiNyKUEqYXQTxAyLsacqYsWzJehavGiuJAJW2RAO5j9aAaWDlCtYtv4ugFRYfqCCbdy2leju27fBzz8G6rPFejoT3rCwfoj6CxHjB0ndZPdMEulZJssQfe31anX9UQeEiT+7EKipemUpry2XUkVYfHYSvJ4tZQ3NE2WvD+NvJe96BwAnyL9d4jyrveom+XH9iOZa56tIyEj0CbWaBEI43taoZxLlOqO2ZYpIHMP0OPF1q72KWWSnxej+DwCdyGaf8R6rvfIKNtjyovq69onid4AodxRdt8iJR7HoHJmIgRxEN271enoOaWg+kpkwnMoOExHW1bqlH41kf3YXegYXP9O8f1cqdqhj0mPAfPxH+2Bh4WMAJDXVkfuei2XMCqtdV5Oelero/mBA9hu5P5zY2dacdUbrQ6CFC/NVwJL2g9cA3bZwCA7ZnUm0uSxbvnWTADfN2AhbW0M6NcdLhAitgZVAlOr925hwTMD8qCisgAiWytwIvSzsT3KoaphC9FQvmammI4asreEBLr+tXDx4jFa56hUAPHTHVhIFgIv/b7Ciu2Q6V/XQw/duD+9IGC5Qbt7eU/GHhgaU/UuuLDfVTgJiqXWfDERM6mUQwQZBK45RYqHinWT7mLlhrnEfhxxJqXgsrl+tdt2eLIAlzLraFjMRJ6XiyXsRtVsdukEsUu+mTXKfrNHQayy+dMYigUB80GavYhIpYjG6mgCASadD6ZmywbtlHzm7V4byU129smgPbVk7o0iILb96KndrbkavvAeTHZrZ6HwDAafIvQKhOMfWWJWTpghB2y217veBaIuqmJEAACAASURBVLzcvgTxCPHvtsbKB1nhp4NrNrhEjOr3nA5C7LEjPZXa+Xl0frP3ONcIhHVG10EE6M6BiEUAwkyrfazaaCfX25zmeqqAlSZhuRg+5/QtfxB5oQUQKsLWCxVXov4deCHhGD9ab7WK0K57yeZJ74eNiZFmF4Fx/B+L4M+XDsoFZZmtQQDLnmsXXnlkm0YMalhBPyPvjKQ1sAImxBOP4ohSIWXkA9qXklIJI0iI4YN+fCH97brByClXp4SP3++GBfdvB8ELcNn1g2CUXrldMru7CW6bt41++sEb/TEryD/Bom9++eQcVl9WMruZdq5ZjNOWujWcMOqF5WOltuzqlUcMmA2uSxEhvFuwbPaz7UQ2ZcobhWXePX9kkEYIIgmHLXaM/Vw2KgDAVL22VKP1fISAh8qJmwRrcxv/y55yd/CbVtNi0HD4JiMBSOred53Vob+VFU9mg/sKRLqLBT6JcIOtSZdXUcUWg/MSQLxPdj4IllsdOn8JkRxdFqPzFwDcg9Fyv4HYVWltOrpfCreH+jR37Crt9gq+h4GfXVa7LheRQQxMzy9I0yTXXjxH/wJEZpGmAUa+4/iuykXLjlYL8yv4iKgCliI3h3D21Na/UDFKhRX79ijPBCytFuna+8vwDwf5a9Ir8RI8BLfPaqXvPvf01cIKjbZKuYh7wLvQVMJUIqmYRGFFiGCZRmFJLiWI5tIWIv3f/RW07wEaxUZfeb0Ed/xjK3yz3v/j7kEH83T1LWWoUbDg9v33gnjn/DauWwpIj/WE5mCHxovGJ2xDmKS6KPE+zbVNZ01efZAgatazWpeIZtgc+npW+CouGwYsBuezgDiTDTq8YrXrTmeE7YNl1Y2QRDDbmnSL5bTdYnBNAwRZMVOxj4gmylkDRRLieK33BwAoT2X9dMcQ0HeDNgsjF6we50l3birjx45dpR1RrnEjshESOeLGLHKM+SQVW5Qyxlzt3A8LuK9B5iLTCLCjdLO3jNVeRvJnGv9+MV9asoMVr0RUb2PQVTUTe02T11bwondTJnMTzSGAn2123d5y46p4sRkwmZZo+C0jnwUE2bv1hqwoANIUFvUo1X2VjwFVwJKPS1mRpJu0FCd+AIhH9ALnmYAl2T18Lw3c+FgFaAuUe9Q+/6hbvOf8TX0iTLAoliTepFXEPVRwSCAixRCUwuth9WMUVpRt8aOwpkwroTNmlyo6Je+jd7tpwf3bMRhhJ23p2X8pheraIlnvV7nBrM91kOPNLj/5sW4dhLULFw0dLfe6Kp6fgbNr3QO8RCzTNG1Wu86i8p1fDFiMrg8B4EgmVhPdanXor2OCHQC1GFyzAIFBihI9abXrz5PL9rNr3bsJAN8SUYlcmCnjEN5qdVTKtg/Ta1rMHMdJYjWLD0FeQYTaJU26lSn7l+ZAk2HVvjyndQERCwHuk5ETXtHNnz8/pI5Dmgb203CL0b0KgMbKvrwoVFqbxkoNF5hflprVY4DTSGlZTC4UxP3qV1R9zwQ8TdCza937e4m+SXNa0uGE4LY16nRJB6oDZGNA6ojKb/EsBER2IhbS29ZG/QmyGa0Cyc4Aiz+oshu5qwLOPuO3M0jDLwYkf7xIHgpYUmzOnKsG01ETCxV71qTWPY9csUlc83Y318dxZM5gyCkMehIvskmuKCxpyRSjuHqtS7WOVaKorEQiVuC94gFI1z9UAbvvpVHsvv76kxduu3YbdbSLYel4uw3X0PX/HIwDShUbOAZbNotw/VVt1Lkj0CUz+iFIiHjuU4uGMPgyuqs+ccP9rjO6viGA/RmxseVXz5bd1DRQRuwygK2uXsnvoS2XWqWXMoAHkejUxQ69VO+J2VU36bM/kKbnO9kXINhgdbyyF4A8QoTZ6LwNAa+V3c5UAAlWWh06WWpVzZ76xcCuzi43u+cIvlXo2fzHZ5onMisgPX1SyxROw/2HhQAniDCJpfiWynZnOsZS474WOLot0/nx5hHQLJtd/4zcuLHw6oxrTATiEhZrEcB/bXYds9pa6dpsrnUfhUT/TXdesvEI0FRv1xmSjVPfl5cBy8lfDoWuHW8DwxRzIqiyOXROeS1X0eRiQLFfPuVyMJ9xCAjnnLnlGdKI/pSFPBSwJJsHDubolqcqUMld6rZuFOm6M3+Dzu3BqlQRAlZoWqG0F7FErCixKfVIquhaWIFFUhGwQu0J+3eCroZx5wTumARCmFTvynL+QGHS1GLFJuIRAby8aAe88dKOvtsmxKeTTSVwyvQS4JSrYYFjeZdoe66Dk3yJ+ds9wVoP7z36+eeHd+Tzc06ptltqnc8CMUsXA+BglHW57lOl+q/aFc6A2dgyFYFjJTARgbi3zV71C2veLQaX1OVY6ugk6yWgeMKSxqqsC9yfU+0s69aiFLXRXwU029v4AUOXLRvRnS1BFqNrPgDckC1OrPkEtKNALNr3uaZDZU+LCl3PbHQ9hAAXMvDhp5ETKv8wfz7mXfSVxEXdJNeRpIEPQHqSy3ghwIP1dh2TRgKRZloM7n8A0i0ymh8KNc9q1zHrTpquzXWGNacQiq+mOy/ZeAR4vt6uY5VWnmz5Xfp9k2HVYC2n/ZGIBjIhguguq0N/FRNsFTRrBlQBK2sK2QKce1rroYIWPgSEgfkqYEkMnWQuodNnlyr2vEkpZi8+sI0an28P2JiigCU5F0tkSiUKK3Ru6Kq9eBECVLy1Er0uGRdPBEs4L9KvPpD9RvB03cMVik4d3PCzQPMvb4Oebr806NvNEB54HuC6O8to3/15xZ7JbVtFuPn6beLmVsH/ATk6Mk4EEB9cuGjoZSw6gLF9sikf3WJwnwFILzKzVKQLrE16qc6heuUBA5Za1wog+YWfgOufWu26UbmgwVLjNAKHjbKvRfQvq0N/QTa482Aet85wqgMQZRfY0rGLQJhls4/NKgomELEnpSztk87aqY4lxLttjZVXpjo+03Fmo+sbZBOJutxq10md/OL1fs7U5JzMmz7lkwM5j+D0fTaX9cI3rPbKk2SFjANmNrqek6oqMFlLFKZYm8a+yQQ7A1BLrfNvQPhIBlMTTiGg22x2/T/kxlXxUmOgzuC6mRBkS/mOWPVdq113XGqWqKNyzYBiv7zlmgilrjdvHnE/fN76OADOSVzQXXldCH2cBswqG8LR/MeVHYXVvYPgphkbxd++93K9hkcqH3HFqpATFBadlXoUliRQhNfCkjATCFCppgEmKMSesrjlMwWB1wKcc9kgGl9TpNhnh6eH4IFbtsHnn/TVtI3mFWBCdRHNvrAUlRyF9eXnXuHeO7ZxXk/sVEIC6hCJO+pZ6xA1kkfmh3ig6OsGAGDThQLhJWuj7kyZzVbhGDBgqv5oOK8t/BaAmBTPI4CbbXYdk0idSDos1auGgpaXnhe7yUsVrvaWaSY0NIzKuNOX2fjJOARBiuLq565etHrkBN2R2UQHWYwt9wBwl8nLcS/a7wSinnXE3owp7r1FL0mdK2W/iKAZEV6XHTh3gKUAeCUAyZpSTEQf2xx6NnX2Qrjxi8WnNQMCky/oXYi7v9JY+XvutiPxSuZa511IeIXc9iDSX+ob9QvkxlXxUmPA9/esQPsJEA1PbUZao9oHFnl3X/D6OGaNDtKyRh0cxoBiv4Sq+9THQN1JbeVFxZ5m4nBM76tR6YTKFrAkuyuPKhLPv34gp+SC7u++2gHP3LS1T3lLRcAK6Ey9exOVXph6JFV0KmF6AliUDb4X5IvCGl9TLM6+spTjOOU+Or5c66G7520DUQgXfSK3UsMDXTGvDA4+XLlRWNLuPXT3dnK19PgJj037I9s9Q/7e0ICC+tyUj4EpU94oLPPu+RUAsOkwRNTqLdcNV/dNvj1jhWQ2umsQSIpakjVdKGCvKAAdv8Suf4+V/aG4UmTQcG35OwhwtMzrben00AGvNuvbMsE1mUjDb3GvZPWFOk2btnV7ug5/ufnon9Kc5xs+o6blMJHj2PyogCCKIp3Oul6a5IfZ6J6KQKzSZjOhdqefQ0Bf2ez6EawdnTJlfWGZt0OqCSV7AXICWGuz6xTVZMZS634RiM6Qm1cOxRMXNVYtkxtXxUudAbPR9VcEeDT1GWmMJDzT6qh8KY0Z6tAcMaDcb6E5IiBflplt2jSHkJ7stTcPBSwNR3DJbeV0WJVyWxJ2totwx+xW8ef1Hs4nFkg892YTJhCTEtaqSk+EkqUjYZjYkcb6sUSSwPTCIoTrHqmgPfdVruDT0U4w7+9baMsmMabgEyli7bE3T/+4fTCWDFDuo/CLzzz0wF3b/emQMcwkgE4E7ryF9RWL8uV5lg92Sl+oNW3udxl80e97jIuiydZUxS5NMR+IzgMbLQb3fYB0CSNTt6IgVuayW5fF0HIRIPeg3P4Q0Z9sDr1U8Dvty2x0nY0Az6U9kc0EgUScaGuqfCcTeLPR+TACZpVOGX9d+szb3jmu4YMJnZnYls4cs9F1PQIopo5ROrbn71jaZLXrh7K231S9tpQvEKTukgfKvRYRzbc59DfKjZspntTVnW8b0QSAsneVE0lz2GLH6M8ztU2dlz0D02tcIzkOWgBgQPZoEQgEL1kdaqS87LzKAKjcb20yOLczQVw0hQo7Sja1kAYO8/mVhwIWEMFBh2rpynsrUKpBpNTr12+9dOvZG6GrIyCCRApYkuFRUVbJOgamKH5JWxtTDMs2lTDLKCwEmDS1RKy7YCAXmpGotD188+Ud1PBcR5+zEU+4yFRCyZfZF5bSMROVmxIpFXF/899d1GDt8FMf66mN8OHCRUPGq7Ww5D2RFoNrISDMkhc1DO3dkRMqT8gmVYmhbSq0FE0z5b+DRG/xNwA0hBEhawdu9lYtWD2uL+eZ0UJB2Lpj15RTsSilhsn6gZ+A7Da7vjYT8y1Gl/QFRJ/JXEZz7rHadWmnHJlqWg7TcpyL2KQed4mEExc7KmXvphaLQ7PB9TgizGXErwobmwHvwM0flixY/RemzwPT5PcreLFEEl5kTiUG8HJwVMNy3UdK2WCTaW0B3+b9kEG0WZeWtAc/5zj8B6X4uivaMa+a+HXaNS0AxCLqr62N/2X4smUnZt3UY1fcG5Y+qwIWS3Zlxp51elsV8F6pPsSAfBWwJLvNfx0kGM9Udge7f12+WXCu7NSE8RyqHiSMuApsPMtaWJFCRir2hKYSJqqfFQN76O4a4Y7nh2qULF7t6CC4fFYr9PRWYIkhGsYs6I7iXY+Xc4PLWWQHyfMQ2LaVaN41bbB1q+iLwor14Cbi6p62VtjytSiuPEzJi2Ixui0AVC8vaigabSMNVNre1H/Hbg35kOuMzhEiwinyIcZCQmFDz5ZHm5sndrFdJzX06bXOuRzh46mNTn8UCsJF9SvGPpz+zOxmmA3OVxFR/r0s8g6zvj6uNR3rpte0XMZx3D3pzGE9lhA22Bor90znRwGpZumX77lWIMof6eHzl+gJq0OfM0HJYnS+BoBTWXOt4ocz4PXiIQ0rK79kyYul5pPdgfN+C4Dy1ptD3A49ngOszek9A1j6ahr/frG2tORTkr8ZwWavp+fwhuYjpVqZ6tWPDEwzui7XANwttwkIsMMjwMiGFbqf5cZW8bJjQBWwsuMvp7PnziWtp3VTPfBwZj4LWEN35+CWp4eCkmth/bTeQ/eevwm2tQrh90hQwYknAMUVkkLeSEVsiironkUaYO96mUdhnXXxIHHi1GLFKjxSF8nH7tomrn6/25/66bvicB5DxDKcVEx1cxScRwgAy//dSUusO1CKyAq6FnGUtggFmqpnninPCzEkpw/PDBcLFLzemOH0VKYRIV5ia6yUPZ0rlcXTHeOrC+YZfiMgd026c9Mcv65Qy5/wzBuj+vWLwbx587h1753mAGTWfbCjY0f7HkvfO3Z7mvxkPbyu1j2HKKQsQdaIAQARp1ibKlPuPmYyrNqX5/i1QHJ3c8veIUI6xtaofz9VJCn6iue4VYyK0JPIa0YsXjb661TtyXacxeiSolaYFxTP1s6dbr5ItdYmvZ2lXzOmtBwmehnUaSP6vrikePTCpYfk/JkWjy9fuqTWK0VJlcvM6U9ebkdlw/IJm2XGVeHSZOCs41btIRTxv6Q5LZXhPSAKR1ibxq5JZbA6JncMqAJW7riWZaWZk37cSzOkeDUA7N4L6MuLUn4RdymFMGim4dRiMl8wCJUc0eNYtB1sd22L3rdYIlaslEJpZrIorKgxfcvFLOieinAWihn57wy6Gu59oFaY968KDaeR5QgzAflmnQfuuWErdHUG7oNIEStWKmHIawUFKN50fxnuNlyj2GeiIBDcdes2WveFN6wWVriIRfc9VT/08nSiBphsyE4Eaja6PmBZBwsAfvV6+JENzaPa84E2qQj4HtrypwHgLLb20mqvgKf05y+fZmPLngjcOrlT7Xp5Q7BbG3UZpdxly/10wyeHcih8li1O5Px0Oypaap23AKEi29ATwJ02uy4lsfac6pVF3dqydwBwnNycAqJIgnCprakqp0K32ej8HgH3ld0fFTAhAwKJZy5xVDEtHD2jxjVd5ECK2Jb1QoIWTzk/PptupLIaBAD+H6I0GwBQ7k+x63jEqucbKzvktlnFS5+BOqP7ewKS+3klElGNzaFvTt8idQZLBhT7ZY2l0/mOPeu03+4CXtNXmyEPBSxpD25+cgjsuZ9yi2Ft2yzA1Sf+Rp6uMCkJIFkUViwBKZGgkiAiK7JmU8KOgvFwouyJH5kUlpuGABoe4Iq7ymHk6ALF3jaiAHDrVW3id195+iLEkkRhRfMKMOJQrXDVTYM1Grk/4sjIXMvHPfTwfdv93kU8vQMv9pAIBz1tG8Kk9bmMruQNlMXYcjkAJ3toeigBRDTX5tA/kS+kSJFJX75/2osIcBpjm9+32nXHMF4jLrzZ4H4VkeRPswuuSHSp1aG/v7/8sxhdkjgnb8czog+sDv2EVHyy1K45BIE+JSK5onu3EIk2RO78VNZPPgbfttorUyr8bK51n4lEDckxMxmBX/AI43L9RdlidEl1X5T7xz8TKvNgjijA7MUrdNKPBMwui7HlNgDuWrkXQIDGertusty42eBZataMB05MOZIyjbWcv3q2HNncPNGbxhx1KCMGWP3YSF7xFNvKqqWMzFZhM2RAFbAyJK4/p838U+temiJcBhgoWJenAlbV+EK64OYyRZ9B19ud8Ojlm0GQ6iqFCURJUgJlSiWMGYUlHb4U0xB7z2kYy6kXhB9vLBbOuXyghtcqd5veerNLfP7R7VxoXwOf32mKWFJjgbmXDhTHjS+U68uU7I8JSax75P52wbm62y+zxd6W1/b9ZciZ85tR/VAlww6YJzknoAalbmTszgXBSqtDN0kGc3MGYan+cigUdC0FovGMF12BBdyZ9f8Zs4XxOmHwlomuw/+Xrr+W5Zpe8v6hwTGu3woAmw3OOkSUuXspebwez76p1IWxGFwvAoJsre0J8B+8AG8KGpKKnGuz3TsC2mqz66W0o6g/L5HYFqPzQwBkkm4nEpyx2KF7OVt/0pk/Zcr6wjJvhyLq0KVj984wVgS6ZLFd/wBLX8wG1+uI8Ce51yCku22N+ivlxs0Gz1Lj/Btw+Eg2GLHn0htWu/4k+XFVxEwYMBtdLyHA6ZnMTTLnr1a7jlkdTAb27hKQyv1WukvQn7mTs0/+rZaKNP/2fUjLUwFLinT5yz/KaOzxhYo+h/f9dRN9+kFXWNpWbxRWpIgQK5UwSmwKvJCiCBUzCiveuim9nlotrIFlCDc/NRQGlrH73p75HeCf6ekmuO2qNvrh2/C0ul5cH8fxI8583Ia8PXQ3jXjjvWVYUqLc5NbfNghw6w3bqL3dX9A9xtUBgGc8XT9kebb8qvMBAt2afmJU18ZHsZRczQlwdP0K5XRuSmXvpaLV695f8yEAyZ82FWoAwSKvl/9rLtMszbXuu5Ao7S50qfAW2POXbXadbOJNquuGjju71j3AS/ADAFVkMj/eHJHo0sVJIsumT1p1IKfhpRRGmSJ8qFUrFh2yHbZBEVfoAoC95fCJRNFka6p6MRGW2eA8DxEXyLFeJAYBvmyzV+b8nEyt+e/uA7iifq1Bx4LPfMAkEG+w2atuZmmr2ej6AQH2kXsNBJhZb9c9LzduNnhmg3MBIp6XDUbsuXiP1V7J7G+E/Pbu3Ih1RteTBDBHbi+J8Eabo3K+3LgqXnYMKFo4yM61nXv2RVPWF24vqWhEjo7PVwFLsnvv/Xn4xyMVUKBgDeun9R648czf/QcqVhRWikJU74kMFVWSzQ28Hy5ipSeAhd0JoVFJ8dYO+HnKnwfQ1Jmlin1GSCXVXny6w7v8tR28r7B55P5E/Xd0+75YqYSnmkvEqdNKFKvaSb6+9tIOcenLnX4bY+4QbcZ22G/h0mGKKaSaz09kS63zWSCcydiH1o4d7Qf0R0HvbPwyGVYN1nL850SwRzY4yeYiiYvrHVXmZOPkeN9X+wq5b4HkEleirPISeY60OY5wymFvphgmE2k0be63EEDuNM0PR06onDB/PoqxbJPa2mvavBtQxqLKKIrG+qYqBwChxeBqAsSJmfISMc9ltev08bDOqXaWdWtR2sf9ZFovDIZAPMJmr5IKw+f0ml7jGslxwLQTXk4dyqfFCO+yOiqvYmWy1JWPLy2R6jbJ/vkOkRtX3zhGqtOrmMtscH6MKH9tOkKYY2vULVSMo7u4IXVG58MEeIHcNBDR3TaHsqIK5fYxH/Fkf3jlIwn5avPsk38/lgrxTQAckG9F3H2c/6/aqxSFdeZ5A6nWVKLcs0gAtru2kmNRe0QUluREBmJSPAErBM7HTwgjvamEkWlxyQSwBJiJ6mmVD9OQJCyWD+UUuy+//SzQzVe0QWeH2GdjLGsTcRajI+HQ3TR0/T8H48BBitWwoKeb4Pqrt9LG34V4UViABBcvtA59KF+fb0qy22T4dF8ePV/JkZYU1y9EEUQ61+pgW/uEBa91RucIApQ6lsnd5SnUXAKkJ72DtReyLBAsiTp8m6seAKex4Mr/t4++5jmuMtc1jWL5Yza4rkMEmaM96BetWDTmuaZDN8Va02J0WwCoXj5+ye1t7xzf8MGETglT3tRIErwC/iFeM4HpNc65HIePsRADAOEha6PuYvl4Sh3JNMl1JK8B6Z5Wr1wzgHCHtVEne32qoBvmPzr3QwG/ZeAWeT38oFxGyibzwWRaouHbRmwHwOJkY9N9XwA6dold/16689TxbBiwGF33AMBlcqMTwMM2u+4iuXFVvOwYUOyX0+zc2nVmzzq19X7g4e/5KmBJO1VQAHDDY0Npjz8otwPcpl+8cMuMjbB9syhTLSzJ89TFr+haWIH5qQhYIUv57ox4gk7gdQ2PdMntZXDY2ALFPh9EEWDhA+3CBys6NVG/IUZaHelvBB+xorAqxxWIF149kNMo90jCu291w8LHAo3rJB+jd+unQg8c/VjD0J93nSciO0/NBtdq/H/2rgQ+qup6n/NmJhsBEhIQrRtWcEMyCXHf0GSCSHGPmYnWP1qkLlVrte5KqfvaulQrWECUTCCtaxXJTJBaxQ3IBKlVcC8iewJJyDLvvfP3vlkyM5l93pu8Cff9fvyY5d5zz/3ufS/zvnfOdxDKtBtBsbxVMHaPXbT0+DDlTzUeOUXzl0z+bF9J7mWlpotTNBWjuzxr3Iml90aK7kl1bFvVqsORjKsJIC9VW1H632h3mB/X0H7cpq2TPjgYTbkbAEDNiiqijFi6uLGkn4bYtGmr8vK7jSxiaVzcTkZvKIJMZ9mbSh2+Zt5KmUwzLV+FMQgJptQ5zf1Sss+ren9UNg35AdXFzufyt2KB8TAtydpo2FRXNVuMhI0q4MdNJI7ALLvD/MfEu8XXo6ay5XgB6YP4Wsffigg21zvNmkbixu+Np+WlFf8tcgs92xPtF0d7EgVjccOy8TvjaMubpAEBW2XznwDxt+oPRc/bHaUapKCq7+neZFG3N6h70yKkMtcZUzcdIeWY1gJ6f3wGSo1GeI2+z/3fMwWWAC/CvWafBX0e8KafvYC2oX0i2K66MA9qrh6aChSa9mVpWyuWdMqL7m/rn7YVriphLGIpMAqLee5rH4l8wRAVWV//iGRNnELvbOAQX8ccZqJbnihEk375K/jvWjc9flcbMiIrbBB8LBIr5PtQLSxWffG2+4bDIWNT1gHWbF92dQE9em8bfPO15JlNGBILAesPGDviYq1u9jWbnA4N2ypbHgYkzcVpZYKnFjsHJuoiVdgvtjSfJAO+l6qdGP1lAnik3mG+Ve1xFOLDWPglIByktu0AexvbjJsOXbr0LFbhTReHtdL1DiJMUtUZggftzv5RJLZK1wOAoOLa0RK7o7Qm1HerpaUBgS5UZU4RUrqsFa4HUYBbVBkjxAghXl/fWPKkFrbjsWmtXDUV0ch0VvmRfgQ0JbhtVc3nAuErak+LCD6sd5q1LuqRkNs1lauPENDAtPbUPRBa7Y1mVbUD1XVw77NmtbieRYArNZj5c3aHWQu7Gri695jkBNYgWOtfTdt6r5wt3AxAXkF376QyiMAaMhThdw8XwsGH6ZcwkESCh6Zvg68/dScfhcWWJoisij8Ki/ULK+geiyzz7fGI7fq+yBsq0DX3DMfDS1TS1dXo/Lr3xjb5m/Xuvhy/aERe0PwDGsYgsUomZsvX3Jwv6LkC4w8bJbj/7l3Q1UURSFBsA4ST5i8qUv8HnEZrq1ez3jS5zzWtRuiZfJtAwqmLnBM+1SsW0fyqtTSfJQM2oLYRTL2yBDcuXm5+Wk2MrFVrrkMSNK3+RQB31zvMKqfspYaCzeL6NQCwNDj1DoLNQ1vFA+esLnf7jF583IfD5GHZnwOgalEahOLx9Y3l/VLdVJ0T0Vd2Z+mhgeBUT1kz0igKLMJslHqg+X670Qdi4YZTGhouklS3HadBa8XqU1AwvBtnc95MTQQILtcyldxqWXMlgvCsmi57bdXbHWabBnaTNmmzDvpx4wAAIABJREFUrDkNQFiRtIFIHYnW2p2lJarb5QaTRsBmaV4AgP+XtIEIHQngyXqH+Xq17XJ7qSHACazU8NNFb6bZkS9t/wgEmBgzkorxJzqMwGJAjhtvghseLoSsHP1uy0+Wdctzb90hsBAA/xEYTRUPmdQv2iq+qoBsvP6phIkRYME++9712TjTOkSu/nW+fsWfAODdZd208C/t6BduZ9MIt2ViRWGF9AuNwmJfT78qXz7VkqNbPBgGf32iQ/7ko57wgu5sayG+adzdc9GcN/bbo4sLVgY7Yat0LQYE7bSRfNgQdIkg7tvgLN+ViXDVVrZcKiPNQYBsLf1Hkv+vzlm2UI0xpk1aVZxvMn4LAEPUsBfBRm+PJI97eXnZdxqOkbDpmslrSgQS1gCBqte6YEFnQmul6zl1q4HRfLuj9PJwE66pahkvEKlGAiNK5XWNExVxalZ9c8PKtfUEVJ0w2LE7yAYZJ73UVPLv2E21a2GrWD0BBEOLdiNwyxERkMXz7E3lr2qFkM3iYhXV7lbdfoSoS9XHScCgtWrNhUhCQwJd4m36ht1hPjvexryd9gjYLC4WMTpVg5EetjvMmkTaauDrXmNSv0zBXrME6kx0xtnbzxdN9PcgKiSDIrAYCkzQ/cq7h0PZKTnqgKKBFXcPwfw7W+njxq4Q8ewA5MORWFGJrcRIqMBl9RA3/avrxUxJ9Hbrg8hj45HFxTBilEED5NQx2bpdplm/aYXODrm/eHncUVgBk48RhTVytIEeeKoQBf1CApt+EOHPD7XD9m0h+mw+yBElIPnK+faRz6uzCnuvldqqNacSCU5Nxdz74H3c7jDfmKloWytarkOBNI1mAoBOSaZrljSVvpAKTkpVriG5rHKd1ukvmmrbJIvBzImrTO2Fhk2AqK5+GdENdmfpn5lfXt2dlSqKnW/CLGF83ZsTmNZVv0MRb9419gsg/HmyuAT1C0gjtFWtPZxIXq1FlCERvLlZbD13xYrTRVX8TtJI7VlrDiK3wAhdfqQZAQHo5EUaioPbKl1/A4SwxG8qUyWQr6p3lKkbyZmKQwBgq2q5Goj+kqKZft2J6Nl6Z+nVatvl9pJHoLbStZo00CkloDvqHaX3J+8Z76kFApzA0gLVgbGJl5239U0QcIp/+AwjsFj02Oj9DXTHMyMwb6iqD4JVXZFNX4n0wKVbsasjIG2LjeDTwlJee4eMOyIrCokVhphRO5VQEBDOvyJfPtM6RAichqrAqWDslRc76c0lezzRVwkRVqHrEQbvQJk339cIcNH/DZGrpuXqGhfH291kf6HT43WYqzoBrc1a/115YDqPCsux15monrQu32QSmwkgKJ1ICyCIgFDGc+zLS97Qwr72NglrLS13EsBdGhN+u5CgJpzIdrxztFU1/x5AeBCItPzDs7HLTUe/uqK0LV6/0tnOWtl8EyI+ouaYRPByvdN8AbNps7QsARUjlgjgoVg6aNaK5mtQQHXSTBE/+LF356mMWLJZXIsBNInE3CK6Ww9tWHG6tzqHmquRmK3pk5oLekwYlhxMzBJvnSgCsgyHLW4yr0+0X7ztay0tbxPQ5Hjbx9tOJrhgsdP8crzt09FOfc09j9cEcGu9w/xQOubAx4gPAZvFtUWLlG6Z5P9brFKkd3wz4a3iQYATWPGglCFtpp+182jMlT4GAE8IUwYSWMztqRcPgfNnqFE8SLuFm3dXq7zy9T3BaVsppRLGiMJiUwkgxWJGYUUizgLtBLw+4OdGuPOvRaBnvadvN4j04C1t4O4NSKTUisQKsXvPE4X0swP0W5Kws0OGm37TCj0+WejwV/b7DhxXdDcXdE/tumC1uM5DgH+oGEkSxSHaJBrJ3LC0bFtqXg9Ub8LaypYXCOESjfH6SVpKPt3uKPtXojO1VjZPRcR0iFXrMvrKhxdLi1u/soURJ2qWm99S5yjZt2Zyc4VBFvxVAhNdozDtN4078ZUDZs+ezcp4RDzOq/ioKEfIZumaKaeFEsBOE+KBIsBxQNSkwhz6mSCg++sdpXdoYTtRm979wKLAVL5PIAkIHiTEjYn6tLe0z3G3Lliw4vRureZrs7iYdttRatuXJPm0JcvLdKWbZqt0vQQIF6s9V0Cabm9MLfI3Xp+qT/hfbnfxFlXPw5yciT0NDThgGnvxzj3edjUVrnGCAF/E2z6BdgSydJa9aeLbCfThTdOAgKonRBr85UNEQYBpYQ3t2foEmYRrlGYZSmDlDxPoofpizMnV7/bs3CXD3RdslXdtk4TgKn4BPqcrldA/ThQtrWhEjwBw7b2FZD4pW7eAs4irp+/ZTa6Pe4J9VIPAYudKjFTCEydl04zrhuoWHzaFVR/20Jy/dKAY+ZZjJ6DxmPl1BV/zC2kqCDAtn5ZVqEGoelivCL4AMpxmbzqaPV3MuIP9XTK0up5BxJkaO/+jLOEvFi8vWRPvONUnrBthzJdcAHRAvH2SaUdA63LcBccsWDFGs5vSZPwK7WO1uN5DgJPUsOWzIcgwTRLoXgRUTfCYAC6td5hfjOXnlCkbsgukjo+BcEKstvF8L8vSNMFgvAaIzoynfSJtCOBLicRyPeneaRTR4EaUTvDpiSWCEW+rDgI2i4tFgQ5Xx1qfFVGWj2poKtNVwRibxcW05E5We64g4xR7U4nmpAa7hhWKnZ8AgLpP9Un+g1r6kapjm4TB2grXXSTAH5PoGqMLI9xxkt1p1rq6svquD3KLur4hG+TYazI9drEbnVvwhVIGPEMJLMa8TTw1B2beOVzXEUHvvbqHFsxq7Z+25cvBizt9MJBACYnEihJJlZKgO9t9Xtvlp+XQlbMLUM+pg66PemjuI+3YHVhtz3cGqUFixSCwmD7bDXcOpyNLTLq+Zj75aDu4Vvd6kAnjKSK82O5eftlAVrfS5MKXZqO1lWuuIhSeSduwBP8QC0tqMvWJ6bRpq/Lyu4z/AATVb/xD1mAbiL2n29859j+x1qZ68roRRln8EADGxmqb6vckY3V9U8nfU7Wjdf9aS8t9BHS7yuOwtThCreqdBPS9wdhz9KKlx++Ox0+bxcU0eViVxZQPBHARACPD1E41FRHonDpH6VspO6miAZvFtRYAjlbRJDMlgiycam+a8IHKdrm5OBCwTVpVDCajJhG93Yj7vNJYsjUON9LWpNbi+pYADlJ7QFkSJy5eXh73w5JUxrdZXF8BwCGp2AjtS0B/qXeU/kZNmwNlS9FwHGFs1iKqEAB6ZcF47OJl43lBi4Fa4Ajj6vpmTGdYZYw7l5+9ZRaZhD9kMoGVlYVw21NFdOA4o273qLuX4OYzt8jtO0KjsNhWiZ+ICtbLSjKVUOkWpm/Ax+E0oxhpdevTRXToeP0SM3s6ZLj9ip3QvjuAkY1C7CknaixSK+j7MCL4vgDGgHaHjDPCbfcVKMUG9Hps+MJND/5xNxJLrAl/5shAeMr8+iImpsyPJBGYNWuWsP6D874Dgv2TNJF4N4JFdqeZpeJl5OH5kWlYCYDlmk6AwC2KvQc2rDh2c7RxrBbXP1GbikVBwxJBc72zZGJA/V9Np5+KcaUaoSy4UrGhdd8euffnLzcdG3cUqfWM5hPRgO9r7Vdq9mmDWLDhCL09WLBVNjsAsTK1ufXrzf48nbnYYW5U2S43FwcCF52x5lSDQUg41ToO02B3lBgAMGpabzx21GozC0hYb1nrBlBf21CUYP+G5eYf1PI16t+qyuY6RLSpORYCNtU5StQ+t9V0MW5b1ZNXH2qUDezvVsqp4v2vVtQliMK4RStKeMpz3CuSnoa6JQfSM/3BOcrMyq+Gi0OGvUIGON0/w8B7f99r/2cUMd3QT4KxtkERXQFv+tkLaBvaJ1xUWAR/Dh1vgt89MgKydZxK+JWrV378yh3Y0xVSFS+ZKCy2WD4iKhoBE/BdqlFY518xlCZb81DP2ldNb3RR3V/bg1mmhAgq71kQsU/AF4HY+k4e72cmExN0z6eKs3J0fd20L+wkx9Lu/pGB/osBOubbi6oG59UvfbOyVbWcAURLASArTaP2EtEd9c7SR9M0nurD/LKqZZQo098B4RTVjQcaJPqsM6/z+NdfP7k93DhaVeEKM9ZW0d1bEotM0xSLhIwT2ipdLkB1Uu4SGjquxvSW3VGaUJl0r5bTBrUjGOJyN55GBO1IgrmuaULcpFw8ZtVoY7O4WJqm6qQ5AVxV7zDrqlqdGnhlgg2rxXUlAjyrtq+EuLa+sUS1NGE1/Ks+/ZPDjEbT52rYCrEhiz8Ycxs+G+8Nd9dghACTNZaW6wUgpZqregftHneiuXAwaKLaKlyXgAAL1dfrU27J2vJ3iqN4AST1dp5alnR9I6bWJPdGO5eft+UEQOEdAshW5p+BBBbjgC757TCadE6ebvep6CaYe2urvNrZFayFxS57Pq/DRQtFIlMiRVJFijjCgKX1t4kS/cX2gvfrkfsZ6d4Xi3RNXu1uleGP1++E1u1yH7nnO6ETJbESJLD8p01Av6wspPufLsARxfoNw9q6RaZ77twFnR0hpKr/Qoi9SPS7efXFqpeW3puutdUnrMw15OctR4Dj0zlvAvpNvaM0Y9euuuqjMUbKXg4AB2uM23fd2HnsK40n+VNa2JoZhw65HwiuBwii/7Vxheg+u7P0Tm2Ma2O1xtJ8vQCo8s2SCr4i9CLCKXXLzKxQTUKHzeJipO+NCXVKV2OSn7I7y65L13CJjFNjcT0kANycSJ/42tLzdkfpFfG15a3URMBW6XoSEK5V06byW0mGBfVN5svUtpuKvZrK5nMExFdTsRG2L+F6u7PkMNXtRjBYU7n6eAEN6qfcEtTYneYl6ZqHFuMoOodixxoAPFIL+0Twdr3TPEUL29xmagjolhhIbVq896RJ7xgPKRj/PglwrIJGBhJYzO39xxjh7ueLdZ22xQTdb5myWe7upNiC7lGIKP+uVYvEijGW7dphVFmtX3JQlgDm/WkXfLDcW1ovlKBjgEWaow/MhEiu+FIJp1XnwXm2PN1eZJjg/ccf9NBzT3VEicKCnW4DjX/ppZE/6nYiGeDYJZNX7SuR8X9AkEZGk0RA4Xp7Y0n6NLhUXourq9flt7VJ/yGgA1U2HWrus3GOV46eDZ5qdTUW16MCwO+0eFLbfx7yu2JB6RmZplvmTSP8CHwPvzReoPjN0xN2R+lv42/f19JW0XImCEq0pN4OWRSMIxuWjd+pN8eYP9bJzbUo4yL1fcP/2R0lWp/76rs9CCzaLGuaAIQzVJ8KwXV2p/kp1e2mYNBmab4ZAB9KwUT4rgRL7E5zjep2IxjUqEIsG23DOMcrh/v+PqZrPmqOU1vVfDERvqSmzUBbiHh9XWPJk1rZ53aTR4ATWMljp/ueM6ZtHiOZDKwCx88ylcBiG/RM6xD5gl8PFfQsMv7q07vpn3PbsT+hEhINxXZNLBIrHgIrxI4/liBSFFZI+zFHmuQbHx+BuUP0i+rmjRLc+9tW6toj9yEWiE0olvG8j9omzFqF0cIaOkygW+4ZhvsdYNTtNUCWAe69a5f87ddiSGSg32WZULYuqBvVoNtJZIhjtirXA0Bwa5rd7SWg2fWO0vvTPK5qw1ktn5YjSP8EgH1UMxrGEAE1HuZ4dcp6y7nPAeCv0kNekSiSVNbgLP9Uy7lpYfuXVS1DJKKvCWCUFvaTsYkAeyRJnLB4eTkTM074qJ60brTRJOqNrJeIxEvrneV1CU8oTR1qKlcfIaBBm6pyslRib5rIROL5kSYEvGLXTCtI9WgVSXSfvOSdY3SlNWezNM8DQPWjwmS63d5U+kCalk0ZxlbZ3KJ2aje7rhIKE+2NE7RIs0wLPDaLixViOU6jwWQC+YB6R9kmjexzsykgwAmsFMDLhK6Xn7tt1k/yhUGC7pghGlgKvgTAtIfu+GsRHHCoSbeQb98k0UOXbZdbN4uGYIIq4BQbiFTCMGMaTQA3Pj4CxpnTJd2T+LIxgfw/3dUGX3zq7t85lHNLKMoqmsB7+LXyBy8GfD3uSCPcOGs4mPSrfQ+rPuqV5zzdLohihFt2otfm1488N/HV4T0CEVB0nYjWAcDI9CMjPy4WlN6caVE+PpysVauOQzI2aSK+GrwYnWkYwzeiiCTdUOec+HT694M6I1qrmh9BwpvUsaaCFYIH7U7zbalYslY2v4OIk1KxoXLfdaLbeELDivEdKttV0RyhzeJqA8BhKhr1mCJ6xO4s1SA9UXVPB43Bi6d8OEwWc1g1NXXTtxHl3M7sgnnvHx5Wc3BgAFT27rsAeLLa48uSfNbi5WVpjei0WVqWAFC12nMBhAftjaldW1X3KU6DVkvzNQio3d9Zgi/sTvPhcbrDm6UZAU5gpRnwdA83c9ruYrehZwMgFPjGzjQCi5FYJ52VS5fdMhz1Gy8EsGFNDzzyq+3Aol9iklixorDYYsUTiRVgJ15B90PHZ0m3PD3CIKQx6SnRfb/63930zP27w6fADVQUln9NAAxGpNvvH4ZjdEyqShLA8890yB+t7AkfhUX0JeZB2bx5I3X0ozPRnaKP9rWWZjMBsrSr9LLCiDJIcrMomSbp+0Y44jphzelrJghG4RMA0O8TigS2GRG8XO8suTATqg5Gmlb1CetGGIeK24BASGDq2jQl+GKcWDJ+9gpkVHzSh5bV15JxSpbp2MVNpWzf6/qwWZqXAKDqN85EsKbeWVKeyeeJrhcujHO2ik/3AUFuASC1o15bxQLj6IaG9Iiax4O7oo0kdXwMpHpBChJNxv0a3hoftcptPD4m0sZa6boTEe5JpE+cbXuMiEe82FjyTZztddGsumLNkUbBsAaAPDrPmhxktztKazUxzY2mjAAnsFKGUN8GLq3YXWTI7/kIBPi5z9NMJLAEA9J1DxTA0cdn63bPMkH3P1+1Q/78kxDCIBYRFSmCKFY/tqAhRFj/aKFgXaeCYgF+/+QIGn2gUbc47umU4b7ftgJLIfQfYTGKEN0Wiku492Gw6zdYyJgKtgGfsUg2gyECjOE+7vdZ+JTFiHP2n8BRrjkhY0gSgRKBFQ4DRmDtgbJ5r3MCK9WreHU1GYxtrr8C4IxUbSXVH+FjkvCm+qYSljKecYfN4mKVzjSpIpRWMAg+MxjEypeWlestXS1hGDROzYjbH5ng2sVOc8pP2aurlxgMreM2IsLouAfXrCG9YHeUTtfMvIqGayzN1QKgBkLPJImEkxqc5vdUdJebioKA9czmg1HEtYAwVE2gCOCbze7WcStWnJ4SyaymT95os2a1q48iQbsbxAManOW71PQ3lq2LKlynGwRgxU9UP4hgcb3TbFXdsEYGZ07blNfevdUBACdqNIRilldL1RLd1G3r9iY29alxCwyBy87ZcRkI8rxANDKRwGL+HzreRLc8XYTCwD8Tjri5Pn2vm5753U5091D4KKy4I6+8Q/hIrGhpcr7vvP8HEy3BJMlZlw6RL5g5VLcIMgHyt+o75ZcXdgb7mCqBxeCMhmHQ9+GJsXCphMoqRbqK6oTECtqsgT6RvHJ+/ciT+RNwdf5WsBtkY9s4lko4QCHn1IuEZ2eJrf9asOL0bnVmlT4rVkvzdAScCwD6FZeLAgcB7EHZcIK96ehBoetjrWx+BHFg0wiJ6KvDTjKPU6fUO6HV4nobAavSt6vDjtQro3vi4sZj2LVC90ftWZ8dRO5elnY2XHVniXYUm/J/9tTSsd5KLaqPwA0GIMCiVgyC0IIqX2NZNJ1UuP7YhoaLAp46Diz01VPWjDSKAtMgVDvabKMR8fAXG0tYWnraDq+Q+3YAKNRgUBkMwsn2tyeoX+lQZWdnwSxhfeW5CwHxYpVNh5pzoySPrVte9p3G43DzSSLACawkgcuEbjOnbSp2G0zvgQCHZaqIu+K3lzlgxNUvbxwunzotV78EjAyw+LFd5HypI0TQPUK0UAj55N9X/T4PqZAXiQhjcPX7zvNBwUiDfM/CYswbpt9EzG2bJbjv+lZo3yXHSTilEIUVlWAKHx0VGoXVb70CLwwDRWAxH2KTaqxk5sy/2Yuez4RrWab4aKtYcwIIwsoB9JeI4CPJsGdqw7ITdVnZLBI2rHLuvsbCmwAhreK4aq0VElxQ5yx5ZbAQwrVVa08lkv+lFj6J2yE3oqGyrnHCu4n3Dd/DWtl8EyI+opa9JO3cZHeYH0uyb9q7VVevyzK2udcB4FgtBieCX9U7zUEPWbUYR02bF1esOVJCvF4qNF2rp7S5WHOssbiqBIBlsdol+j0BNNkdJRYE/+PxRE2o3v7SM1w/cxvgCw20D/9TbBwycSBIV1tVy8NA9HvVwfIY7JRJOmaxc+J/NbKvillrpes5RPoVAGorgkKwyO40s8hwfugUAU5g6XRhUnWLpbTku7fNAUGpwIGDgcBimOQNEeiehUVYMFLba1cq+G/+VqRZF2xBKVQ8O5A3CkdARY3OCkOoRGkfGi0kGBCumDWcjq3I1e05z7TD5j/WLn+wvEtgkVjKEYWo6/suPNkUs3+o/aD3kYmxjCCxoq2y57sOwSCX/u2lUV+mstd53/4IeCOJnku7HlaQK7gDSX7QDdLcdKc6pLgn0FrZ/PBAR/4kOgcCeqDeUXp7ov303J5VLNtdaPwGEX42QH6+l+1utagZTaikUEnCVwA/lbYZgIOAvpTcptJM06uzVjbP+kmA9A+aQEa4WZbdJydbYVITn6IY9VbyY2mPxwLAVkCaPa63bc5sHaXPRXLfVtn8W0D8k9qY6TEFjVXQNAjGdUQqn+tEH/wotp06EOmStZNdx5IMbO9pohdJRJ9IIF3Y4Cz/Xu09kro9Jsrf8iAApKPwgxtk+TR7U5nuI9JSxzVzLej2ZjZzIdWH59PP2nw0Zhs+BIQ8xSM/oxHwfNj/GQV9H9jW/zogEspjL8Bgv6qGAeMFNFP6BL33YhWtKmK/cQEqLxwi267XZxqcD5Y35rRLbzy726C8D4qmSoyI8u8mH/kVLQ0u4Dt/FJb3s0OOzJZuerLQkK1f/grWftIDT969K2hrxZf2l0IUVjwkVgjmCaUSahmFFc73wMtPhKs7OwtRoMfm143U6kmePi6CA+aF8kOrHgAuGjAX+gbeKgty1fDt8mdzVpeHKempAw/7uUBYU+l6UUBk4ql6/43CIt7etDtKzkbUT/SBWqtaa3HdRQB/VMteAnbcZKBx9W+XfptAn7iaWi2ufyOA6pXJ4hicEOmXdY2li+Joq6sm1ZPXjTDK4hbt0ntpVbEx/+SBiGpJBOhZk94xrs8asRSIKgP7EdF2QJoiFWSt1XNEltXieh4BfpXInONqq0KV0LjGSaCR1bL6PATDywl0ibMpvWV3lE6Ns7GqzbxpkSz1eJSqhoOM4WqR8isanD9Pq8ZXtPlcO2VD9jap8+9I8Avt5h1k+QeRxKMy7OFfmqDRzzB6/3GoH6QyyJNZk8j4v4LtfyUh4A/VICKwsnMA7pwzkvYbE0lBe+AWy0dg9fYQPHTpdvr+i97gVEJ2P9YvPTCU5PL6HyEVMGJUUkh735Kzinl3Pl+EB47T5KGNKmAz3J68u43WfhyKV4woLDZ6pMg2n2fRSD+lf8gU/O/DE2MJEVjh7If9LEoUWSQb0T6P+h019xqESYsWFe1WZfG4kX4IeARks/8OgJaBh4ckAFxFAA/VO8yvDLw/sT2oPmFlrnFIXgMgDMiNQmwPfS2oOTc397R5r+upfHz83sdqeXHl2qNllD8GgJxYbdX8nojm1DtLf62mTZ8tq8V1JQI8q4XtaDYR4Z91jSVnZ2qKqc3iWqwhKc/+rC62O0pq9YyPrdL1JAh4DYSP6mH1pz8USLhykXMC017S3WGzNL8PgBoIX+MVdkeJruQIrBbXXagF+U7yU3Zn2XUDtbi2yua/AOLVmo6P9JUgS+ctcpYP+D6uqWoZjyTPQ8DydD3QkoluXuwsHehUc02XeDAY5wTWYFjFkDlMP2dzLRoMLwWd7IOIwGJRXEeWZ9FvHy1Eg86K6QUGpjUv74JnbmwlIAqvhxU1ZdC7qP3IrhAtrFCiIkwU1iln59H0W4aHEGn62fgMsw+Xd8O8R9tJlkOw8rkZM5VwAKKw4oquClnHQNiD+kfxPxwGEe2ErGv/6DESEK3z7EUaVJXSz57SgyeedCVkVQH314M/3rjYDYj4sNvY82bDW8emtQx4ohgwTaz9TIVvEsBAi26HdV0RLhaNp2VaOlgi61BduWq4EU2fAtABifRLpS0B9CAKZnvjhM9TsROpb62l2UyAjJRL7xMdWTjR3qR/keRIuNmqWqYB0etarEmAzcftDvONGo+RjHm0VTY/HSdxIBHIc4GEOfVOM6uCp5NDiQxmuogFqjskYYV9eYkmFfKS9VUrwlWtqqhJz2vSqmIwGr9Wu5JkGH92o0xXb5LaFg9EuiR7iGXKz60hgCcAcFiyeCXcj+CLcSeVHKlO4ZCER+cdEkCAE1gJgJUZTUm47PwdHwLSMWHT9RirFS1lj00yUppfaDqgD5A0pxAy/0zZADc8UgiHlWXrZlkCySvmI9N0emzGNlrfHBJVpJx1UVIJI0UExernQyKA9MrKBbjl2WI4SMfRV7t2yvSHq3bg7rZAljVkWWMSWAGYhrxULCUahRXUJ0okVrwkVqQrbTgSK662AfhEu4qHfIckv98ujzytoQF1Uy1INyewBo6wH2GG/LwfUYsKXin5SxIQvCeaqHpb167WgfiBGtt9wtqTPy2AHPk7Urnse+yxY7RA6DWgePBLy8p/TNmWzg1YK5rno4DT0+emcIvdMeFhrcabNm1VXn634cd03hQRwN/qHeYZWs0pPXaVKo5bEHCkpuMh/EMcXlKjl79RjEgfbRr+FoKQaDStTEAvSj+YZjZ8Nr5XU8ziMF49eeUIo5y3I46mCTdBST5Yb9XabJaWzwDoiIQnE6uDLE2xN018O1YzLb+3WVx2ALBqOUafbdwoSp3HNyw/YVM6oiNZtcXPP1xrFiRYAUhD0zPL9s0FAAAgAElEQVTHgNkC/rbOUfJEusfl4yWOACewEsdMtz1YedHvz7nqejAaHgUAYTATWGwRikcb6Y65I2BYoTDg+ziIvAqQCPvus154+LLt4O6lEEHyCClj/SKuwqXQRSG/GDC+rwWky+8aBsdPzvtJf1Wf25bh9trCTvmfdZ1CID+qeBsXaeWdVyC5F9o33Pt42vjHj0JgxWPHB31cZFeEfRHNRqT5hXyOAB2iBBULG4pZ9AE/0oSAtaLlFBTIObCi7hEny0pNMCF/lmL4cr2j5NV0/EiNBn3NGS1lghGuBKIDPULJWBBSWzVNKxd+GAL6niTpjEwRnU4VLJbCIRClJZUEAb+HLDTXvTmhNVW/o/WvtTQ/TYDXaDmG3zbBd51dHUe//v7J7WkZT8NBaipcvxAEYFFYWv6iYD8F3hEluLRhufkHDacT07QnWk+YC0AsfSmpg10vAGG+NHzDPQ0NFw3YgyNvOvDapCYRvVPPj+7WfD09BPEK7XdqEWWJsvDzuqYJX2uAY9wmbZNbzgSZlsbdIcWGBLAHiRpFwMcanGYmIq/6MQtI2FDZcj0hnA8Ax2untxfV9U3ZbjpqwYrSNtUnyA2qjoCWf4RUd5YbjI7AjPN37C+DvI4Qhistw0VSDZIILB8StuuHQWW1R6d+II8gTfsA3BlxZX9wl/zeK52eqkeBpEhcZJV3VkFt4yOwRu1vpDvnFWGePvXulYn9+L1ID9zQRp3tspBwlFTYqKrwZFMw9iGY+jZOxCityDbDViRMJIKqX1uVCayAuSHCwnax6IqGBhzwp8EDea4OxNgXVaypFAThnwign5DR8ED0AEALETE9k00Cwg8GFDa82FjCbgZUPZhOmCTlHmEAGinJtC8g1iDisUCQryfCKmjSSF8hwZQ6R+kGVcHQuTGbpflTAByvtZuEeH19Y8mTWo/zy1NbxojZtD4dN0kyybctdpax6lkZf8yctipvd7dhJQKWpGEym0CWfjW0jZrSXYDi3EnNBTlGw1mI0jMA6Pk9nfqxjVC+etjB8mtz5qS/oEbNGWumCAbhrdSnEWKB4Au703y46nZTMFh9hutnRgNsTMFE+K4IveLw9XkDSUR6HFPSQRmBNVn1OcY2uJEk+T5BEL5xZxlbGt4an6QUAeHFFc1HyAbDz0GWp4GnaMuQ2MNr1qKHQJ5a7yhr0mwEblhVBDiBpSqcA2vssvO2/RUE6BM+3QsIrMKRAt3zYjHm5g9IVWzPn5IQnP0Zld4Xvd0Esy/aAts3Mi3lgD0SSXw8HLHFuiVAYqEBaMbdBXTc5NyBAyaO0+Hpu9qo+aPe4OtQpMirWBFMMSKmFHeiRXWFfu/zPzC6K4wPYUmsqLZCgEkHiYWwiXKKfr5gAXbHsSy8iQYIXHTGmlMNBuFfGpjWyiTb2izV0A0IHQDQRiC/S7LwqrxnT1PDByd2xTuwddIHB4Mx6zxE4VwEOJiUH6rInjxkKdHC2kZ0xOtmzHZ6ePoe00kNGtRa1j5GIP9OA9N+k6yEe73TfFy6IgBtFher5nWUlnMCINe4E1+dOHv2bCbwPSgOW1WzBQgb0zIZRJlI/q/QZTil7j1to/J886me9LHZaDI5AbBIgzkSEHxPXfKJ9e+XbdLAfkSTNZbmGQLgXPXHHLiqfJHmYrV8Wo4gfaL2XAnoy3pH6Vi17SZj7/yKtYdkC3ILAHvgMyAHu/VhP97bgWgTECySJfGtw1eUfzYbsN/1rvrIdVnCaHESClCDAJNAwJFEci4CGvTw958AGg878ZUpg+laPSC7Io2DcgIrjWBrOdRlZ20+DnLZzRH2PeHfCwgsFmV2fFUOXX7H8AERdI+UOuj7nP3P6qwvnddBrz+z23O+hSOx4iFt+hFbIdE6ATbKTsuhmfcWoNGk31P86/+66ZHft2JvaDxQIiST2lFYoesT9D58JFZCBFY4+/0+0yAKC+Gu+fXF92p5DeK2YyNgtaw5GwFfBs+Ptsw+ECSQgZVdkNET78uudr6yoD5SihWPYOnsuibSYy4E0WcmkKYsdJZ/H7PtIGxgq2g5EwRtU1YI4Px0Vsm0WlzPIwRUalZ73RBlmdxTFjvK00P2qO1/FHs2S3MdANrSOCQj0BsA8SV7o/pi4Uznat+sETeATFMA4RTtI/OUyrDT7Q4zK7aUlsNa2fwHRJyl9mAI8GSdw3y92nZTsadVwQFGctQ7zAMR9dQPDmXPmgoWAeBFqWCldl9USGdiBBYja9n9DvtBy/7p9kEVAXwjGeXjGpaWbVMbD25POwT0e3er3ZwHnWWW7+0+6MA3QUBLpLTBwM8Hg4i7fxEJIDsX4NZni+DAsektKsR8iEZg9ZFYBLtbZfjbra20fnVPSDVAb1XBSOlrUYmtMETHT3WDBQPS7XOL4OAj9ctede0h+MPMndL2LaLnRj5SNJryXcgpG9f78GSTZ6xk7IV0DLGh81TCj3IMxinP1hVoqisz6C6sGk3IekbziWiApekUkdZoKnuLWRdmCWdorcukZzB/WdUyRCTaol2KB7nEgg3l6UzNsVatuRBJaNAKdwJ4/7ATS04djNWsrJWuUkT4cEB0/Qi+I5TvApTXYy98ZV9Rvj3RNWS/mbuKTIdJSCNJoumACgmQk6id5NvjesHYdcyipcfvTt5GYj1tFtdff1Jt6MvQSKx7xNYo4/V1Tdqn/Sbirs2y+tcABjZftY/n7A7zlWobTdYeS8OXxezPAXDfZG3wfsgqxVvtTjOvzJ1hm4ETWBm2YOHcnT510/mYa2JVKbL2RgKLEf0lJ2bDNQ8UgsGYvi0dibxia+SJvPJEX7H/WUXCr1y99ORvtqPkjhCFFUqu9Iu4ikPQHQHKK7Lh1/eOCOKE9LbN/720i174825UntMo8w5Zt0RIJr1EYYWuX7j3voUIt02DPlMrCgt7AenU+fXFH+ltD+zF/mBtxdoxJEirALBwL8YhE6buBre4XzI3yZkwuUR8tFpcTyDAdYn0iactEwg2GLsPW7T0ePU1a6I4MG3iqrz8EcZdWkTbEMBOE44+8MXG0aprx8WDaTraWC2u8xDg5XSMFWEMVoBiNyLslGX8EUBeDoCvbRZbPw0UFJ828Y28vML9DhJIOBYQ/w+QRnsfHrAUQZaxkL4fjZ6wlG2A7on1jcf+L53YWS1rXkMQzlZ7TCQ6t85Z+pradlOxp1W0GQHcWu8wP5SKb2r3tVlabABUp7bdvcaeLNwy7uSjHx2MDxoG+xqm9cI92MEciPldcv62fU2An4FABcr4EdIGB3MElm/Sl99eQCdNzU3bng6rfeVNolG+IwLZT2QBMC2sub/fSf/9OCQKS/E4fDSVf09FJLOC+xXvZ6A7FxRj/nD9Zuzs3CbR7Ct3QsdulnkUcEQjsRIhtPxwqhiFFbBEYdfKd+rFJKa88420S1UmsRDp7SG72s59aulYJs7NDx0hwKq7oUwvIEKZjtziroQigLRwXKP5snC6HnsTWN5qhKs1iLqpFwvWX5LO6CvfulktrhcR4BK115FAfqjeUXar2nb1ZK+6eonB2Da2HgAv1JNfyp9qBJbGRIACApGefgz1gkw19qbSV9ONmc3S/BEAHqvyuJJBwNNfWlbyb5XtpmTOVtU8BwivSMlI2M5Ya3eUsGAB3RyeVMLCRQCgq1RC3QAUzRGCV8VCY01Dw3he2CgjFizYybTd7GcgNhnh8mXnbLsBTPi4n7naWwksAjhwrBHumFsMxiztt3W8qYO+6CslGksG+OFLUX7q2u24Z5ccnEroI2+ipgyGIT9CyK+aG4aRpWZISJqijrYyAdT9pZ2aXt3jmWnQfBOIwoqL0IpiLx6iKeIY4Ykx/6kXyzffcsTjAwMo2naOSoRhmxFh6tz6opU62gHclQAErp60Lr/NJL5KAGekOxKAL0QCCBDOHed8+crZMHjEuBOYvdL04ikbhklipwsBxiTaN0r7TsGIhy9aWpLW6CufP15B8mUqn3tbhuaIh8x5o3yPijjp0pQ3tfRzANhflw7qzKl0VdkMN21rZfN3iHigypC4BRImLnJO+FRluymZs1W6/gkIU1MyEq4zUpW9sdShut0UDZ590udDh+R1fwwAuqoGmeK0tO6+TvzBOLHhM05eaQ20Vva1v9PXynNuF6af23owGqSPAWEkJ7AABASovGgIXXTdMAwN5lF7uwQSWP7XAdFXvtRBH3HFIrFYGiHJHkH3xvntIQROAFGRCInlb4sw5igT3PJcUVoIvGTx3PKDSPf9phU6273RV/3IngRIp1hEUSC5xxyOq33AzCISTJEjuzQTdA/nf6TPvJ8T0uwF9cWz01XVK9k9sbf3mzJlQ3aBu+MmQOQi+/rdDCxd6Um7w3yjfl3U2jNCW6VrMSBWqzaSTLfbm0ofUM1egoasVZ8egCStBQBPBHvqhwQSnmdfXvJG6qYyw4K1atVxSEb2kERPkU66A08GeHr4TvF3c1aXMxGJtB82i4tFYbOqr2oePYSGsfWNR6c1HTLWBGyWljUAVBqrXaLfGySc+NLykjWJ9ktH+9qKjw8hzGoBHLCqhOmYplpjtIlu4xENK8ZvVssgt5N+BDiBlX7MVRlx1iQyfl+4fREY8SJPeqA3/mMvjsBimzl/mEB3zCvCkfsZVcE5nJG4oq9kTwEOhbTykVfK/wQ7fpTo8cu3QVcHhY/CYoOGI7GiEVuIcPWDhVR2eo5uz+meboKn7mqT/9vcG/xDN9korEg4+RYtVQIr1H7Q+zRHYYXzJWiewTsVAToEEic83zD6G81OBG5YRQQIrVXNFyAJTwDAfioa5qbUReAmu8P8mLomM8ea1dJSgUBOdTzGblGiQxuWm39Qx17iVryVvD4BQHPivcP1wNVGhNNebCwZtNpX4WZdY3FVCYB2ABqhDo6DzsqS9TvFS1YPEHlVW7H2EBLkr9RHlbo693Tu8/r7J7erbzt5izaLixWcGJW8hfA9yUBj6t8u/VZtu2rZs1Y2T0XEf6plb5Da+TTbTacuWFHaNkjnt9dMS7c3u3vNCiQ50UvP2zjOYMj5FNAn3M4JLGUzE0DJydl0zUMjUNDgeWA08koZPkD7ipFXzJ/A6Cv2mSQBrHF2y0seahVkKUIaXaRooQgklvnUHLrygUJMR/pkklsWVr3bTc/O3hUSeea1Fi+JlVQUVeSIqZhRWcy9iGOmi8TyjhM1XTBoVXoB8cr5i4vmJ7tWvN/AIHD22Z8PzdvT1YSIxwyMB3zUGAiw4NoZ9c6S+XtpZCNaLc3fIqSYioQoI8JldctKFg70jqupXP0bAQ1PqeBHr0ji2AZn+fcq2Mo4EzZLywwAegYA0l8OWt9oOcadWHLmQIpE2yqazwUBX1EdJoItdqd5tOp2UzBYfcL/co35OzRJ383NzRk27/XDdUXWhUJlq3BdAgI87y1QkAKSg68rAX4vZKF5b64oPJhWlRNYGbiatVO/K8zOyn0LjMLxivs8AkvBwEdgCQaAG/5cREeUqy+GFSv6it3d+EgrX/qg5CWyJJmAEVbsfVe7BHNvapU2fek2BBMkMVIJw5ApQ4YbaLa9GAtGGnS7m929BI/d1Eob/uPum0GkiDKFNEqSdAqb9hfyYVIkWAC0/v7pIrACWLT4SKwPKK/ojAULsFu3G4I7FhGBadNW5eV1G6YKgOzmPo2l3fmixIlAp0hU0+AsfTPO9oOqmTrVCGm13WE+Rg8kINNxcpO8FQHzUlkoBPhrncN8VSo2MrsviyJtuQwJntOismMmYkNAn0iC6cyGZeN3DqT/Novr7p9+Vc1W3QeEt+2N5imq203BYM0ZLWWCgVixCbWPnXZHSbEerlmxJsYrE4ZDiP4lGqm6YWnZtlj48e8zAwFOYGXGOgV5edl5268DI7BUE8/BCawgAotBcvjELPjt4yNU1YOKJ/oqUPuKRVv1pRCS8loSPWmEogjw3X/c9MIdO9Hd42PfvOuZoKC7xZZPNb8bpttzmYnXv/FSB722oDMkZTJgW/cjlaKQTmFJqmi22HdJEmI+s7GisML4RLH8DDyr42obl6B7LwKdOW/JyHcy8NLGXQ5AoGbymhJBEu4DBHaDoEE8KYc7BQREAeWzFzWWLU3BRkZ2tVW1TAOi11NxnmSw1jeZF6diQ82+VovLiQAVKdhsExHLGhpL9uqUbQLC2sqW6YD0CAAWpYBnxnclgDc3u1vPXbHidKafN6CHzdLSAECqV4skwPvrHSV3DOjkQgavrWy5lJBeUNsnAmiqd5gr1barlb0aS3M1AtQhoHZ6Klo5r7JdJPjT2JNKbhrIKEiVp8TNqVx5hQOaBgRmTiSTePCOz0iAQ/3DcQKrH4HF0gevvK8QyiapF8AQVrjdnzbo4REZOaVEXgXoXrHXkuSNvlIisEghsiSRoOHh3dJn73UFR2FFij7ykRwBZMfQIoFue74YRh1g1C2B1dkuw6xf7YDW7XJ0IfVoJFYqUVMxIqaU8yhR+0F9okRixUVMRbgS9+vr/SB6FNbf5y8puigTnhKm4XI5CIYgvKiiZZLBAK8BwdBBMKHBNIVulHuPqms69uvBNKlYc7FNW1UMPcYtQEmSqkROu7PUEmucdH5vrXTdiQj3JDkmIcnT65xlA54OmaT/qne7qMJ1ukHAtwBIvR9gqnupmUEiotelwg0XNDRcxEQiBvyorXR9TgiHqe0IoVxd31j2d7XtpmLPZnE9BAA3p2IjbF8UHrQ3TrhNdbsaGrRWfXwAUpbrpwIke6s2XY8sy9MXN5XVawgzNz1ACOj2pneA8ND1sLNmkfC/tTv+REa4NuiWlxNY/QgstpD5wwW4e0ExjBidempdrNRBNp4SfcVE2xmRJXm0r9h7mUjRvVI+Y9FXjMQSAUSRYPPXIi28Yyf0dgUIuitnZQSyIoDEYqmSV9xXCMdU5up237I5L3piN634Z1fftSYaWaQWiRV2jBSiugKWxA92HMRY2KqE0Qmo4LVMhMRC6DZIwnHP/2MEq6rFj0GEgNWyZj8EwfqTvsx9PK1QVwu7VZbEExcvL9dAIFlX8wxyxmZpXgKQRDVChF5Zlk5b7Jz4oZ5mV1PZcryA9EFSPhF83dnVYdabkHVSc1GxU01Vy3iBiFVjPFhFs7o39dOzy7uH5YiPzXmjXBMdpkQBmDltVV57l/ErQFBdq0qWxEP1du2zVbr+CQhTE8UpVnuS5er6Jn2RdbF8Zt8zAX8Z5ScQ4RfxtB8sbQhohQBwQ53D3MIf6A6WVY1xezQ4pzk4ZjV92vbDMYfeBcSRvqKDysw4gRWWwGK4XPibYXTmJUNSJmrDRl955K68EVfB2ld96YOB5BWAKHnes+grlkbo7gX46PVO6V17h0ExFuhpjFTCUQcZ4M4XRkLeUP1mF325rhcevL7VI27vOxKJdgqMRmP9g/AJOa/jshs+WkqxFKt/1PHDE45hCaxwY0X6rN/nkaOwEPHur7eufUAPKQuD44qrv1lUT1kz0ijho0B4AQAM0Z+He6VHP8oyTFrcZF6/t8y+5oxVZYLB8DEAJvZ0iODtcSeVTNVbKgerRjg6q/B/SAne5BO5QTBOtTce7dhb1j6ReU6ZsiG7QNzzNADNSKRfhrZtlUm+Y7Gz7Fk9+W+r+HQfEKTP1I7CIYCeekdJrp7IgerqJQZj27h1TEVE7TXokeSDX15e9p3adtNhb/qkb3K6TW2PIqBN7X2QDv8THGM3ATwxbKd4z5wBqvqZoL+8eZIIpHxjn+S4vFsSCFx+/vaVZIQTlK6BhAAnsCISWKYshNmLlBS7JBD3dImZOsgir7ztFM0rJeqK/e/VvfJWHpQlX/SVh8RyK2mEAHs6ZLDfvZNaN0khGlERyBYEyMlDuPn5YjrwMJOuz+GHrt1J69d5hdvjJZ+iRWFFJZHiIKGiicPHsh2OZIoRheU/TeMhx3w7NGbbMCQWwrr5S4om6OnHZNInHO8YEwHvU/WFgMCILH6ERYA2yIJgFWRamYaKTOvtDrPqKTp6XdjqE1bmmvLz/kMAY+L3kXYP3SkV6/WmwlrZPAsR/xD/fJRfB3a7o7Q2sT57X2urZU05gvAuAOg3XDyVZSHaboKsiQudR+muAmX15NWHmsi4hojUTkH/we4w758KbGr3rZ60Lt9gcv8n5SqpIY55yDpzxqfDnlfVMiqbaA0C/Ext7HVhj+Dfgqn7F4uWHr9bF/5wJzRFQNc3v5rOPMOMTz9n2zTMxlf9Yr6cwPKyS8qPyIgEFvuqvDJX/vW9BUJoME88WyAR4XZGXvkqEHoisAKE271phL7UQRZ95flH4HYDtDR2yf+2dyBQQCqhQpiEJSvgxF/kyZfPLtBv6BUAvP92Fyx4ZLciXq8cCaUOBqxOtCisULuxyB/lexWjsILMhbebMIkV7qoc9FnonkAikG9a0DDy8Xj2NG8zWBAgrKloGWswwFQiug0ARw6WmaUwjx4g+BOh/I/DHK+tmQ2zZesZzSeCgO9h8OOBFIYI35UI1pgEnPJiY8lW1Y3rzKAi1m1p+QcAnBe3a4SP2J0l6mvTxO1A9IYXV6w5UhIEdnOXHbdJWSqxN03kKdtxAMZSmUiQrgPA6+NonjlNCB4UTEMeWLR0rC5vmmstzWYC4UMAin9fx4e+y+4wl8bXND2tvNFm7HwcpfKIm+wO86AgfVg0Vo9p54UABlaZcqzKOA2UOQeg9KA4vOxfDQ2oC925gQJibxqXE1gZsNozp23Kc2dnvQUCnOZ3lxNYHih80We+Qn6huBCAwYh0+7wiPOgwU0KrHUpeKcN57fuE2pXPGFEVKNzu1cFiwu2K9hUjs1jKoFKF0JM66P/nJnCLBL3dBG//Zbe08T+9npQM35kZJmIoZwjSHS+OxH0PTj6qLCEgkmjcsVuGe3+9k7b9GBpVFmAsLrLJ2z5a5FQidvzYpkBiRR0v/amECPCKsbDokjlzUBeaG0lsF94lRQSmTHkru0Da1woElyNgOQHkpWgyk7q7AaAZAN7Ozc15dN7rh7eHOl872XUsybAMAAq0nBgBLZWErksalp24U8tx9GC7tmqNlUiwx+cL7gBZOMredPSW+Nqnv1V15arhRjQyweN4NJuICGfXO0tmp9/TzB6x+tSPxhizs54DwNMBQL8/YqLBjCAD0UoR4NoGRynbM7o9bJY1pwEIrCqxuvd7SE57o76KMfyyqmWMSLILAIepuSA/qZGsq3eYj1bT5kDbqq5el2VsdV9NCDMR8IiB9ieJ8TsB4BMEeqTOYV7Ksw+SQDDDu6h7QctwMPTq/vTztt6KJuFeAOjTm+AElme54iCwWLOR+xmlP9QVG7Jz49/ykaKvlIAvv/5VX9VBljooMfJKqUDorTrIyCu/7hVLG/SQWqLbo4el/M8ILDfBpi/csPTPuzzzCkq36yNFGI/ziyuGSudcOTQx7ZE0b27nP/bI9X9pR5JZRFmcZFFMIipySmW/6cVMV4ziUz/8w4AX0dcoUVgxI6sCxonZ1t/ADUacNL++iKVJ8WMvR0DRANl5RDGAdC4I8NRPou+JsfYZhh8RzOuVO/9YvCt7U6zUNFvV6mlAhte1nyK9bneUnqP9OAM7wsyZq0zt3xi2x3OziLJsq8uASlBWi+tljCOqDAG+cZNY2uAs9/7BHti1yLTRq6vJADubDxMEfE0A7KuonQETISBRkuTJR8pl785egaLeXbZamqcj4Hz1/dRf+qy3cMBqAMhSd774L7ujZJK6NvVhTdHHMuw8BgXDywBQrA+vonrBqnzORjL+ddzJ47fpTU8xA/AbNC7Gfzc/aKacWROZMW3zGCnX8DEgFvfXvfLOhWtgRU0hVFAigJobhpHFFp+geyKpgwqZ5dW9UjSwWEKXN/JKEWxnlQcVvSuvBpYbwO32irgzQksE6O31pBK+t7BD/K6lO/ipZEDa2+gxRvr93CIcXqRf/up/X4p039U70N3rY1kxsvh6QmmFIY1jklRRCKEATJVWMcmzNJNYka7MwamEjB1sMI4YwaKvWBQKPzgCfgRYVNbw3n2ORTCeDAJVEsDpIWdixqFFgN8LRAtlxE9MCE0vNpawp7BxHzaL6xIAWpCw+HjcI3j+2hCSvTNbuuINnVQiS8z9+FtbLa7nEeBX0XvQdyJJJZlA9tRWuiYTwtuxECCUZ9Q3lv0tVjv+fSwECGurPi0jogsA6DqdF6Z4hWRYvCtryKtLl47tiTUzvXxvq3Q9AAi3qu0PEf2p3ln6O7XtpmLPG222IhUb4foSwMv1DvOg1ptkVe43rHRNkNHwCySpFnQVlUU7iGA+IK6V3MZXGlaM71B7jbm9zEOAE1g6XjP2lGqotOMWMiml08MIt3ud5wRWXARW4SiBZttHQd7Q2GpYiRBYPuF2JfKK/ZO82lde8oqRWSzKyp82yATce1kkFilVCJVqhAqhRdC5S4bGJ3dRV5vcT9BdEACuuL9QPmZyrm61rxgGLz6+m/71+p4A/6MQWGwLx0tEpaKFFXacOCPDQvv6rhnJRGHFayu+dhsF2Xjy314uzMjKODq+9A5K1y6e8uEwScqqQjL8BoDYk9aDACBfx5MVgeg7AtiJgvCK2Nszv2HFsZtT85fphrmuEwR8EAA0FeUlkB/Y7N5192CuCmqrWjcNSIwS1Ubs+c0Fi52lr6W2bunprWh7VbZsAoxSjZDQaXeWWNLj0d4zSvWRS7LwZ2MrDQB3EOC+6Lk+DdhvHSbcjQAbgOgD0dB1a6amBVdPXjfCZOhVW8Ad3L1ym95I6ZkTV+V17COorgVJe+RO+4ry7XvP2QhwacV/i3qw+3IDYjUBMEyZBlg6IrpZVONGAGgFoM8BpT/WLZv4BSIG5h3tTUvB5xoBAU5g6XhrzDj3x0lSluktQG/lln5pg5zAijeF0NfulHPy6NLbC34qNhR54RMhr3xaWB7R9r7oK4/2la/qoIfAUlIHmf5VQPQVi7pi75WKhN7/v7wL23cAACAASURBVPhXl7Ru2Z5gLSwAOPqUHLruyaKovg/0dv68uReeuKUVent8omRej5Iln/qRRBkWhRXirnIKx0wPDFjFqJFh8i3z/77PwwO95nz8TEOAcPqkFdnu3BHFogyjBFE8khBvQBTKBn4mtI0An5LBvZwEYUtPR9eW0sqTOtVOE7BWNN+OAnoeDGl1IDKdnD/ZHeabtBpioO1aqz4+ACmLEegR/qLiW3bHhF9kkj6J1dI8HwGnR8IWJfm0uuVlrKIePzRAgJGIl0z5aCi4jQdJYDgeEG/H+HTJUveGnbMyOcAg/Zl6ej/flVv8YyZFW6UOALfAEQhGgEVmffb+6qE5gmmEG2AUydKxAuK1AKiSADwywZUvgLAOSW6SSd4qC7B9m9jeOZgf/vB9ljoCnMBKHUONLBBeduH2V8GAZ/sH4ASWJwotnP5XFBF3BT9vlNqwEQLcMmck7XOgIeLeDyKwvFpXigmv9pXntSfKKpDAUiKwfHpXXgLLQ1r1kVeMqPIQWJ6UQZ8GlhKBxSK23AQ9nUT/mrsLOrb3RWExIfrrnx4BRx6fo9tztqtThgd/0ypv/Nrd99TU720CUVgM4KhRWUmSWLEipuIhluJONQwf3aViRcIvBew+7m8NBwx6sWiNLrDcbAgC1055K3tXb1F+D+aMBaByQaDRCEK2TJSPII8BEA4BgH0AIHGBXAI3If6IJP8AqDxd3QSIXQCwC0D8HKWstQYDbXmxccKedJAd7Ef5+pWfzvrpinuHxumEvQh0c52j9MmQv1yDZP8R2irXvg9IJ4SbEApwRt0yMxOQzpjDk2YKL0Zw+CW7o+TSdOzRjAEsDY7+sqplSLfsPsQAxkpEGomIObIM+wHCUQhwWEKRIQTtAPQlIP4HALYSQCeAvEES6IMhPSM2LlgxpjsNU+JDcAQyGoGZE1eZWofmZBuhO4dMwsGArPiFMAwkzAdBzgcSTIIASCTJMmEXIrYLKLRLstQhC/JGURK/zTfkdHcPn9DNKwdm9FYYMOd1ezM8YIjoZODLp209mXKFdyEwkYwTWCkTWGx5DxybJd2xoMhgMPXf/okItzMCixFjSvSVQm559KyYkDuLvlJeh6YPeqsOMuJKIbNYaqHy2tOeEWAsSmt1Q4e86bNegRE5LHip8uJ8+aLfDRdwwALqY58YHzm7YO69uxQ9sP4ElBfruNMFQ8YL6pckgRVKjPnf6ySVMC7dKwUXNwpw4byGkWkQpI697rzF3oUAE4rv/vqQbMMBhqzctjajmLs/DunqMXSbegWjkEOSuFsGySjhkCwJt+dKplxj7/wVB/cg6CsFgJFYX7y/9kVEsqYhVemXdof5pcG4U6yVzZMQcXloFBYRLK53mhm2GXXUVqw9hAT6EoBC42d/HLpTOnTO6nJe7VVXK0o4ZcqXWfldG01uKDDmDpWMoiQbDW6jILlFOT+3UOqQeyTogV4YeVQXv1nW1eJxZzgCHAGOQFIIcAIrKdi07cSYbfHgg94iI1YGjcQJLFUILLbpr354BJVO6h/NFJbA8lcc9IRhecgqX7VBD4HFiCymacVeMwKLCbYz7Ss3i8hSiKo+rSv2nRJ95f3fR155yC+CrRvc0oeLOgSlgh8ADC0S4O76UVA4Sr/C7d17gO7+v220Y4vkodgiElUaCLrHHRXlPZvCtleRxAqyH4a484VixPLbd/L3b7e8A7t/0dBwAItg4QdHgCOQJAJMZ9LQ2jwHUbg8SRPxduskopn1ztK6eDtkTjtCm6XlewDYP8DnnSjJZXXLyzJQn4/QWtnyESIcE7gGRPJd9c4ylnbKtVgyZ3NyTzkCHAGOAEdgECLACSwdLurM6p3D3YLMfhAGp2pwAksVAov9/DzkKBPd8HQR5ub3hTQlon3lSx/s+99DWIVqX/kqDyqEFYuuYqmCboBet4fYYiLuipi7CEDe6KuVL7RLO751G5ToKwFgymX58vnXDleisfR61D/VLjsaOoPjw8KSWAmkEsYieAJ1tWK2DUBOawIriMALT2CxJgnpYfX5vNsowzFzXxm5Xq97gfvFEcgkBKZNW5U3pMfwApLAKqFpeZVtJaLz652lqlfJGmi8rZbm1xAC5A4AnrM7Sq7K1FQ7W6XrIkBY7McVaa043HRMQ8P43oHGmo/PEeAIcAQ4AhyBvR0BLX+s7e3YJj3/y6ZuPgSGGv4DhMFVkjKIwBo6DEFJ0fP57GOHArW9Q59j+tsGQBdW8yrgGaivAmOABlY/gXa/jYABCWDajKF0yrl5/nMgkMDyv44UfeVLG/QKtyvEFYvC8updKamDCmHFPvOkCCp6V16hds97b2VCr/YVI8N++LTXvfrlDiNJHrrqZ+OypNsWFhty+txMel9p1bG7k+D31dvkPe1yMMmWTBRWEPmTgBZWIgRW6Bj+9ylEYYW7kiqfRbaZEIHlM4Xyc/P/vs+VWq0lt8sR2BsRqK5el2Vo6z1FAMzWcv4ky7K9aeLbWo4xELatlc1XIOIc79hbfnSX7L9iBbJqUhl51E5dW0i98lcAUMh+bSAZp9Q5xy/LyMlwpzkCHAGOAEeAIzDIEOAElg4XdMbZW/aR8gxfAcGQIPcyhMAqGCHQrY8V4vAR2gk2qbFxBQOCwehBOGHhdr/uVYBwe4D2lU+4Xaku6BVu95FYfjLLR2ox8ksi6NgpwfKnd5Ps9kYBIMC1TxbLJadlawdkivvf3UPwpxtb6YuW3r4liURc+T8PE5UUkexKE4kV6ls0Is2HWUKkWQKphOEINs9nG01GedKcxfuwGyt+cAQ4AhwBXSBQPXnlCIOcuwUBjYBwnb3R/JQuHEvSieojl2QZfzb2fQAsJ6D3dhl/rFy69KyeJM3xbhwBjgBHgCPAEeAIqIiAGjyAiu5wUwyB6ZO+ycGR+Z+DgAdlIoFVfXk+Tb4wD/UsOB6IayKpg4r2lZe8UtIHmVg707ySPJ/7iCslLTAw+sor0t7b26d95WujVC6UAb5Y3iV9saLLL3Q1ZryJbl4wEk1Z+j1NW97voadvb0VFBywcsZNMFFYixFCyaYThSKIYEVP9UjgjRl2FwyI1AgsBRAK4av7LxX/L1LQcfnXnCHAEBi8CVktzAwKeIAp7JjQsOzHjq6NaK9Y8iIIw0yT3jF3YdNyOwbtyfGYcAY4AR4AjwBHILAT0e2ecWTiq7u30c7bejjkCEwztOzIgAuuw8Sa66aFCFPSrN95vrWIJt7PqguwI0r1SSCxSSCtGXimVBxkRFVh1kL32pg36Bdt9aYMs+sobncUqFm77RpQ/eGE3yt7UwSEFAv2hYRQW7qNfIFm65G3W7fKOzVLk1MFQoiiI0Aq5/KQ7CitW2l9CBFUcBJ6PAQuxG18qIa4TO8TjX2wc3an6xYYb5AhwBDgCKSJgrWyeSgRbFzeVfpKiKV10t1WtOhxk49V2p/k6XTjEneAIcAQ4AhwBjgBHQEGAE1g63QiXn71tKOXipwDQF4WlcwKLbaYrbxtO5admZ8y+SiT6ykdg+SOwWNVBpfpgAHkVUnXQQ1x5ta7coLxm/zxEl0fAnRFBH9d1yFvWu/2pghUX55P198N1HcW2zN5JDc+0ox/DhAmoBATdkyXCovULdwVMRxRWyLj+0zpS5BlCJ8ry1fNe2WehTi9X3C2OAEdgL0dg0qR3jCtWTJIGT4QoYXX1xhxe7XUv39h8+hwBjgBHgCOgOwQyhmjQHXJpcOjyC7b9noz4kJ9o1DmBdczJOfKMm4cKRibeniFHTO0r8pBUSuogeaOwvNFXStVBJfLKS0T5hNsZMcUirxh5pURZEfQqkVgeAssn7u6L2Nr5P5Hen9fOIrgU4Ar3Mch/+PsoYchw3UpfQWe7DPf8agdt2yQFL7bvXbQ0QDW0sPoRU0lGc2lBYsWK7AozZpQoLFkG+baDj37m0dmzZwcmambIGcbd5AhwBDgCHAGOAEeAI8AR4AhwBDgC6iCQOUyDOvPNKCvXTtkxrGOo/A4glimO65jAyh8mwKynC2HESP2mvIUuftToK3/1QQoir/xphL7oK5GRWoyU8pBYSsqgUlXQS1Z5UwV7GXHl/YwRXozYkhmx1U303vO73bu3Slk+/2pvG05n2PJ1fW7Ou7dNen9pt2exI0VeRY4oCliKEG2ouIgvb/d+bQM+iBYNFs1nn2eJaGtFJMH6T9MPVpjV9Ur3B25Tt0HA2buEogcbGlDKqIsXd5YjwBHgCHAEOAIcAY4AR4AjwBHgCKiMgK5vklWea0aau/zsH0+nHONSQMzWM4E1aUouXXLtUAy879cz4JHIK4Yx4wk9EVd95FWgcDv7UhFu95JXSjpgIIElesgr9n1o5UH2nn3OorIYGfbV+93SumV7/KzfvoeY5FsWFAv5BfqNvvrq01568KodyCLT+hEy8RJQAx+FxfiiDQDQ1W+fMuj9qYQRLpHR5uknwUIsh1vSADu+8CoCaEXC94xIL859pXjD4EnJ0fMVgfvGEeAIcAQ4AhwBjgBHgCPAEeAI6B0BTmDpfIVuqKbcNtjhBIQTg1ztF43l/SBqlJbHAvra+Nt6WRvfAOFsKKxOgAcBDFDRSAFuf7wQCooGUfQVI6+8RJan2iATbe+rOsg+C00dZMQU07Vi/zy6V32VCHt7PVpXyvdesqunk+jdZ3fRnl2yQm2YshFunl9MY8brt+yg6CZY8MAu+uDtLuyLvIqiZRU3oRUheiqAI/Ns3pATNijSKkoaYUhfQvrUkLXHkuuW2vRyCfjS68hbSw/txb6zVC/ucT84AhwBjgBHgCPAEeAIcAQ4AhwBjsCAIsAJrAGFP77BZ0zddIScl91ISPv7e+iIwLr8t0PhpKrc+Cajg1aJCLf7da/8+lfe6Csm3C4TyF5CipFVnogrj/aV8s8NHu0r72tGYCmpg5JHyH3ta13u713dJh8kZRV50tV/KtQ1C/iv17qkRY+2GVjUWR+hpEYaYAKC7tHSA/2RU4H+hb7GNlmG0xc4Rrl0sB25CxwBjgBHgCPAEeAIcAQ4AhwBjgBHgCMQBwKcwIoDJD00uez8bQ+BEW/WG4E1+mcGuPPPIyB3SOZspZjaV97UQb94e2j0lVe8nRFSLJXQR175tK88elfeaCtvFJaH1PKkHTKtrF2bJPm9+btR7PEoHw0dYaDfPlMEBx2pXwX8nj0E91+xg374xu0P4osYhcUm5dsScUVhhZBggf1DX8f8Lno0FwEtNm3f+Ms5q8vdeji3uQ8cAY4AR4AjwBHgCHAEOAIcAY4AR4AjEBuBzGEdYs9lULe4tGJjkaEw+ysQcLgyUR1EYBlNAHf9eQTsP8aYMdhHI6983wVqXympgiyF0Jc+6K88SODTvgokp3ypg4pgO4vGcnuirZT0QtbXG6n177ntYtsmtwIc0w2z3lJAFbX6ZQHZ/J1LOuXFT+wWFJ2wsFFQcaYSRiS0kozC6kdoRU4lJKDdSEOPmOcYsiljNi13lCPAEeAIcAQ4AhwBjgBHgCPAEeAIcAT6KcpwSHSMwOXnbbuCTMJfAMikBwLrmJOzaeatw1HQr9540GqGklcKD+iTDlNE2z0f+COvvGmDHgLLQ1gxLSxFwF3ykVLe1EE3+wzA3dunfeXTwPIRXD7NrB/W9dKqJR1+lmXIcAFm/2MUFIzSb/bg1o0i3DN9B3V1yh6/MYBDjSTIHlfkVaCulfZRWAh0398aR9+p49Ocu8YR4AhwBDgCHAGOAEeAI8AR4AhwBDgCYRDgEVgZtC1mTtuUJ2aZGsmAJw00gTUkH+DuJ0ZA8Wj9ki6hS5tK9JWidxVQeVBJB5T6RNlZxJVH68qjc+Xu9XyviLezKoWs6qAE0NtFtHJBO7VtEhXaj0Wx1d5eQKdeoN/oK+bnC/fvon+/vidAuD0KiRWJuIqL0EogCstLpPnXuZ/90FRC/IEMUun8pftuy6DTnrvKEeAIcAQ4AhwBjgBHgCPAEeAIcAQ4AmFqenFQdI7A/03bUoW5xjeQKMvvqhJFlN4qhGfbhtA5l+RlDAGajHA7g5RFWwVGX4ks8kpJBQwgsLypgixF0BOBFVKFMKD95+/skdev6PbHrB1+bDbdOLcYWRqhXo/N34ow65JtypyDYjbjicKKRjJFFGNPUhQ+GoEFIJJguHD+suLX9Ioz94sjwBHgCHAEOAIcAY4AR4AjwBHgCHAEIiOg49tmvmyRELj8gh3Pk0C/GigCq2iUAe54rACGj8iQ3MGAVEGF6gvQD/OkDXpIKkXnCryaVwHC7UrklZI26Kkg6NG+8kZfsdRBb3VBJWWwl0Vb9RFYHuF2j9h7x3aJ3n1uN7i7PQpSKADcsmAkHWrO0u152NNF8OjVO+ib/7r7fAwhngLl2DwEVwJRVJG0tOIlvqK1U77zK8m/2V6w4pyGhot89RP5BYYjwBHgCHAEOAIcAY4AR4AjwBHgCHAEMggB3d44ZxCGaXd1xrQdx0vZtAwQhimDpzECi6W8Tb92KJ1QkZMxeyfR6Cumc6WIt3uJLQ9x5fnM7U0FVEgrRmT5CCxFtJ2lEHrSBd2+lELRQ3qxyKwvVnTLG97tUlg/xquUT86VZz40QtBz9NVHb3fT/PvaUOylftFXvo3fX9A9SS2rmCmA3hGjpSL2I7SUxh2CQZ72/Nv7rkj7ycoH5AhwBDgCHAGOAEeAI8AR4AhwBDgCHAFVEMgYEkKV2Q4iI5edu+UqMBmeSTeBNb7MBDfcU5AxSEYSbg8Wb/eEXvnE2xXRdm/lQUn2RFz5BNiVSCxvxJVSWdAXbeXuSx30VR9kKYWyN9Xwx/+6pVWLO1CWSSGw8gsMdHfDKBixj6Dbc3D3TpnuvHAb7emUPaF2kVL+IqUSRmkftIGipRLGYyMGoUUCPjq/cdTNABgULJYxm5g7yhHgCHAEOAIcAY4AR4AjwBHgCHAEOAK8CmGm7oGZ1TuHu0lcBSgcmq4ILIMAcM3tw6Dk+OyMgS2R6CtPtUFvCqHyv0d4XSGwZAJGSCnpgIooO4u4YhFYnqqDLPLK997t9rZRKhN6xN9XLmyn7V/1peGd+5th8tQZQwWWRqjX443nO+i1ue3B9FAEQun/27sX8DjKeo/j/3c2adKk9zb0yqVijyC9wOMNEJXyCEe03A5WqFhpaSkIVEQR8QCWPohH5H6tlN4A4QiCWFA5B/HQVu5QaLFWCygCbaVN2oa2SXPZnfc87+zsZrKZ3ewm2exM5pvngbTJ7Mz7ft6dPs/+nv/7n25VYWUNoArYipg9YNtrif3pJU+P+WtQnRkXAggggAACCCCAAAIIIIBA5wKBrf7ofOgcMfuU2rmqXC3SImXFbuJu3ijHfqlSn3XBwEA3HPe+K7KFV+aYVO8rO9X7ytku6G4ddBu3tz11MBlEpZ4maMIrJ8xq1dKSfvpgx62Dqdf8a2Nr4pWH9lqikzHP2Anl+kcP1ahYWXBvv+1b4vKzeTt1fW2iw5MH08YZw0+HWOmfF7CVMGulVcZFslZrdawQU6Lituirlz898idUX/HvJQIIIIAAAggggAACCCAQboHgfoIOt2uvjP7YY58pGz9k0m+lTP692AFWZaWShbcP0yNGBXfLWyZ6ruqr9BZCU2XlhldOE3e391Wq+soEVdpUX7lbAU2Vldk6aHpcmYDKqbaKixNkOVsL3b+b35tz7Ntjy6o7d+vmBjt9r81aONQ+5rSqwNZemaqzW769Qza+0tyWCuW5lS+9Ry/VzN0sSj6vzXpcRgiWa7tgZtZlycvrdm4+Zu3aT7b2yg3JRRBAAAEEEEAAAQQQQAABBIomQIBVNNreOfE5J20/Rleo1SKSDES8XX6y/DndCSj9e/fxe6khZ7zONBk/dUaV/sqZ1aGvvsrsfeXdMtgWYLVtHXSqqJy+V25glQqwWpIVWS0Z39u2DyaDsb893Wi/+acmK7UuU46ttM+7bpjVr39wb703X2uWmy/a4WyJTKdPeQZHPbaVsN31CthKmM67VFwr+6xlT49+uHfuRK6CAAIIIIAAAggggAACCCBQTIHgfoou5qz70LkXLNDW++trn9Rl6ngnbShCgDV2/5hecNvQQG95y1zSdtVXnnzOCancpwua16T6XrV78qDbuN0EV+YJgqmtg+a783RB57t2thAm+16lnkDoVmqZJw/aWvbUJUz1lZ2IJxu3V1Zb+qpf1sjIA4O7d3DfXlsWXbZLb3ylOflvQ6GVVMVq6O59VGMnTdtFKS3Kfuof8VHTVq1STgzHFwIIIIAAAggggAACCCCAQLgFCLDCvX7O6GedumuIFUus00ofWIwAa/4Vg/XhR/YLzXslr8bttnao0hVY3q2DTnAlYp5AaLYOmhDL6XuV/s80bc8Ir1qSPbCc3lhu4/ZXf7nX3rqxJb1V8MivVOk51w5VwW7cvkc/fvee9o/rC0SIlaMKq2OgtbvCjn160TM1m/rA7c0UEEAAAQQQQAABBBBAAAEEMrrTABJigdmnbr9SytQ1PR1gHTqxn7544SBVXh6a/CrZoD31laq+cr+nqq/SlVhucGUqsMzLnIors03QbBs0lVhOw3b3uxNgmT5XqacPJiuxkk8kdMMu9ymFO/4Zt1+8f48JupwAa9RB5Yn5tw+zglx9ZeZ+xenbde3mhKf6qkhVWAYl9ZbKc3ui84LO+2lpJfbSv9ubvrVq1VSqr0L8bxpDRwABBBBAAAEEEEAAAQS8AuFJJVi3nALzT3yroqFqyDotcog3vPH7c749sEzj9ituGCJjDigLjX4hjdvNpMwWwtQ2wlTjdrNV0PzZqaZyQ6vk97atgsmtg2545X43rzON3FuatPzfLfV2U0MyvDJfM68cor/wterA3m+m4uy/b6jXz/yqsW2MHcKijACpkxCqKA3dO3kKoRb9Xnm1PnTxE2MaQ/OmZaAIIIAAAggggAACCCCAAAKdCgT2A3WnI+eADgJzTqk9yS6Tx0Qk5vyym03cjzuxv33mvAFWLHm2UHx1pfoqGWC1NW43f3eat7vVV8knELrVVunQKhVmuVsH3a2G5rj3Xm+2X3+sIR1eVQ9RiZ/+flSs/4DAPnhQNr/Vqn8ya4e0NNnKtzIq2zZCb4iVEWh5335d6aWVfsPl29BdiVgqdumSP9bcGIo3K4NEAAEEEEAAAQQQQAABBBDIW4AAK2+q4B8461hdaQ2pXalj6oTuBlg1I2N6wS1DVf/gFg11WJB8q6+crYJOaOX57vatMlVXqcbtqebtTuVVa7K6ytkqaJq2e6qvnONak1Vbe3cm9PP37rUbdyac2K+iSsn8W4fbh3ymIrDplRn/HZfstP/8XFNyjNm29AWxF5ZnvEqpF2LViS9SfRX8f6sYIQIIIIAAAggggAACCCBQqAABVqFiAT9+znFbD9RDyzZoUQO6U4E1/exq/aXTq0Lz/sircbvW7hMIMwIs0+sq1bg9FWSlqq9McJWqvnK3DZrtg06A5YZYTujl9r5a/0Rj/N1Xm9J7Lid9rtKef9twywpwFdv61U32Hd/daXWsmHLf7O16VXneEn49rDK2+PlWYXWyDTB9i2XtjdWxF5YSabZFvrD8mVEvBfwWZXgIIIAAAggggAACCCCAAAJdEAhNQNGFuUX2JbNPq/25WHJeVwOssePK9GX/NVgNGBTYoqEOa+sbYKUauDsVV8m/ON/Mf35PHXSfPGh7tg6asMpsJ2xtafvuPG0wHWKJxO3k9sN9H9ryzJ27des+27mvyiuVvvqR/dTIAPcQM1Vl18/dod9+o8WncXtGgGX+2lNVWOlzZbtGrp/7NHNX1mO23fD1FavGN0X2xmfiCCCAAAIIIIAAAggggEAfFiDA6oOLe/ap2w62lPWUKPlIenqeUphcTdz7VSi5dOFgffCh4XnsYKHVV054lX76YLL6yvS7MiFXcttgxpMHnUqr5NMHnScQOn9OHmsCLlN91doket3KhsSWDc3p6qvjZw7QZ3x/cKDvscfv3mP/ftkey2yBdL46f8pfwSGW9msGn++1sh7nDbHUB5atj16yZtQ7ffB2ZkoIIIAAAggggAACCCCAAAI+3W5A6SMCs0+qO0XK9a9FJFlGlWeANfHwfvriBYOVFZLiq8zwyswzNVWn0sr5r23rYKrvlffJg8nwKhlamUoq890EOsmASku8JfkzU4WVCrJSVVipflmb17fYax/dm1brPyCWuPa3+8UGDQsu5Pb34vqq07crM3/f4CrrFj5zvPvLnMe03UzpECt9fMbrC95W6Hm91j9atnr0NX3k1mUaCCCAAAIIIIAAAggggAACPgKBrg5hxbouMOvUd4YoNfB1UfqgfAOsigql//O6IWrc+HQRUdcH0Euv7LT6ytZOoNWuYXuqgbt50qDb+6pd9ZW7RdB5+mC7xu3JAKulVYuzzdDdXmi2GP5p8Z5E/dZ4stOVEj3/1uEy+QuVKpXz9BJHQZd5+Kbd9lP3u6Fbzsbt7mm7U0mlPBmqN8TKp+Iradr21W6sVr3WZZOXrxn+fkGT52AEEEAAAQQQQAABBBBAAIFQCRBghWq5Chvs3BPrjrP765VapF1D92xbCE89s0pOmlFd2EVKfLQ3wEr/OVWF5fS88lRfpfteJauyTLVVMsBK9rQyf291/2yqkpwqK7NlsNU8fTDVuN39uXmt27j97y80x//yPw3p1O+jR/Szf7C8xlLBLb6St9e36Fsu2CFNDVqlw6F8wiS/hu55vi5dBJitCitXUOVzDa11ixUrn730mZoHS/w25PIIIIAAAggggAACCCCAAAJFFiDAKjJwqU9/zql192lLz+xsC6GpFLp5xXAZODjAqUsGZl7VV26Y5WwZTPW98oRXZptgahugE1iZYMp96mDC9LxyQyyn/5XzZ/cYU4WVEGnaq/Uzd+22m/cmnOorE1p9584R+rDPVgT23jJzuOm8Ov3ma6nG7Z6h+oVROQMqn62EOaq5fEOsfKq/fMItLfq1+EolqQAAGeBJREFUAVUNR9/+5ITmUt9nXB8BBBBAAAEEEEAAAQQQQKC4AoH9kF3caUfn7OdM2zZFl6sXRVRlataZFVixmJbZFw2Uo6amDwk8UK7wKvU7b++rdgGW26zd/Cxh/uxsFXR7XznbAtuqrUyz9vQTB92thc7xbq+sdb9uiL//RnNZKiA87swB9pk/GGxZyc2Egfza8Fyzvv3iumTvq/SbopMgKmuw5RN+5eiL1a2G7u3H0Ky0PmHpmjFrAonMoBBAAAEEEEAAAQQQQAABBHpUgACrRzmDebJzTtp+qy6zLhTRySqhdJfz5HjLy0R/fHK5bRq3d3hDeJq/e9KOjoU0mU8ESB2RR76RzlC8fNppJdUO1DmV+ZHfu9Y5Pvn7dEjimWcy1EpuJ0w1ejd/Vrazm9D5kbPdMLXNMO5uPbS1dp9aqJ0nF9rOkLRTtdWq5b03WipFJy9tQquLbhsukz8X3CBw946E3DB3h976j9akol8/qjy3BLa9vrDwq9MqrGzX94xXK71k2erR81TbuzmYNx+jQgABBBBAAAEEEEAAAQQQ6BEBAqweYQz2SWactHtEZax5rSg5wMkAMgKsdKKTmoY3N/Ie2+7nnr90OJ/nqYeZr8l27lQ4lcyHPI8SbP8ExWRHdo+3G0yZn6UDLu882o3N/Yv3HJlj9z7C0Dsm3yCv47ofemSF/e07hlvl/YJ5a628a7d+4u49bYNrFxZ1kjZ2Zyuh57Udq7DcZCqf4Cx5aMISNWHJmlHvBPvOY3QIIIAAAggggAACCCCAAAI9JRDMT9k9NTvO4wpoNXda7ax4mVqqlCgCLJ+ArUOQ5Qm72oVrud9UVkzpGZcPlqlnVAfu3tq1zdbXzNguu+sSbY3b3ezImZUz4sKqqbr6unZ5YOq6ObYeeqruTA3c5fv/6ec3LpSFyXo4vhBAAAEEEEAAAQQQQAABBPq8QOA+ZPd58ZJNUKvZp9T+USw1lQCreAGWWd79DizTCx/dTwWpCss8MfHuy3bp157e17H6yq8KK1uY1NUqLJ/zdXEr4Z/LGkd9YvFa1VqyW4kLI4AAAggggAACCCCAAAII9LoAAVavk5fugrO/su1oKbeeVakym3SC4NmyZ4bHFkJJNsvKshWysyVUIqdcMFCmzRsk5umOQfh6e12L3Hx+nTQ3ehY3NbYOoVRXq7DMTNPvruS0c1RVdamhu5azlz07+r4gmDIGBBBAAAEEEEAAAQQQQACB3hMIyMfr3ptwtK+0wJpz4vyTdT99rygZ1BZUEWClLbrZAyv1/oqVK33FAzVywCHlJb/HWpq0/HRmrX5vk9u43XsT+IZYPr2wMsMov0qsLmxBbF+F1UlwJuqxsn0jz6D6Ktr/ijF7BBBAAAEEEEAAAQQQiKZAyT9cR5O9lLPW6uxp246zLHWrEmuCKOlHE3e/LYXdqMByl/eTx/fX590wTJW6Cuu5lY16+Y92ZT7UMTnKrFsCu1CF5Zyvk/Cr062EGddNH6+b4zF76n2rx71QyruHayOAAAIIIIAAAggggAACCJRGgACrNO4lv+rMEz6oLi+zDxVVdpTS6iAtbj9sE3N4WmNr82c3+lBiabGTv1TKchMe92DzzTbdtWzPy7Uone64ZQ5Iv84cpWz3HJnntC1tuz9LQpnXKWdcyt3g6LzejMG5fGrAnr+npqPNNdwx28l9gc48xBbd4fXmt8kx6bipyfLM1U50WDMtqlpE/tO8yG9BYzGR+XeM0BM/W1Gy+2zvLlvfOK9O3vervkoN2q8Ky7sVMGu1lWfW7c5RWPiVXy8sfVPZvq2XL177SXpflfxfDwaAAAIIIIAAAggggAACCPS+QMk+WPf+VLkiAj0rsEAWWJsnzblexPpOthDr4CkV9veWDLf6lSDDMpnbgz+p16sfaVCpll6+Ap1VYSVTv+RXzibu3mN6MsRSb9vlFZ9asWpofc+uIGdDAAEEEEAAAQQQQAABBBAIiwABVlhWinEGUmDGv20dUV2h12rRB/gN0IqJnPXDIfYXvlbtW6VVzEl98G5cfjxjuzTt9Xblz3LF7va0yqcRfI4ALEdDd62Vvmr5s2OuLaYV50YAAQQQQAABBBBAAAEEEAi2AAFWsNeH0QVcwKnCmnzuTNGyIttQqwZa+qqHaqRmXFmv3W+JuMh9C+v1cysb8rtmtsqqkm8lVBsqVPPnFz174K6AvxUYHgIIIIAAAggggAACCCCAQBEF8vtwW8QBcGoEwi4wffrDsUF/O+ppEXVstrl8ee4g+7T5A63eauj+6h/26cWX7RI70a62KTd1Z1sJ894+mNpq2MWG7m0va9ZaTln+wpj/Dft7hPEjgAACCCCAAAIIIIAAAgh0T4AAq3t+vBoBR+DcyVtOTmj9G9W+S1Rap2pgzL7k58Nk/KR+Rd9KaPpdXTerVt5+vaXw1fHtdVVAEJXPVsIcQZi3obvWeu07FW8euWrV1HjhE+EVCCCAAAIIIIAAAggggAACfUmAAKsvrSZzKZnArIN0ZdnALbdqkXnZBjHhiH76u/eMUOX9invbPfebRnvFgl1Wzsbt2QbZk1VY5hrO+TIaumdOPyM0c0OsvVa5NXnJmlHvlGxRuTACCCCAAAIIIIAAAggggEBgBIr7STow02QgCBRfYNbH3xkVi5W9LqJG+V2tvELJd+4aoT/2qeIlWDu2xuWaM2v13nq76/e2XxWWk0MV9mRBx8AvwPJkWm3HuGJKxARYSqmblj4/+nvFXzWugAACCCCAAAIIIIAAAgggEAaBrn/IDcPsGCMCvSugzpm89Xql7azBS83+ZfqKB/aTAUOK0w3rF9fW26seauj+NsXubiX0hlQFh1iqViR+yNIX9t/Zu8vH1RBAAAEEEEAAAQQQQAABBIIqQIAV1JVhXKEU+MYn/jm6oqXsSRGZkm0C/3HxIP3lOQN7/N57d2OrNr2vWpoKaNyebZC+AZYnlSqkoXv6ZT4dwjpeJ65tNWfZy6PvC+UbgEEjgAACCCCAAAIIIIAAAggURaDHP0QXZZScFIEQCZxz2PunK8v6lYh/kDRgqKWvfXykqh7c/UKpFIvpd3XbhTv0n59t6rl7urtVWF1r6P5yk244/oGXJuwO0ZIzVAQQQAABBBBAAAEEEEAAgSIL9NyH3SIPlNMjEBaB+R/VFY39N/9FRB2cbcxHndzfnr1wmGXFemZW61c36UXf26niLenn+HX/xH5VVgVvB/QMI/XabE3cRVp1mRy97Lkxr3Z/8JwBAQQQQAABBBBAAAEEEECgLwkQYPWl1WQugRGYM2XLEWLLahE90G9QlVVKLrl7hD54Svcbuu/ZZcvVp2+TD+vsnp9/Vxq653zKYK5G8GrZuJdGnbtQVBEm0vM0nBEBBBBAAAEEEEAAAQQQQKD3BAiwes+aK0VMYO7krYu0ts/PNu0JR/TT371nhCrvZoa16uEG/Ysf1xfnXs7a68oniDITzdo7y1Xw9q5vf+4mreVzy16m+ipitwnTRQABBBBAAAEEEEAAAQTyEijOh968Ls1BCPRtgW9OeX9sua02iUi170yVyNxrh+kjp/Xv8n1Yv93WPz27Vuq2xLt8jk5XwTfE8jRkL6Shu/8WRC2Wvnzci4tvWCgLqb7qdEE4AAEEEEAAAQQQQAABBBCInkDxPvRGz5IZI9BBYM7E9y4VZV0nIr4d2w84pFxfunSEqhpYeEN3OyGy7Mpd9ou/ayz8xYWuVa6G7jm3DLoXyt3QfVOipfnIFevG1xc6LI5HAAEEEEAAAQQQQAABBBCIhgABVjTWmVmWSGD2EW/VxOL9X9Ai/g3dlcgXv1Gtz7h0iPLurstnuLWb43L1V7dLc2MPNm7PduHuNnTPHmAlRPT5S18euySfOXMMAggggAACCCCAAAIIIIBANAUIsKK57sy61wS0mj1p8+djYj2tRZf5XbayWskVD+4no8f7/tp3pE0Nttx60U77rbXNxa++So3At6F7J1sJc24vdH75ZNWIhtNuf3JCc68tCRdCAAEEEEAAAQQQQAABBBAInQABVuiWjAGHTUCLVudO2vqYFn1KtrFPPaNaz7h8sLJi+d2Sz/6mQa9YUK+kF4qv0mPu8YbuZvTq2KWvjFkTtjVlvAgggAACCCCAAAIIIIAAAr0rkN+n5d4dE1dDoM8JnHPY5qlKqd+L0pV+k7NiSl9853A57OiKTu/J1hYtV3+11t72z9beq75KDTpXLyxzTGcN3dv93v7FuFfGnb1QFI3b+9w7ngkhgAACCCCAAAIIIIAAAj0r0OmH5Z69HGdDIJoC06fr2OBNWy7XWq7JiHnSIB89vJ/+wb01OXthaS3y27t365WL9vRu9VVmgNUhrPL8U+IbcnnW3fxeybaYrSYuXjumLprvCGaNAAIIIIAAAggggAACCCBQiAABViFaHItANwS+OaVubLndvFZEj/Q7jWWJfOvG4frwqZVKZamt2vZuXP9sdp18WJcozb2b84mD7i87q8Iyk7fk+0teGXOjEtWbmyC7sXq8FAEEEEAAAQQQQAABBBBAoJQCpfkQXMoZc20ESigwZ8p7l4i2rhctMb9hxMqV/vHj+6masf4N3W85v05veL659Pdtrq2EOUMup/pq3e7GXZ/51caJLSVcCi6NAAIIIIAAAggggAACCCAQIoHSfxAOERZDRaC7AjMnf1BdoeOPa5Hjsp3rS7MHyFcvGdzh1xuebda3XVSn7KB0jMoMsZy/+1RheX4sStlaJb627NX9H+2uJa9HAAEEEEAAAQQQQAABBBCIjgABVnTWmpkGRODciR9Ms1V8pbORzuerokrpKx6sUWM+Up7+bbxFy20X7tAbXwpA9VVqVF1p6K7UKr23/ORlm2r2BGQ5GAYCCCCAAAIIIIAAAggggEAIBAiwQrBIDLFvCSwQbW2etOUJEflytpkdMbW//tbNw5Tpi2W+nrp3r/3IzbuVbevg3LNZe11lqcKyZGdTq57ywBvjNvetFWU2CCCAAAIIIIAAAggggAACxRYIzofhYs+U8yMQIIF5k7YekhD7eREZ6jesiv5KLrh5uH3Y0RVWfW1CrjmzVn9YW6LG7bnc/KqwzPGqY4illdy17LWxFwZoGRgKAggggAACCCCAAAIIIIBASAQIsEKyUAyzbwlMn65jgzZtuUa0/DDbzAYOs/S1T4xUax5t1I/c/KGSID6vr7MqLCfMMv+zPyjT8vm71+3/Vt9aSWaDAAIIIIAAAggggAACCCDQGwIEWL2hzDUQ8BGY/vENAwaVDdkgWg7MBnTc16v18ysbVVNDENMrd9SdhViWJETr2UtfH3c/bwQEEEAAAQQQQAABBBBAAAEEuiJAgNUVNV6DQA8JzJn8/lzR6p5spzM78XSAs6v0uHM1dNeyKaFajlyxbnx9D7FxGgQQQAABBBBAAAEEEEAAgYgJEGBFbMGZbrAEzvrMW4Mq91X9TrQ+JlgjK3A0vlVYzg+bxNLTlr4+7o8FnpHDEUAAAQQQQAABBBBAAAEEEEgLEGDxZkCgxAJnT3n3sDI79oKIDCzxULp3eb8qLK0eHPfG4pkLZaHdvZPzagQQQAABBBBAAAEEEEAAgSgLEGBFefWZeyAETEP3gX/d/JBS6vRADKirg8iowtJK77OsfkcueW3kG109Ja9DAAEEEEAAAQQQQAABBBBAwAgQYPE+QCAAAhdM3LJ/s9J/EJGPBWA4XR9CWxVWqy36ouXrx90josLQxavrc+aVCCCAAAIIIIAAAggggAACRRcgwCo6MRdAID+BWZO2HhKTxO9E1PjQhsvJf1EaRcuVVfv23XX72xOa85s9RyGAAAIIIIAAAggggAACCCCQXYAAi3cHAgESmPeJvw+2Wyq+rbWcIEoOFK0HB2h4Of4lUXER9S+x9EYtsmjZ+rGrqLwKxcoxSAQQQAABBBBAAAEEEEAgFAIEWKFYJgYZNQHTF2vA2x8Ms0RXhWHudqu241Zs5/1vjGoIw3gZIwIIIIAAAggggAACCCCAQLgECLDCtV6MFgEEEEAAAQQQQAABBBBAAAEEEIicAAFW5JacCSOAAAIIIIAAAggggAACCCCAAALhEiDACtd6MVoEEEAAAQQQQAABBBBAAAEEEEAgcgIEWJFbciaMAAIIIIAAAggggAACCCCAAAIIhEuAACtc68VoEUAAAQQQQAABBBBAAAEEEEAAgcgJEGBFbsmZMAIIIIAAAggggAACCCCAAAIIIBAuAQKscK0Xo0UAAQQQQAABBBBAAAEEEEAAAQQiJ0CAFbklZ8IIIIAAAggggAACCCCAAAIIIIBAuAQIsMK1XowWAQQQQAABBBBAAAEEEEAAAQQQiJwAAVbklpwJI4AAAggggAACCCCAAAIIIIAAAuESIMAK13oxWgQQQAABBBBAAAEEEEAAAQQQQCByAgRYkVtyJowAAggggAACCCCAAAIIIIAAAgiES4AAK1zrxWgRQAABBBBAAAEEEEAAAQQQQACByAkQYEVuyZkwAggggAACCCCAAAIIIIAAAgggEC4BAqxwrRejRQABBBBAAAEEEEAAAQQQQAABBCInQIAVuSVnwggggAACCCCAAAIIIIAAAggggEC4BAiwwrVejBYBBBBAAAEEEEAAAQQQQAABBBCInAABVuSWnAkjgAACCCCAAAIIIIAAAggggAAC4RIgwArXejFaBBBAAAEEEEAAAQQQQAABBBBAIHICBFiRW3ImjAACCCCAAAIIIIAAAggggAACCIRLgAArXOvFaBFAAAEEEEAAAQQQQAABBBBAAIHICRBgRW7JmTACCCCAAAIIIIAAAggggAACCCAQLgECrHCtF6NFAAEEEEAAAQQQQAABBBBAAAEEIidAgBW5JWfCCCCAAAIIIIAAAggggAACCCCAQLgECLDCtV6MFgEEEEAAAQQQQAABBBBAAAEEEIicAAFW5JacCSOAAAIIIIAAAggggAACCCCAAALhEiDACtd6MVoEEEAAAQQQQAABBBBAAAEEEEAgcgIEWJFbciaMAAIIIIAAAggggAACCCCAAAIIhEuAACtc68VoEUAAAQQQQAABBBBAAAEEEEAAgcgJEGBFbsmZMAIIIIAAAggggAACCCCAAAIIIBAuAQKscK0Xo0UAAQQQQAABBBBAAAEEEEAAAQQiJ0CAFbklZ8IIIIAAAggggAACCCCAAAIIIIBAuAQIsMK1XowWAQQQQAABBBBAAAEEEEAAAQQQiJwAAVbklpwJI4AAAggggAACCCCAAAIIIIAAAuESIMAK13oxWgQQQAABBBBAAAEEEEAAAQQQQCByAgRYkVtyJowAAggggAACCCCAAAIIIIAAAgiES4AAK1zrxWgRQAABBBBAAAEEEEAAAQQQQACByAkQYEVuyZkwAggggAACCCCAAAIIIIAAAgggEC4BAqxwrRejRQABBBBAAAEEEEAAAQQQQAABBCInQIAVuSVnwggggAACCCCAAAIIIIAAAggggEC4BAiwwrVejBYBBBBAAAEEEEAAAQQQQAABBBCInAABVuSWnAkjgAACCCCAAAIIIIAAAggggAAC4RIgwArXejFaBBBAAAEEEEAAAQQQQAABBBBAIHICBFiRW3ImjAACCCCAAAIIIIAAAggggAACCIRLgAArXOvFaBFAAAEEEEAAAQQQQAABBBBAAIHICRBgRW7JmTACCCCAAAIIIIAAAggggAACCCAQLgECrHCtF6NFAAEEEEAAAQQQQAABBBBAAAEEIidAgBW5JWfCCCCAAAIIIIAAAggggAACCCCAQLgECLDCtV6MFgEEEEAAAQQQQAABBBBAAAEEEIicAAFW5JacCSOAAAIIIIAAAggggAACCCCAAALhEiDACtd6MVoEEEAAAQQQQAABBBBAAAEEEEAgcgIEWJFbciaMAAIIIIAAAggggAACCCCAAAIIhEuAACtc68VoEUAAAQQQQAABBBBAAAEEEEAAgcgJEGBFbsmZMAIIIIAAAggggAACCCCAAAIIIBAuAQKscK0Xo0UAAQQQQAABBBBAAAEEEEAAAQQiJ0CAFbklZ8IIIIAAAggggAACCCCAAAIIIIBAuAQIsMK1XowWAQQQQAABBBBAAAEEEEAAAQQQiJwAAVbklpwJI4AAAggggAACCCCAAAIIIIAAAuESIMAK13oxWgQQQAABBBBAAAEEEEAAAQQQQCByAgRYkVtyJowAAggggAACCCCAAAIIIIAAAgiES4AAK1zrxWgRQAABBBBAAAEEEEAAAQQQQACByAkQYEVuyZkwAggggAACCCCAAAIIIIAAAgggEC4BAqxwrRejRQABBBBAAAEEEEAAAQQQQAABBCInQIAVuSVnwggggAACCCCAAAIIIIAAAggggEC4BAiwwrVejBYBBBBAAAEEEEAAAQQQQAABBBCInAABVuSWnAkjgAACCCCAAAIIIIAAAggggAAC4RIgwArXejFaBBBAAAEEEEAAAQQQQAABBBBAIHICBFiRW3ImjAACCCCAAAIIIIAAAggggAACCIRLgAArXOvFaBFAAAEEEEAAAQQQQAABBBBAAIHICRBgRW7JmTACCCCAAAIIIIAAAggggAACCCAQLgECrHCtF6NFAAEEEEAAAQQQQAABBBBAAAEEIidAgBW5JWfCCCCAAAIIIIAAAggggAACCCCAQLgECLDCtV6MFgEEEEAAAQQQQAABBBBAAAEEEIicAAFW5JacCSOAAAIIIIAAAggggAACCCCAAALhEiDACtd6MVoEEEAAAQQQQAABBBBAAAEEEEAgcgIEWJFbciaMAAIIIIAAAggggAACCCCAAAIIhEuAACtc68VoEUAAAQQQQAABBBBAAAEEEEAAgcgJ/D9ACSu25k9o9gAAAABJRU5ErkJggg==;" vertex="1" parent="1">
                    <mxGeometry x="327.09" y="130" width="126.83" height="50" as="geometry"/>
                </mxCell>
            </root>
        </mxGraphModel>
    </diagram>
    <diagram id="7u9aceq5mHEFFyqViuxH" name="Page-2">
        <mxGraphModel dx="1550" dy="914" grid="1" gridSize="10" guides="1" tooltips="1" connect="1" arrows="1" fold="1" page="1" pageScale="1" pageWidth="827" pageHeight="1169" math="0" shadow="0">
            <root>
                <mxCell id="0"/>
                <mxCell id="1" parent="0"/>
                <mxCell id="El16kWcHUm-N4_peS2cO-3" value="" style="edgeStyle=none;html=1;exitX=0.5;exitY=1;exitDx=0;exitDy=0;exitPerimeter=0;" edge="1" parent="1" source="El16kWcHUm-N4_peS2cO-29" target="El16kWcHUm-N4_peS2cO-2">
                    <mxGeometry relative="1" as="geometry">
                        <mxPoint x="550" y="169.9999999999999" as="sourcePoint"/>
                    </mxGeometry>
                </mxCell>
                <mxCell id="El16kWcHUm-N4_peS2cO-5" value="" style="edgeStyle=orthogonalEdgeStyle;html=1;" edge="1" parent="1" source="El16kWcHUm-N4_peS2cO-2" target="El16kWcHUm-N4_peS2cO-4">
                    <mxGeometry relative="1" as="geometry"/>
                </mxCell>
                <mxCell id="El16kWcHUm-N4_peS2cO-6" value="simple" style="edgeLabel;html=1;align=center;verticalAlign=middle;resizable=0;points=[];" vertex="1" connectable="0" parent="El16kWcHUm-N4_peS2cO-5">
                    <mxGeometry x="-0.0222" y="-1" relative="1" as="geometry">
                        <mxPoint as="offset"/>
                    </mxGeometry>
                </mxCell>
                <mxCell id="El16kWcHUm-N4_peS2cO-2" value="选择使用模式" style="strokeWidth=2;html=1;shape=mxgraph.flowchart.decision;whiteSpace=wrap;" vertex="1" parent="1">
                    <mxGeometry x="495" y="230" width="110" height="60" as="geometry"/>
                </mxCell>
                <mxCell id="El16kWcHUm-N4_peS2cO-12" value="" style="edgeStyle=none;html=1;" edge="1" parent="1" source="El16kWcHUm-N4_peS2cO-4" target="El16kWcHUm-N4_peS2cO-11">
                    <mxGeometry relative="1" as="geometry"/>
                </mxCell>
                <mxCell id="El16kWcHUm-N4_peS2cO-4" value="连接Grobid服务" style="whiteSpace=wrap;html=1;strokeWidth=2;" vertex="1" parent="1">
                    <mxGeometry x="350" y="310" width="120" height="40" as="geometry"/>
                </mxCell>
                <mxCell id="El16kWcHUm-N4_peS2cO-7" value="" style="edgeStyle=orthogonalEdgeStyle;html=1;exitX=1;exitY=0.5;exitDx=0;exitDy=0;exitPerimeter=0;" edge="1" parent="1" target="El16kWcHUm-N4_peS2cO-9" source="El16kWcHUm-N4_peS2cO-2">
                    <mxGeometry relative="1" as="geometry">
                        <mxPoint x="785" y="260" as="sourcePoint"/>
                    </mxGeometry>
                </mxCell>
                <mxCell id="El16kWcHUm-N4_peS2cO-8" value="advanced" style="edgeLabel;html=1;align=center;verticalAlign=middle;resizable=0;points=[];" vertex="1" connectable="0" parent="El16kWcHUm-N4_peS2cO-7">
                    <mxGeometry x="-0.0222" y="-1" relative="1" as="geometry">
                        <mxPoint x="4" y="-1" as="offset"/>
                    </mxGeometry>
                </mxCell>
                <mxCell id="El16kWcHUm-N4_peS2cO-43" value="" style="edgeStyle=orthogonalEdgeStyle;html=1;exitX=0;exitY=0.5;exitDx=0;exitDy=0;" edge="1" parent="1" source="El16kWcHUm-N4_peS2cO-9" target="El16kWcHUm-N4_peS2cO-42">
                    <mxGeometry relative="1" as="geometry"/>
                </mxCell>
                <mxCell id="El16kWcHUm-N4_peS2cO-48" style="edgeStyle=orthogonalEdgeStyle;html=1;entryX=0.5;entryY=0;entryDx=0;entryDy=0;exitX=1;exitY=0.5;exitDx=0;exitDy=0;" edge="1" parent="1" source="El16kWcHUm-N4_peS2cO-9" target="El16kWcHUm-N4_peS2cO-49">
                    <mxGeometry relative="1" as="geometry"/>
                </mxCell>
                <mxCell id="El16kWcHUm-N4_peS2cO-9" value="构建Langchain Grobid解析器" style="whiteSpace=wrap;html=1;strokeWidth=2;" vertex="1" parent="1">
                    <mxGeometry x="760" y="310" width="120" height="40" as="geometry"/>
                </mxCell>
                <mxCell id="El16kWcHUm-N4_peS2cO-14" value="" style="edgeStyle=orthogonalEdgeStyle;html=1;" edge="1" parent="1" source="El16kWcHUm-N4_peS2cO-11" target="El16kWcHUm-N4_peS2cO-13">
                    <mxGeometry relative="1" as="geometry"/>
                </mxCell>
                <mxCell id="El16kWcHUm-N4_peS2cO-21" value="" style="edgeStyle=orthogonalEdgeStyle;html=1;exitX=0;exitY=0.5;exitDx=0;exitDy=0;" edge="1" parent="1" source="El16kWcHUm-N4_peS2cO-13" target="El16kWcHUm-N4_peS2cO-20">
                    <mxGeometry relative="1" as="geometry"/>
                </mxCell>
                <mxCell id="El16kWcHUm-N4_peS2cO-11" value="解析参考文献列表" style="whiteSpace=wrap;html=1;strokeWidth=2;" vertex="1" parent="1">
                    <mxGeometry x="350" y="390" width="120" height="40" as="geometry"/>
                </mxCell>
                <mxCell id="El16kWcHUm-N4_peS2cO-23" value="" style="edgeStyle=orthogonalEdgeStyle;html=1;exitX=1;exitY=0.5;exitDx=0;exitDy=0;" edge="1" parent="1" source="El16kWcHUm-N4_peS2cO-13" target="El16kWcHUm-N4_peS2cO-22">
                    <mxGeometry relative="1" as="geometry"/>
                </mxCell>
                <mxCell id="El16kWcHUm-N4_peS2cO-13" value="遍历文献列表" style="whiteSpace=wrap;html=1;strokeWidth=2;" vertex="1" parent="1">
                    <mxGeometry x="230" y="480" width="120" height="40" as="geometry"/>
                </mxCell>
                <mxCell id="El16kWcHUm-N4_peS2cO-27" value="" style="edgeStyle=none;html=1;" edge="1" parent="1" source="El16kWcHUm-N4_peS2cO-20" target="El16kWcHUm-N4_peS2cO-26">
                    <mxGeometry relative="1" as="geometry"/>
                </mxCell>
                <mxCell id="El16kWcHUm-N4_peS2cO-20" value="解析参考文献摘要部分" style="whiteSpace=wrap;html=1;strokeWidth=2;" vertex="1" parent="1">
                    <mxGeometry x="110" y="550" width="120" height="40" as="geometry"/>
                </mxCell>
                <mxCell id="El16kWcHUm-N4_peS2cO-25" value="" style="edgeStyle=none;html=1;" edge="1" parent="1" source="El16kWcHUm-N4_peS2cO-22" target="El16kWcHUm-N4_peS2cO-24">
                    <mxGeometry relative="1" as="geometry"/>
                </mxCell>
                <mxCell id="El16kWcHUm-N4_peS2cO-22" value="解析论文正文部分" style="whiteSpace=wrap;html=1;strokeWidth=2;" vertex="1" parent="1">
                    <mxGeometry x="350" y="550" width="120" height="40" as="geometry"/>
                </mxCell>
                <mxCell id="El16kWcHUm-N4_peS2cO-28" style="edgeStyle=none;html=1;" edge="1" parent="1" source="El16kWcHUm-N4_peS2cO-24" target="El16kWcHUm-N4_peS2cO-26">
                    <mxGeometry relative="1" as="geometry"/>
                </mxCell>
                <mxCell id="El16kWcHUm-N4_peS2cO-24" value="解析出参考文献在论文中相关部分" style="whiteSpace=wrap;html=1;strokeWidth=2;" vertex="1" parent="1">
                    <mxGeometry x="350" y="630" width="120" height="40" as="geometry"/>
                </mxCell>
                <mxCell id="El16kWcHUm-N4_peS2cO-26" value="将摘要及正文部分结合供QWEN分析" style="whiteSpace=wrap;html=1;strokeWidth=2;" vertex="1" parent="1">
                    <mxGeometry x="110" y="630" width="120" height="40" as="geometry"/>
                </mxCell>
                <mxCell id="El16kWcHUm-N4_peS2cO-29" value="&lt;span style=&quot;color: rgb(0, 0, 0);&quot;&gt;输入必要参数启动程序&lt;/span&gt;" style="strokeWidth=2;html=1;shape=mxgraph.flowchart.terminator;whiteSpace=wrap;" vertex="1" parent="1">
                    <mxGeometry x="500" y="120" width="100" height="60" as="geometry"/>
                </mxCell>
                <mxCell id="El16kWcHUm-N4_peS2cO-30" value="输出结果至output文件夹" style="strokeWidth=2;html=1;shape=mxgraph.flowchart.terminator;whiteSpace=wrap;" vertex="1" parent="1">
                    <mxGeometry x="510" y="850" width="100" height="60" as="geometry"/>
                </mxCell>
                <mxCell id="El16kWcHUm-N4_peS2cO-31" style="edgeStyle=orthogonalEdgeStyle;html=1;entryX=0.5;entryY=0;entryDx=0;entryDy=0;entryPerimeter=0;exitX=0.5;exitY=1;exitDx=0;exitDy=0;" edge="1" parent="1" source="El16kWcHUm-N4_peS2cO-26" target="El16kWcHUm-N4_peS2cO-30">
                    <mxGeometry relative="1" as="geometry"/>
                </mxCell>
                <mxCell id="El16kWcHUm-N4_peS2cO-33" value="" style="edgeStyle=orthogonalEdgeStyle;html=1;exitX=1;exitY=0.5;exitDx=0;exitDy=0;" edge="1" parent="1" source="El16kWcHUm-N4_peS2cO-34" target="El16kWcHUm-N4_peS2cO-38">
                    <mxGeometry relative="1" as="geometry"/>
                </mxCell>
                <mxCell id="El16kWcHUm-N4_peS2cO-34" value="遍历文献列表" style="whiteSpace=wrap;html=1;strokeWidth=2;" vertex="1" parent="1">
                    <mxGeometry x="930" y="480" width="120" height="40" as="geometry"/>
                </mxCell>
                <mxCell id="El16kWcHUm-N4_peS2cO-35" value="" style="edgeStyle=none;html=1;" edge="1" parent="1" source="El16kWcHUm-N4_peS2cO-36" target="El16kWcHUm-N4_peS2cO-41">
                    <mxGeometry relative="1" as="geometry"/>
                </mxCell>
                <mxCell id="El16kWcHUm-N4_peS2cO-36" value="解析参考文献摘要部分" style="whiteSpace=wrap;html=1;strokeWidth=2;" vertex="1" parent="1">
                    <mxGeometry x="810" y="560" width="120" height="40" as="geometry"/>
                </mxCell>
                <mxCell id="El16kWcHUm-N4_peS2cO-37" value="" style="edgeStyle=none;html=1;" edge="1" parent="1" source="El16kWcHUm-N4_peS2cO-38" target="El16kWcHUm-N4_peS2cO-40">
                    <mxGeometry relative="1" as="geometry"/>
                </mxCell>
                <mxCell id="El16kWcHUm-N4_peS2cO-38" value="构建检索任务链" style="whiteSpace=wrap;html=1;strokeWidth=2;" vertex="1" parent="1">
                    <mxGeometry x="1050" y="560" width="120" height="40" as="geometry"/>
                </mxCell>
                <mxCell id="El16kWcHUm-N4_peS2cO-39" style="edgeStyle=none;html=1;" edge="1" parent="1" source="El16kWcHUm-N4_peS2cO-40" target="El16kWcHUm-N4_peS2cO-41">
                    <mxGeometry relative="1" as="geometry"/>
                </mxCell>
                <mxCell id="El16kWcHUm-N4_peS2cO-40" value="解析出参考文献在论文中相关部分" style="whiteSpace=wrap;html=1;strokeWidth=2;" vertex="1" parent="1">
                    <mxGeometry x="1050" y="640" width="120" height="40" as="geometry"/>
                </mxCell>
                <mxCell id="El16kWcHUm-N4_peS2cO-41" value="将必要参数传递给任务链" style="whiteSpace=wrap;html=1;strokeWidth=2;" vertex="1" parent="1">
                    <mxGeometry x="810" y="640" width="120" height="40" as="geometry"/>
                </mxCell>
                <mxCell id="El16kWcHUm-N4_peS2cO-46" value="" style="edgeStyle=none;html=1;" edge="1" parent="1" source="El16kWcHUm-N4_peS2cO-42" target="El16kWcHUm-N4_peS2cO-45">
                    <mxGeometry relative="1" as="geometry"/>
                </mxCell>
                <mxCell id="El16kWcHUm-N4_peS2cO-42" value="解析要验证的论文pdf" style="whiteSpace=wrap;html=1;strokeWidth=2;" vertex="1" parent="1">
                    <mxGeometry x="640" y="390" width="120" height="40" as="geometry"/>
                </mxCell>
                <mxCell id="El16kWcHUm-N4_peS2cO-45" value="将解析的向量块构建FAISS向量数据库" style="whiteSpace=wrap;html=1;strokeWidth=2;" vertex="1" parent="1">
                    <mxGeometry x="640" y="480" width="120" height="40" as="geometry"/>
                </mxCell>
                <mxCell id="El16kWcHUm-N4_peS2cO-50" value="" style="edgeStyle=orthogonalEdgeStyle;html=1;exitX=0;exitY=0.5;exitDx=0;exitDy=0;entryX=0.5;entryY=0;entryDx=0;entryDy=0;" edge="1" parent="1" source="El16kWcHUm-N4_peS2cO-34" target="El16kWcHUm-N4_peS2cO-36">
                    <mxGeometry relative="1" as="geometry">
                        <mxPoint x="930" y="410" as="sourcePoint"/>
                        <mxPoint x="870" y="460" as="targetPoint"/>
                    </mxGeometry>
                </mxCell>
                <mxCell id="El16kWcHUm-N4_peS2cO-51" value="" style="edgeStyle=none;html=1;" edge="1" parent="1" source="El16kWcHUm-N4_peS2cO-49" target="El16kWcHUm-N4_peS2cO-34">
                    <mxGeometry relative="1" as="geometry"/>
                </mxCell>
                <mxCell id="El16kWcHUm-N4_peS2cO-49" value="解析参考文献列表" style="whiteSpace=wrap;html=1;strokeWidth=2;" vertex="1" parent="1">
                    <mxGeometry x="930" y="390" width="120" height="40" as="geometry"/>
                </mxCell>
                <mxCell id="El16kWcHUm-N4_peS2cO-52" style="edgeStyle=orthogonalEdgeStyle;html=1;entryX=0.5;entryY=0;entryDx=0;entryDy=0;entryPerimeter=0;exitX=0.5;exitY=1;exitDx=0;exitDy=0;" edge="1" parent="1" source="El16kWcHUm-N4_peS2cO-41" target="El16kWcHUm-N4_peS2cO-30">
                    <mxGeometry relative="1" as="geometry">
                        <Array as="points">
                            <mxPoint x="870" y="760"/>
                            <mxPoint x="560" y="760"/>
                        </Array>
                    </mxGeometry>
                </mxCell>
            </root>
        </mxGraphModel>
    </diagram>
</mxfile>